<svg width="24" height="28" viewBox="0 0 24 28" fill="none" xmlns="http://www.w3.org/2000/svg">
<g id="logo">
<path id="Vector" d="M16.6363 21.5676L16.6049 25.1297L12.773 27.4848C12.2957 27.7783 11.6968 27.7911 11.2072 27.5185L7.34284 25.3662L7.30606 21.7377L11.2595 23.9432C11.7493 24.2164 12.3487 24.2037 12.8265 23.91L16.6363 21.5676ZM5.95394 3.63708L5.92219 7.28109L3.78345 8.60522C3.32803 8.88717 3.05098 9.38423 3.05098 9.91933V18.284C3.05098 18.8238 3.3329 19.3246 3.79475 19.6051L5.80413 20.8254L5.77277 24.4126L0.743752 21.3581C0.281911 21.0776 0 20.5769 0 20.0371V8.18364C0 7.6485 0.27708 7.15144 0.732534 6.86949L5.95394 3.63708ZM17.9644 3.88988L23.2423 7.02001C23.712 7.2986 24 7.80382 24 8.34943V20.0369C24 20.5933 23.7006 21.1069 23.216 21.3815L18.1699 24.2421L18.1343 20.718L20.1646 19.5672C20.6492 19.2925 20.9486 18.779 20.9486 18.2225V10.1235C20.9486 9.57789 20.6607 9.07275 20.191 8.79412L18.0008 7.49485L17.9644 3.88988ZM12.7816 0.542679L16.7965 3.19718L16.7655 6.76234L12.8155 4.14717C12.3174 3.8174 11.6737 3.80333 11.1616 4.11095L7.15239 6.51958L7.116 2.91771L11.1286 0.507008C11.6403 0.199534 12.2836 0.213415 12.7816 0.542679Z" fill="#353B50"/>
<path id="Vector_2" d="M9.80835 17.5467L10.097 16.9449H14.0806L14.8622 18.864H18.05L13.4829 8.04059H10.617L6.04998 18.864H7.71373C8.60761 18.864 9.42218 18.3517 9.80835 17.5467ZM13.4048 14.6119H11.0045L12.2047 11.4911L13.4048 14.6119Z" fill="#353B50"/>
</g>
</svg>
