<svg width="16" height="16" viewBox="0 0 16 16" fill="none" xmlns="http://www.w3.org/2000/svg">
<g id="technology/ic-auth-sandbox-16" clip-path="url(#clip0_450_2164)">
<g id="Vector">
<path fill-rule="evenodd" clip-rule="evenodd" d="M7.67292 0.830252C7.87176 0.701007 8.12807 0.701007 8.32691 0.830252L9.16024 1.37192C9.43808 1.55251 9.51691 1.92414 9.33631 2.20198C9.15572 2.47981 8.78409 2.55864 8.50625 2.37805L7.99991 2.04893L1.93325 5.99226L1.93325 10.0077L7.99991 13.951L14.0666 10.0077L14.0666 5.99226L13.5063 5.62805C13.2284 5.44746 13.1496 5.07583 13.3302 4.79799C13.5108 4.52016 13.8824 4.44133 14.1602 4.62192L14.9936 5.16359C15.1638 5.27426 15.2666 5.46357 15.2666 5.66665L15.2666 10.3333C15.2666 10.5364 15.1638 10.7257 14.9936 10.8364L8.32691 15.1697C8.12807 15.299 7.87176 15.299 7.67292 15.1697L1.00625 10.8364C0.835978 10.7257 0.733247 10.5364 0.733247 10.3333L0.733247 5.66665C0.733247 5.46357 0.835978 5.27427 1.00625 5.16359L7.67292 0.830252Z" fill="#212636"/>
<path fill-rule="evenodd" clip-rule="evenodd" d="M7.99991 9.73332C8.33128 9.73332 8.59991 10.0019 8.59991 10.3333L8.59991 14.6667C8.59991 14.998 8.33128 15.2667 7.99991 15.2667C7.66854 15.2667 7.39991 14.998 7.39991 14.6667L7.39991 10.3333C7.39991 10.0019 7.66854 9.73332 7.99991 9.73332Z" fill="#212636"/>
<path fill-rule="evenodd" clip-rule="evenodd" d="M0.841708 5.32257C1.03174 5.0511 1.40585 4.98508 1.67732 5.17511L7.99991 9.60092L14.3225 5.17511C14.594 4.98508 14.9681 5.0511 15.1581 5.32257C15.3481 5.59404 15.2821 5.96816 15.0107 6.15819L8.34399 10.8249C8.1374 10.9695 7.86243 10.9695 7.65584 10.8249L0.989169 6.15819C0.7177 5.96816 0.651679 5.59404 0.841708 5.32257Z" fill="#212636"/>
<path fill-rule="evenodd" clip-rule="evenodd" d="M8.32085 5.04091C8.00408 5.01376 7.72528 5.24854 7.69813 5.5653C7.67098 5.88207 7.90576 6.16087 8.22252 6.18802C8.53929 6.21517 8.81809 5.98039 8.84524 5.66363C8.87239 5.34686 8.63761 5.06806 8.32085 5.04091ZM6.50251 5.46282C6.58626 4.48574 7.44624 3.76155 8.42333 3.84529C9.40041 3.92904 10.1246 4.78902 10.0409 5.76611C9.95711 6.74319 9.09713 7.46738 8.12004 7.38363C7.14296 7.29989 6.41877 6.43991 6.50251 5.46282Z" fill="#212636"/>
<path fill-rule="evenodd" clip-rule="evenodd" d="M12.5459 2.01511C12.7594 2.26857 12.7269 2.64709 12.4735 2.86053L9.61199 5.2702C9.35852 5.48364 8.98001 5.4512 8.76656 5.19773C8.55311 4.94426 8.58556 4.56575 8.83903 4.3523L11.7005 1.94264C11.954 1.72919 12.3325 1.76164 12.5459 2.01511Z" fill="#212636"/>
<path fill-rule="evenodd" clip-rule="evenodd" d="M11.0646 2.47812C11.3181 2.26467 11.6966 2.29712 11.91 2.55059L12.4455 3.18647C12.659 3.43994 12.6265 3.81845 12.373 4.0319C12.1196 4.24534 11.7411 4.2129 11.5276 3.95943L10.9921 3.32355C10.7787 3.07008 10.8111 2.69157 11.0646 2.47812Z" fill="#212636"/>
</g>
</g>
<defs>
<clipPath id="clip0_450_2164">
<rect width="16" height="16" fill="white"/>
</clipPath>
</defs>
</svg>
