<svg width="16" height="16" viewBox="0 0 16 16" fill="none" xmlns="http://www.w3.org/2000/svg">
<g id="technology/ic-box-16" clip-path="url(#clip0_450_1832)">
<g id="Vector">
<path fill-rule="evenodd" clip-rule="evenodd" d="M4.66667 10.4C4.99804 10.4 5.26667 10.6686 5.26667 11V14.4467C5.26667 14.778 4.99804 15.0467 4.66667 15.0467C4.3353 15.0467 4.06667 14.778 4.06667 14.4467V11C4.06667 10.6686 4.3353 10.4 4.66667 10.4Z" fill="#212636"/>
<path fill-rule="evenodd" clip-rule="evenodd" d="M4.35778 6.48562C4.54782 6.3715 4.78529 6.37146 4.97536 6.4855L8.3087 8.4855C8.48942 8.59394 8.6 8.78924 8.6 9V12.6667C8.6 12.8775 8.48934 13.0729 8.30851 13.1813L5.66233 14.7676C5.36176 14.9481 5.01727 15.0437 4.66667 15.0437C4.31588 15.0437 3.97169 14.9483 3.671 14.7676L1.6713 13.5678C1.3859 13.3964 1.14932 13.1539 0.985043 12.8643C0.820767 12.5747 0.734065 12.2476 0.733335 11.9146L0.733334 11.9133V9.75333L0.733335 9.75202C0.734065 9.41907 0.820767 9.09195 0.985043 8.80235C1.14932 8.51275 1.3856 8.27049 1.671 8.09902L4.35778 6.48562ZM4.66679 7.69979L2.289 9.12765C2.18079 9.19268 2.0911 9.28462 2.02881 9.39443C1.96659 9.50412 1.93371 9.62799 1.93333 9.75409V11.9126C1.93371 12.0387 1.96659 12.1625 2.02881 12.2722C2.09106 12.382 2.18058 12.4738 2.2887 12.5388M2.2887 12.5388L4.2887 13.7388C4.40275 13.8074 4.53361 13.8437 4.66667 13.8437C4.79973 13.8437 4.93028 13.8075 5.04433 13.739L7.4 12.3268V9.33971L4.66679 7.69979" fill="#212636"/>
<path fill-rule="evenodd" clip-rule="evenodd" d="M0.992459 8.79082C1.16321 8.50683 1.53185 8.41504 1.81584 8.58579L4.97584 10.4858C5.25983 10.6565 5.35163 11.0252 5.18088 11.3092C5.01012 11.5932 4.64148 11.685 4.35749 11.5142L1.19749 9.61421C0.913502 9.44345 0.821705 9.07481 0.992459 8.79082Z" fill="#212636"/>
<path fill-rule="evenodd" clip-rule="evenodd" d="M8.5145 8.6913C8.68498 8.97545 8.59285 9.34401 8.3087 9.51449L4.97536 11.5145C4.69122 11.685 4.32266 11.5928 4.15217 11.3087C3.98168 11.0245 4.07382 10.656 4.35797 10.4855L7.6913 8.4855C7.97545 8.31501 8.34401 8.40715 8.5145 8.6913Z" fill="#212636"/>
<path fill-rule="evenodd" clip-rule="evenodd" d="M11.0246 6.4855C11.2147 6.37146 11.4522 6.3715 11.6422 6.48562L14.3289 8.09895C14.6143 8.27042 14.8507 8.51275 15.015 8.80235C15.1792 9.09195 15.2659 9.41907 15.2667 9.75202L15.2667 9.75333L15.2667 11.9146C15.2659 12.2476 15.1792 12.5747 15.015 12.8643C14.8507 13.1539 14.6144 13.3962 14.329 13.5676L12.329 14.7676C12.0283 14.9483 11.6841 15.0437 11.3333 15.0437C10.9827 15.0437 10.6387 14.9484 10.3382 14.7679L7.69149 13.1813C7.51066 13.0729 7.4 12.8775 7.4 12.6667V9C7.4 8.78924 7.51058 8.59394 7.6913 8.4855L11.0246 6.4855ZM8.6 9.33971V12.3268L10.9552 13.7387C11.0692 13.8072 11.2003 13.8437 11.3333 13.8437C11.4664 13.8437 11.5969 13.8075 11.711 13.739L14.0667 12.1834M8.6 9.33971L11.3332 7.69979L13.711 9.12765C13.8192 9.19268 13.9089 9.28461 13.9712 9.39443C14.0334 9.50412 14.0663 9.62799 14.0667 9.75409V12.1834" fill="#212636"/>
<path fill-rule="evenodd" clip-rule="evenodd" d="M7.4855 8.6913C7.65599 8.40715 8.02455 8.31502 8.3087 8.4855L11.642 10.4855C11.9262 10.656 12.0183 11.0245 11.8478 11.3087C11.6773 11.5928 11.3088 11.685 11.0246 11.5145L7.6913 9.51449C7.40715 9.34401 7.31502 8.97545 7.4855 8.6913Z" fill="#212636"/>
<path fill-rule="evenodd" clip-rule="evenodd" d="M15.0075 8.79082C15.1783 9.07481 15.0865 9.44345 14.8025 9.61421L11.6425 11.5142C11.3585 11.685 10.9899 11.5932 10.8191 11.3092C10.6484 11.0252 10.7402 10.6565 11.0242 10.4858L14.1842 8.58579C14.4681 8.41504 14.8368 8.50683 15.0075 8.79082Z" fill="#212636"/>
<path fill-rule="evenodd" clip-rule="evenodd" d="M11.3333 10.4C11.6647 10.4 11.9333 10.6686 11.9333 11V14.4467C11.9333 14.778 11.6647 15.0467 11.3333 15.0467C11.002 15.0467 10.7333 14.778 10.7333 14.4467V11C10.7333 10.6686 11.002 10.4 11.3333 10.4Z" fill="#212636"/>
<path fill-rule="evenodd" clip-rule="evenodd" d="M7.00464 1.23217C7.30526 1.05163 7.64933 0.956253 8 0.956253C8.35067 0.956253 8.69474 1.05163 8.99536 1.23217L10.9954 2.43217C11.2808 2.60364 11.5173 2.84609 11.6816 3.13569C11.8459 3.42529 11.9326 3.7524 11.9333 4.08535L11.9333 4.08667L11.9333 7C11.9333 7.21076 11.8228 7.40606 11.642 7.5145L8.3087 9.51449C8.11869 9.6285 7.88131 9.6285 7.6913 9.51449L4.35797 7.5145C4.17725 7.40606 4.06667 7.21076 4.06667 7V4.08667L4.06667 4.08535C4.0674 3.7524 4.1541 3.42529 4.31838 3.13569C4.48265 2.84609 4.71893 2.60382 5.00433 2.43235L7.00464 1.23217ZM8 2.15625C7.86694 2.15625 7.73639 2.19246 7.62233 2.26098L5.62233 3.46098C5.51408 3.52602 5.42445 3.61792 5.36214 3.72776C5.29992 3.83745 5.26704 3.96133 5.26667 4.08742V6.66029L8 8.30029L10.7333 6.66029V4.08742C10.733 3.96133 10.7001 3.83745 10.6379 3.72776C10.5756 3.61792 10.4859 3.52604 10.3777 3.461L8.37797 2.26116C8.26391 2.19264 8.13306 2.15625 8 2.15625Z" fill="#212636"/>
<path fill-rule="evenodd" clip-rule="evenodd" d="M4.32579 3.12416C4.49655 2.84017 4.86519 2.74837 5.14918 2.91912L8.30918 4.81912C8.59317 4.98988 8.68496 5.35852 8.51421 5.64251C8.34346 5.9265 7.97481 6.01829 7.69082 5.84754L4.53082 3.94754C4.24684 3.77679 4.15504 3.40815 4.32579 3.12416Z" fill="#212636"/>
<path fill-rule="evenodd" clip-rule="evenodd" d="M11.6742 3.12416C11.845 3.40815 11.7532 3.77679 11.4692 3.94754L8.30918 5.84754C8.02519 6.01829 7.65655 5.9265 7.48579 5.64251C7.31504 5.35852 7.40684 4.98988 7.69082 4.81912L10.8508 2.91912C11.1348 2.74837 11.5035 2.84017 11.6742 3.12416Z" fill="#212636"/>
<path fill-rule="evenodd" clip-rule="evenodd" d="M8 4.73333C8.33137 4.73333 8.6 5.00196 8.6 5.33333L8.6 9C8.6 9.33137 8.33137 9.6 8 9.6C7.66863 9.6 7.4 9.33137 7.4 9V5.33333C7.4 5.00196 7.66863 4.73333 8 4.73333Z" fill="#212636"/>
</g>
</g>
<defs>
<clipPath id="clip0_450_1832">
<rect width="16" height="16" fill="white"/>
</clipPath>
</defs>
</svg>
