<svg width="16" height="16" viewBox="0 0 16 16" fill="none" xmlns="http://www.w3.org/2000/svg">
<g id="technology/ic-cloud-cog-16">
<g id="Vector">
<path fill-rule="evenodd" clip-rule="evenodd" d="M5.57692 1.40939C6.37464 1.34626 7.17627 1.46573 7.92091 1.75875C8.66556 2.05176 9.33364 2.5106 9.87443 3.10043C10.3127 3.5784 10.658 4.1322 10.8942 4.73332H11.6748C12.4379 4.74361 13.1779 4.99619 13.7882 5.4545C14.3984 5.91282 14.8472 6.5532 15.0697 7.2832C15.2923 8.01319 15.2771 8.79503 15.0264 9.51583C14.7756 10.2366 14.3023 10.8591 13.6748 11.2934C13.4023 11.4819 13.0285 11.4139 12.8399 11.1414C12.6514 10.8689 12.7194 10.4952 12.9919 10.3066C13.4103 10.0171 13.7258 9.60211 13.893 9.12157C14.0602 8.64103 14.0703 8.11981 13.9219 7.63315C13.7735 7.14648 13.4743 6.71956 13.0675 6.41402C12.6617 6.10924 12.1698 5.94097 11.6624 5.93332H10.4667C10.201 5.93332 9.96692 5.75858 9.89141 5.50385C9.7158 4.91144 9.4075 4.36683 8.98993 3.91139C8.57236 3.45595 8.05649 3.10166 7.48152 2.87541C6.90654 2.64916 6.28756 2.5569 5.6716 2.60565C5.05563 2.6544 4.45887 2.84287 3.92664 3.15675C3.39441 3.47063 2.9407 3.90167 2.59997 4.41712C2.25924 4.93258 2.04045 5.5189 1.96021 6.13156C1.87998 6.74422 1.9404 7.36711 2.1369 7.95292C2.3334 8.53873 2.66081 9.07207 3.09427 9.51242C3.32672 9.74858 3.32372 10.1285 3.08757 10.3609C2.85141 10.5934 2.47152 10.5904 2.23907 10.3542C1.67771 9.78393 1.25369 9.09322 0.999202 8.33454C0.744717 7.57587 0.666459 6.76918 0.770373 5.97573C0.874287 5.18229 1.15764 4.42295 1.59891 3.7554C2.04019 3.08784 2.62778 2.52962 3.31706 2.12312C4.00634 1.71662 4.77919 1.47253 5.57692 1.40939Z" fill="#212636"/>
<path fill-rule="evenodd" clip-rule="evenodd" d="M8 9.93332C7.2268 9.93332 6.6 10.5601 6.6 11.3333C6.6 12.1065 7.2268 12.7333 8 12.7333C8.7732 12.7333 9.4 12.1065 9.4 11.3333C9.4 10.5601 8.7732 9.93332 8 9.93332ZM5.4 11.3333C5.4 9.89738 6.56406 8.73332 8 8.73332C9.43594 8.73332 10.6 9.89738 10.6 11.3333C10.6 12.7693 9.43594 13.9333 8 13.9333C6.56406 13.9333 5.4 12.7693 5.4 11.3333Z" fill="#212636"/>
<path fill-rule="evenodd" clip-rule="evenodd" d="M8 8.06665C8.33137 8.06665 8.6 8.33528 8.6 8.66665V9.33332C8.6 9.66469 8.33137 9.93332 8 9.93332C7.66863 9.93332 7.4 9.66469 7.4 9.33332V8.66665C7.4 8.33528 7.66863 8.06665 8 8.06665Z" fill="#212636"/>
<path fill-rule="evenodd" clip-rule="evenodd" d="M8 12.7333C8.33137 12.7333 8.6 13.0019 8.6 13.3333V14C8.6 14.3314 8.33137 14.6 8 14.6C7.66863 14.6 7.4 14.3314 7.4 14V13.3333C7.4 13.0019 7.66863 12.7333 8 12.7333Z" fill="#212636"/>
<path fill-rule="evenodd" clip-rule="evenodd" d="M9.4 11.3333C9.4 11.0019 9.66863 10.7333 10 10.7333H10.6667C10.998 10.7333 11.2667 11.0019 11.2667 11.3333C11.2667 11.6647 10.998 11.9333 10.6667 11.9333H10C9.66863 11.9333 9.4 11.6647 9.4 11.3333Z" fill="#212636"/>
<path fill-rule="evenodd" clip-rule="evenodd" d="M4.73333 11.3333C4.73333 11.0019 5.00196 10.7333 5.33333 10.7333H6C6.33137 10.7333 6.6 11.0019 6.6 11.3333C6.6 11.6647 6.33137 11.9333 6 11.9333H5.33333C5.00196 11.9333 4.73333 11.6647 4.73333 11.3333Z" fill="#212636"/>
<path fill-rule="evenodd" clip-rule="evenodd" d="M10.4243 8.90906C10.6586 9.14337 10.6586 9.52327 10.4243 9.75758L9.8376 10.3443C9.60328 10.5786 9.22338 10.5786 8.98907 10.3443C8.75475 10.1099 8.75475 9.73004 8.98907 9.49572L9.57574 8.90906C9.81005 8.67474 10.1899 8.67474 10.4243 8.90906Z" fill="#212636"/>
<path fill-rule="evenodd" clip-rule="evenodd" d="M7.01093 12.3224C7.24525 12.5567 7.24525 12.9366 7.01093 13.1709L6.42426 13.7576C6.18995 13.9919 5.81005 13.9919 5.57574 13.7576C5.34142 13.5233 5.34142 13.1434 5.57574 12.9091L6.1624 12.3224C6.39672 12.0881 6.77662 12.0881 7.01093 12.3224Z" fill="#212636"/>
<path fill-rule="evenodd" clip-rule="evenodd" d="M8.98907 12.3224C9.22338 12.0881 9.60328 12.0881 9.8376 12.3224L10.4243 12.9091C10.6586 13.1434 10.6586 13.5233 10.4243 13.7576C10.1899 13.9919 9.81005 13.9919 9.57574 13.7576L8.98907 13.1709C8.75475 12.9366 8.75475 12.5567 8.98907 12.3224Z" fill="#212636"/>
<path fill-rule="evenodd" clip-rule="evenodd" d="M5.57574 8.90906C5.81005 8.67474 6.18995 8.67474 6.42426 8.90906L7.01093 9.49572C7.24525 9.73004 7.24525 10.1099 7.01093 10.3443C6.77662 10.5786 6.39672 10.5786 6.1624 10.3443L5.57574 9.75758C5.34142 9.52327 5.34142 9.14337 5.57574 8.90906Z" fill="#212636"/>
</g>
</g>
</svg>
