<svg width="16" height="16" viewBox="0 0 16 16" fill="none" xmlns="http://www.w3.org/2000/svg">
<g id="technology/ic-database-16">
<path id="Vector (Stroke)" fill-rule="evenodd" clip-rule="evenodd" d="M2.84289 3.02609C2.60766 3.21148 2.6 3.31983 2.6 3.33334C2.6 3.34684 2.60766 3.4552 2.84289 3.64058C3.07136 3.82063 3.43914 4.00902 3.9471 4.17834C4.95673 4.51489 6.38969 4.73334 8 4.73334C9.61031 4.73334 11.0433 4.51489 12.0529 4.17834C12.5609 4.00902 12.9286 3.82063 13.1571 3.64058C13.3923 3.4552 13.4 3.34684 13.4 3.33334C13.4 3.31983 13.3923 3.21148 13.1571 3.02609C12.9286 2.84604 12.5609 2.65765 12.0529 2.48833C11.0433 2.15179 9.61031 1.93334 8 1.93334C6.38969 1.93334 4.95673 2.15179 3.9471 2.48833C3.43914 2.65765 3.07136 2.84604 2.84289 3.02609ZM13.4 4.90731C13.1122 5.06328 12.7847 5.19931 12.4324 5.31676C11.2704 5.70407 9.7034 5.93334 8 5.93334C6.2966 5.93334 4.72956 5.70407 3.56762 5.31676C3.21526 5.19931 2.8878 5.06328 2.6 4.90731V8C2.6 8.00877 2.60483 8.11441 2.83289 8.29793C3.0554 8.477 3.42153 8.66982 3.9471 8.84501C4.99426 9.19406 6.45261 9.4 8 9.4C9.54739 9.4 11.0057 9.19406 12.0529 8.84501C12.5785 8.66982 12.9446 8.477 13.1671 8.29793C13.3952 8.11441 13.4 8.00877 13.4 8V4.90731ZM14.6 3.33334C14.6 2.79456 14.2719 2.37677 13.8999 2.0836C13.5211 1.7851 13.0102 1.54253 12.4324 1.34991C11.2704 0.962601 9.7034 0.733337 8 0.733337C6.2966 0.733337 4.72956 0.962601 3.56762 1.34991C2.98979 1.54253 2.47889 1.7851 2.10013 2.0836C1.72812 2.37677 1.4 2.79456 1.4 3.33334V12.6667C1.4 13.1883 1.71124 13.6023 2.08056 13.8995C2.45542 14.2011 2.96796 14.4502 3.56762 14.6501C4.77089 15.0512 6.36479 15.2667 8 15.2667C9.63521 15.2667 11.2291 15.0512 12.4324 14.6501C13.032 14.4502 13.5446 14.2011 13.9194 13.8995C14.2888 13.6023 14.6 13.1883 14.6 12.6667V3.33334ZM13.4 9.57346C13.1154 9.72802 12.7893 9.86444 12.4324 9.98343C11.2291 10.3845 9.63521 10.6 8 10.6C6.36479 10.6 4.77089 10.3845 3.56762 9.98343C3.21066 9.86444 2.88456 9.72802 2.6 9.57346V12.6667C2.6 12.6754 2.60483 12.7811 2.83289 12.9646C3.0554 13.1437 3.42153 13.3365 3.9471 13.5117C4.99426 13.8607 6.45261 14.0667 8 14.0667C9.54739 14.0667 11.0057 13.8607 12.0529 13.5117C12.5785 13.3365 12.9446 13.1437 13.1671 12.9646C13.3952 12.7811 13.4 12.6754 13.4 12.6667V9.57346Z" fill="#212636"/>
</g>
</svg>
