<svg width="16" height="16" viewBox="0 0 16 16" fill="none" xmlns="http://www.w3.org/2000/svg">
<g id="technology/ic-database-operations-16">
<g id="Vector">
<path fill-rule="evenodd" clip-rule="evenodd" d="M4 1.93334C3.80551 1.93334 3.61898 2.0106 3.48146 2.14813C3.34393 2.28565 3.26667 2.47218 3.26667 2.66667V4C3.26667 4.33138 2.99804 4.6 2.66667 4.6C2.3353 4.6 2.06667 4.33138 2.06667 4V2.66667C2.06667 2.15392 2.27036 1.66217 2.63293 1.2996C2.9955 0.937027 3.48725 0.733337 4 0.733337H9.66667C9.8258 0.733337 9.97841 0.796552 10.0909 0.909073L13.7576 4.57574C13.8701 4.68826 13.9333 4.84087 13.9333 5V13.3333C13.9333 13.8461 13.7296 14.3378 13.3671 14.7004C13.0045 15.063 12.5128 15.2667 12 15.2667H2.66667C2.3353 15.2667 2.06667 14.998 2.06667 14.6667C2.06667 14.3353 2.3353 14.0667 2.66667 14.0667H12C12.1945 14.0667 12.381 13.9894 12.5185 13.8519C12.6561 13.7144 12.7333 13.5278 12.7333 13.3333V5.24853L9.41814 1.93334H4Z" fill="#212636"/>
<path fill-rule="evenodd" clip-rule="evenodd" d="M9.33333 0.733337C9.6647 0.733337 9.93333 1.00197 9.93333 1.33334V4.73334H13.3333C13.6647 4.73334 13.9333 5.00197 13.9333 5.33334C13.9333 5.66471 13.6647 5.93334 13.3333 5.93334H9.33333C9.00196 5.93334 8.73333 5.66471 8.73333 5.33334V1.33334C8.73333 1.00197 9.00196 0.733337 9.33333 0.733337Z" fill="#212636"/>
<path fill-rule="evenodd" clip-rule="evenodd" d="M4 7.93334C3.2268 7.93334 2.6 8.56014 2.6 9.33334C2.6 10.1065 3.2268 10.7333 4 10.7333C4.7732 10.7333 5.4 10.1065 5.4 9.33334C5.4 8.56014 4.7732 7.93334 4 7.93334ZM1.4 9.33334C1.4 7.8974 2.56406 6.73334 4 6.73334C5.43594 6.73334 6.6 7.8974 6.6 9.33334C6.6 10.7693 5.43594 11.9333 4 11.9333C2.56406 11.9333 1.4 10.7693 1.4 9.33334Z" fill="#212636"/>
<path fill-rule="evenodd" clip-rule="evenodd" d="M4 6.06667C4.33137 6.06667 4.6 6.3353 4.6 6.66667V7.33334C4.6 7.66471 4.33137 7.93334 4 7.93334C3.66863 7.93334 3.4 7.66471 3.4 7.33334V6.66667C3.4 6.3353 3.66863 6.06667 4 6.06667Z" fill="#212636"/>
<path fill-rule="evenodd" clip-rule="evenodd" d="M4 10.7333C4.33137 10.7333 4.6 11.002 4.6 11.3333V12C4.6 12.3314 4.33137 12.6 4 12.6C3.66863 12.6 3.4 12.3314 3.4 12V11.3333C3.4 11.002 3.66863 10.7333 4 10.7333Z" fill="#212636"/>
<path fill-rule="evenodd" clip-rule="evenodd" d="M5.4 9.33334C5.4 9.00197 5.66863 8.73334 6 8.73334H6.66667C6.99804 8.73334 7.26667 9.00197 7.26667 9.33334C7.26667 9.66471 6.99804 9.93334 6.66667 9.93334H6C5.66863 9.93334 5.4 9.66471 5.4 9.33334Z" fill="#212636"/>
<path fill-rule="evenodd" clip-rule="evenodd" d="M0.733334 9.33334C0.733334 9.00197 1.00196 8.73334 1.33333 8.73334H2C2.33137 8.73334 2.6 9.00197 2.6 9.33334C2.6 9.66471 2.33137 9.93334 2 9.93334H1.33333C1.00196 9.93334 0.733334 9.66471 0.733334 9.33334Z" fill="#212636"/>
<path fill-rule="evenodd" clip-rule="evenodd" d="M6.42426 6.90907C6.65858 7.14339 6.65858 7.52329 6.42426 7.7576L5.8376 8.34427C5.60328 8.57858 5.22338 8.57858 4.98907 8.34427C4.75476 8.10995 4.75476 7.73005 4.98907 7.49574L5.57574 6.90907C5.81005 6.67476 6.18995 6.67476 6.42426 6.90907Z" fill="#212636"/>
<path fill-rule="evenodd" clip-rule="evenodd" d="M3.01093 10.3224C3.24525 10.5567 3.24525 10.9366 3.01093 11.1709L2.42426 11.7576C2.18995 11.9919 1.81005 11.9919 1.57574 11.7576C1.34142 11.5233 1.34142 11.1434 1.57574 10.9091L2.1624 10.3224C2.39672 10.0881 2.77662 10.0881 3.01093 10.3224Z" fill="#212636"/>
<path fill-rule="evenodd" clip-rule="evenodd" d="M4.98907 10.3224C5.22338 10.0881 5.60328 10.0881 5.8376 10.3224L6.42426 10.9091C6.65858 11.1434 6.65858 11.5233 6.42426 11.7576C6.18995 11.9919 5.81005 11.9919 5.57574 11.7576L4.98907 11.1709C4.75476 10.9366 4.75475 10.5567 4.98907 10.3224Z" fill="#212636"/>
<path fill-rule="evenodd" clip-rule="evenodd" d="M1.57574 6.90907C1.81005 6.67476 2.18995 6.67476 2.42426 6.90907L3.01093 7.49574C3.24525 7.73005 3.24525 8.10995 3.01093 8.34427C2.77662 8.57858 2.39672 8.57858 2.1624 8.34427L1.57574 7.7576C1.34142 7.52329 1.34142 7.14339 1.57574 6.90907Z" fill="#212636"/>
</g>
</g>
</svg>
