<svg width="16" height="16" viewBox="0 0 16 16" fill="none" xmlns="http://www.w3.org/2000/svg">
<g id="technology/ic-database-query-16">
<g id="Vector">
<path fill-rule="evenodd" clip-rule="evenodd" d="M2.84289 3.02609C2.60766 3.21148 2.6 3.31983 2.6 3.33334C2.6 3.34684 2.60766 3.4552 2.84289 3.64058C3.07136 3.82063 3.43914 4.00902 3.9471 4.17834C4.95673 4.51489 6.38969 4.73334 8 4.73334C9.61031 4.73334 11.0433 4.51489 12.0529 4.17834C12.5609 4.00902 12.9286 3.82063 13.1571 3.64058C13.3923 3.4552 13.4 3.34684 13.4 3.33334C13.4 3.31983 13.3923 3.21148 13.1571 3.02609C12.9286 2.84604 12.5609 2.65765 12.0529 2.48833C11.0433 2.15179 9.61031 1.93334 8 1.93334C6.38969 1.93334 4.95673 2.15179 3.9471 2.48833C3.43914 2.65765 3.07136 2.84604 2.84289 3.02609ZM3.56762 1.34991C4.72956 0.962601 6.2966 0.733337 8 0.733337C9.7034 0.733337 11.2704 0.962601 12.4324 1.34991C13.0102 1.54253 13.5211 1.7851 13.8999 2.0836C14.2719 2.37677 14.6 2.79456 14.6 3.33334C14.6 3.87212 14.2719 4.28991 13.8999 4.58307C13.5211 4.88157 13.0102 5.12415 12.4324 5.31676C11.2704 5.70407 9.7034 5.93334 8 5.93334C6.2966 5.93334 4.72956 5.70407 3.56762 5.31676C2.98979 5.12415 2.47889 4.88157 2.10013 4.58307C1.72813 4.28991 1.4 3.87212 1.4 3.33334C1.4 2.79456 1.72813 2.37677 2.10013 2.0836C2.47889 1.7851 2.98979 1.54253 3.56762 1.34991Z" fill="#212636"/>
<path fill-rule="evenodd" clip-rule="evenodd" d="M2 2.73334C2.33137 2.73334 2.6 3.00197 2.6 3.33334V12.6667C2.6 12.6754 2.60483 12.7811 2.83289 12.9646C3.0554 13.1437 3.42154 13.3365 3.9471 13.5117C4.99426 13.8607 6.45261 14.0667 8 14.0667C8.33137 14.0667 8.6 14.3353 8.6 14.6667C8.6 14.998 8.33137 15.2667 8 15.2667C6.36479 15.2667 4.77089 15.0512 3.56762 14.6501C2.96797 14.4502 2.45542 14.2011 2.08056 13.8995C1.71124 13.6023 1.4 13.1883 1.4 12.6667V3.33334C1.4 3.00197 1.66863 2.73334 2 2.73334ZM14 2.73334C14.3314 2.73334 14.6 3.00197 14.6 3.33334V7.99996C14.6 8.33133 14.3314 8.59996 14 8.59996C13.6686 8.59996 13.4 8.33133 13.4 7.99996L13.4 3.33334C13.4 3.00197 13.6686 2.73334 14 2.73334Z" fill="#212636"/>
<path fill-rule="evenodd" clip-rule="evenodd" d="M2 7.4C2.33137 7.4 2.6 7.66863 2.6 8C2.6 8.00877 2.60483 8.11441 2.83289 8.29793C3.0554 8.477 3.42154 8.66982 3.9471 8.84501C4.4679 9.01861 5.0947 9.15815 5.78977 9.25393C6.11804 9.29916 6.34749 9.60194 6.30225 9.93021C6.25702 10.2585 5.95424 10.4879 5.62597 10.4427C4.87578 10.3393 4.1741 10.1856 3.56762 9.98343C2.96797 9.78354 2.45542 9.53447 2.08056 9.23281C1.71124 8.93561 1.4 8.52167 1.4 8C1.4 7.66863 1.66863 7.4 2 7.4Z" fill="#212636"/>
<path fill-rule="evenodd" clip-rule="evenodd" d="M10.5 8.6C9.45066 8.6 8.6 9.45066 8.6 10.5C8.6 11.5493 9.45066 12.4 10.5 12.4C11.5493 12.4 12.4 11.5493 12.4 10.5C12.4 9.45066 11.5493 8.6 10.5 8.6ZM7.4 10.5C7.4 8.78792 8.78792 7.4 10.5 7.4C12.2121 7.4 13.6 8.78792 13.6 10.5C13.6 12.2121 12.2121 13.6 10.5 13.6C8.78792 13.6 7.4 12.2121 7.4 10.5Z" fill="#212636"/>
<path fill-rule="evenodd" clip-rule="evenodd" d="M12.0757 12.0757C12.3101 11.8414 12.6899 11.8414 12.9243 12.0757L14.4243 13.5757C14.6586 13.8101 14.6586 14.19 14.4243 14.4243C14.1899 14.6586 13.8101 14.6586 13.5757 14.4243L12.0757 12.9243C11.8414 12.69 11.8414 12.3101 12.0757 12.0757Z" fill="#212636"/>
</g>
</g>
</svg>
