<svg width="16" height="16" viewBox="0 0 16 16" fill="none" xmlns="http://www.w3.org/2000/svg">
<g id="technology/ic-database-code-16">
<g id="Group 1128">
<g id="Vector">
<path fill-rule="evenodd" clip-rule="evenodd" d="M2.84299 3.02609C2.60776 3.21148 2.6001 3.31983 2.6001 3.33334C2.6001 3.34684 2.60776 3.4552 2.84299 3.64058C3.07146 3.82063 3.43924 4.00902 3.94719 4.17834C4.95683 4.51489 6.38979 4.73334 8.0001 4.73334C9.61041 4.73334 11.0434 4.51489 12.053 4.17834C12.561 4.00902 12.9287 3.82063 13.1572 3.64058C13.3924 3.4552 13.4001 3.34684 13.4001 3.33334C13.4001 3.31983 13.3924 3.21148 13.1572 3.02609C12.9287 2.84604 12.561 2.65765 12.053 2.48833C11.0434 2.15179 9.61041 1.93334 8.0001 1.93334C6.38979 1.93334 4.95683 2.15179 3.94719 2.48833C3.43924 2.65765 3.07146 2.84604 2.84299 3.02609ZM3.56772 1.34991C4.72966 0.962601 6.2967 0.733337 8.0001 0.733337C9.7035 0.733337 11.2705 0.962601 12.4325 1.34991C13.0103 1.54253 13.5212 1.7851 13.9 2.0836C14.272 2.37677 14.6001 2.79456 14.6001 3.33334C14.6001 3.87212 14.272 4.28991 13.9 4.58307C13.5212 4.88157 13.0103 5.12415 12.4325 5.31676C11.2705 5.70407 9.7035 5.93334 8.0001 5.93334C6.2967 5.93334 4.72966 5.70407 3.56772 5.31676C2.98989 5.12415 2.47899 4.88157 2.10022 4.58307C1.72822 4.28991 1.4001 3.87212 1.4001 3.33334C1.4001 2.79456 1.72822 2.37677 2.10022 2.0836C2.47899 1.7851 2.98989 1.54253 3.56772 1.34991Z" fill="#212636"/>
<path fill-rule="evenodd" clip-rule="evenodd" d="M2.0001 2.73334C2.33147 2.73334 2.6001 3.00197 2.6001 3.33334V12.6667C2.6001 12.6754 2.60493 12.7811 2.83299 12.9646C3.0555 13.1437 3.42163 13.3365 3.94719 13.5117C4.00517 13.531 4.05967 13.5493 4.11143 13.5667C4.62493 13.7393 4.86984 13.8216 5.57033 13.9041C5.89942 13.9429 6.13476 14.2411 6.09597 14.5702C6.05719 14.8993 5.75896 15.1347 5.42987 15.0959C4.60596 14.9988 4.27051 14.8861 3.72568 14.703C3.67502 14.686 3.62256 14.6684 3.56772 14.6501C2.96806 14.4502 2.45551 14.2011 2.08065 13.8995C1.71134 13.6023 1.4001 13.1883 1.4001 12.6667V3.33334C1.4001 3.00197 1.66873 2.73334 2.0001 2.73334ZM14.0001 2.73334C14.3315 2.73334 14.6001 3.00197 14.6001 3.33334V7.99999C14.6001 8.33136 14.3315 8.59999 14.0001 8.59999C13.6687 8.59999 13.4001 8.33136 13.4001 7.99999V3.33334C13.4001 3.00197 13.6687 2.73334 14.0001 2.73334Z" fill="#212636"/>
<path fill-rule="evenodd" clip-rule="evenodd" d="M2.0001 7.4C2.33147 7.4 2.6001 7.66863 2.6001 8C2.6001 8.00877 2.60493 8.11441 2.83299 8.29793C3.0555 8.477 3.42163 8.66982 3.94719 8.84501C4.50023 9.02935 5.17239 9.17517 5.91826 9.27102C6.24693 9.31326 6.47913 9.61394 6.43689 9.9426C6.39465 10.2713 6.09398 10.5035 5.76531 10.4612C4.96225 10.358 4.21121 10.1979 3.56772 9.98343C2.96806 9.78354 2.45551 9.53447 2.08065 9.23281C1.71134 8.93561 1.4001 8.52167 1.4001 8C1.4001 7.66863 1.66873 7.4 2.0001 7.4Z" fill="#212636"/>
<path fill-rule="evenodd" clip-rule="evenodd" d="M12.7694 10.229C13.0037 9.99465 13.3836 9.99465 13.6179 10.229L15.4244 12.0354C15.6587 12.2697 15.6587 12.6496 15.4244 12.8839L13.6179 14.6904C13.3836 14.9247 13.0037 14.9247 12.7694 14.6904C12.5351 14.4561 12.5351 14.0762 12.7694 13.8419L14.1516 12.4597L12.7694 11.0775C12.5351 10.8432 12.5351 10.4633 12.7694 10.229Z" fill="#212636"/>
<path fill-rule="evenodd" clip-rule="evenodd" d="M9.23081 10.229C9.46513 10.4633 9.46513 10.8432 9.23081 11.0775L7.84863 12.4597L9.23081 13.8419C9.46513 14.0762 9.46513 14.4561 9.23081 14.6904C8.9965 14.9247 8.6166 14.9247 8.38229 14.6904L6.57583 12.8839C6.34152 12.6496 6.34152 12.2697 6.57583 12.0354L8.38229 10.229C8.6166 9.99465 8.9965 9.99465 9.23081 10.229Z" fill="#212636"/>
<path fill-rule="evenodd" clip-rule="evenodd" d="M12.0614 9.27566C12.3234 9.36299 12.465 9.64615 12.3777 9.90812L10.5712 15.3275C10.4839 15.5894 10.2007 15.731 9.93876 15.6437C9.67679 15.5564 9.53521 15.2732 9.62253 15.0112L11.429 9.59189C11.5163 9.32992 11.7995 9.18834 12.0614 9.27566Z" fill="#212636"/>
</g>
</g>
</g>
</svg>
