<svg width="16" height="16" viewBox="0 0 16 16" fill="none" xmlns="http://www.w3.org/2000/svg">
<g id="technology/ic-database-resource-16" clip-path="url(#clip0_450_2061)">
<g id="Vector">
<path fill-rule="evenodd" clip-rule="evenodd" d="M7.73167 0.796681C7.90059 0.712223 8.09941 0.712223 8.26833 0.796681L14.935 4.13001C15.1383 4.23165 15.2667 4.43941 15.2667 4.66667C15.2667 4.89393 15.1383 5.10169 14.935 5.20333L8.26833 8.53666C8.09941 8.62112 7.90059 8.62112 7.73167 8.53666L1.06501 5.20333C0.861735 5.10169 0.733333 4.89393 0.733333 4.66667C0.733333 4.43941 0.861735 4.23165 1.06501 4.13001L7.73167 0.796681ZM2.67497 4.66667L8 7.32918L13.325 4.66667L8 2.00416L2.67497 4.66667Z" fill="#212636"/>
<path fill-rule="evenodd" clip-rule="evenodd" d="M0.796677 11.065C0.944871 10.7686 1.30527 10.6485 1.60166 10.7967L8 13.9959L14.3983 10.7967C14.6947 10.6485 15.0551 10.7686 15.2033 11.065C15.3515 11.3614 15.2314 11.7218 14.935 11.87L8.26833 15.2033C8.09941 15.2878 7.90059 15.2878 7.73167 15.2033L1.06501 11.87C0.768618 11.7218 0.648484 11.3614 0.796677 11.065Z" fill="#212636"/>
<path fill-rule="evenodd" clip-rule="evenodd" d="M0.796677 7.73168C0.944871 7.43529 1.30527 7.31515 1.60166 7.46335L8 10.6625L14.3983 7.46335C14.6947 7.31515 15.0551 7.43529 15.2033 7.73168C15.3515 8.02806 15.2314 8.38847 14.935 8.53666L8.26833 11.87C8.09941 11.9545 7.90059 11.9545 7.73167 11.87L1.06501 8.53666C0.768618 8.38847 0.648484 8.02806 0.796677 7.73168Z" fill="#212636"/>
</g>
</g>
<defs>
<clipPath id="clip0_450_2061">
<rect width="16" height="16" fill="white"/>
</clipPath>
</defs>
</svg>
