<svg width="16" height="16" viewBox="0 0 16 16" fill="none" xmlns="http://www.w3.org/2000/svg">
<g id="basic/ic-doc-book-16">
<g id="Vector">
<path fill-rule="evenodd" clip-rule="evenodd" d="M0.733337 1.99999C0.733337 1.66862 1.00197 1.39999 1.33334 1.39999H5.33334C6.19971 1.39999 7.0306 1.74416 7.64322 2.35678C8.25584 2.9694 8.6 3.80029 8.6 4.66666V14C8.6 14.3314 8.33137 14.6 8 14.6C7.66863 14.6 7.4 14.3314 7.4 14C7.4 13.6287 7.2525 13.2726 6.98995 13.01C6.7274 12.7475 6.37131 12.6 6 12.6H1.33334C1.00197 12.6 0.733337 12.3314 0.733337 12V1.99999ZM7.4 11.8091V4.66666C7.4 4.11855 7.18227 3.59288 6.79469 3.20531C6.40712 2.81773 5.88145 2.59999 5.33334 2.59999H1.93334V11.4H6C6.50001 11.4 6.98516 11.544 7.4 11.8091Z" fill="#212636"/>
<path fill-rule="evenodd" clip-rule="evenodd" d="M8.35679 2.35678C8.96941 1.74416 9.8003 1.39999 10.6667 1.39999H14.6667C14.998 1.39999 15.2667 1.66862 15.2667 1.99999V12C15.2667 12.3314 14.998 12.6 14.6667 12.6H10C9.6287 12.6 9.27261 12.7475 9.01005 13.01C8.7475 13.2726 8.6 13.6287 8.6 14C8.6 14.3314 8.33137 14.6 8 14.6C7.66863 14.6 7.4 14.3314 7.4 14V4.66666C7.4 3.80029 7.74417 2.9694 8.35679 2.35678ZM8.6 11.8091C9.01485 11.544 9.5 11.4 10 11.4H14.0667V2.59999H10.6667C10.1186 2.59999 9.59289 2.81773 9.20532 3.20531C8.81774 3.59288 8.6 4.11855 8.6 4.66666L8.6 11.8091Z" fill="#212636"/>
</g>
</g>
</svg>
