<svg width="16" height="16" viewBox="0 0 16 16" fill="none" xmlns="http://www.w3.org/2000/svg">
<g id="technology/ic-form-16">
<g id="Vector">
<path fill-rule="evenodd" clip-rule="evenodd" d="M6 1.93334C5.96318 1.93334 5.93333 1.96319 5.93333 2V3.33334C5.93333 3.37016 5.96318 3.4 6 3.4H10C10.0368 3.4 10.0667 3.37016 10.0667 3.33334V2C10.0667 1.96319 10.0368 1.93334 10 1.93334H6ZM4.73333 2C4.73333 1.30044 5.30044 0.733337 6 0.733337H10C10.6996 0.733337 11.2667 1.30044 11.2667 2V3.33334C11.2667 4.0329 10.6996 4.6 10 4.6H6C5.30044 4.6 4.73333 4.0329 4.73333 3.33334V2Z" fill="#212636"/>
<path fill-rule="evenodd" clip-rule="evenodd" d="M2.63293 2.63293C2.9955 2.27036 3.48725 2.06667 4 2.06667H5.33333C5.6647 2.06667 5.93333 2.3353 5.93333 2.66667C5.93333 2.99804 5.6647 3.26667 5.33333 3.26667H4C3.80551 3.26667 3.61898 3.34393 3.48145 3.48146C3.34393 3.61899 3.26667 3.80551 3.26667 4V13.3333C3.26667 13.5278 3.34393 13.7144 3.48145 13.8519C3.61898 13.9894 3.80551 14.0667 4 14.0667H12C12.1945 14.0667 12.381 13.9894 12.5185 13.8519C12.6561 13.7144 12.7333 13.5278 12.7333 13.3333V13C12.7333 12.6686 13.002 12.4 13.3333 12.4C13.6647 12.4 13.9333 12.6686 13.9333 13V13.3333C13.9333 13.8461 13.7296 14.3378 13.3671 14.7004C13.0045 15.063 12.5128 15.2667 12 15.2667H4C3.48725 15.2667 2.9955 15.063 2.63293 14.7004C2.27036 14.3378 2.06667 13.8461 2.06667 13.3333V4C2.06667 3.48725 2.27036 2.9955 2.63293 2.63293Z" fill="#212636"/>
<path fill-rule="evenodd" clip-rule="evenodd" d="M10.0667 2.66667C10.0667 2.3353 10.3353 2.06667 10.6667 2.06667H12C12.339 2.06702 12.6726 2.15652 12.9662 2.32618C13.2597 2.49585 13.5034 2.73972 13.6729 3.03334C13.8386 3.32031 13.7403 3.68727 13.4533 3.85295C13.1664 4.01864 12.7994 3.92031 12.6337 3.63334C12.5694 3.52197 12.477 3.42946 12.3656 3.36511C12.2544 3.30079 12.1281 3.26685 11.9996 3.26667H10.6667C10.3353 3.26667 10.0667 2.99804 10.0667 2.66667Z" fill="#212636"/>
<path fill-rule="evenodd" clip-rule="evenodd" d="M13.27 6.5966C13.1649 6.5966 13.0609 6.61729 12.9638 6.6575C12.8668 6.69769 12.7787 6.75658 12.7044 6.83081C12.7044 6.83077 12.7043 6.83085 12.7044 6.83081L9.8684 9.6732L9.49277 11.1719L10.9933 10.7921L13.8357 7.96241C13.8359 7.96228 13.8356 7.96253 13.8357 7.96241C13.9099 7.88819 13.969 7.79975 14.0092 7.70284C14.0494 7.60577 14.0701 7.50174 14.0701 7.39667C14.0701 7.29161 14.0494 7.18757 14.0092 7.0905C13.969 6.99343 13.91 6.90523 13.8357 6.83093C13.7614 6.75664 13.6732 6.69771 13.5762 6.6575C13.4791 6.61729 13.3751 6.5966 13.27 6.5966ZM12.5046 5.54885C12.7473 5.44833 13.0073 5.3966 13.27 5.3966C13.5327 5.3966 13.7927 5.44833 14.0354 5.54885C14.2781 5.64936 14.4985 5.79668 14.6843 5.98241C14.87 6.16813 15.0173 6.38862 15.1178 6.63128C15.2183 6.87393 15.2701 7.13402 15.2701 7.39667C15.2701 7.65933 15.2183 7.91941 15.1178 8.16206C15.0173 8.40472 14.87 8.62521 14.6843 8.81094L14.6833 8.81189L11.7233 11.7586C11.647 11.8345 11.5516 11.8886 11.4473 11.915L8.81392 12.5817C8.60924 12.6335 8.39238 12.5739 8.24291 12.4248C8.09343 12.2757 8.03334 12.0589 8.08467 11.8541L8.74467 9.2208C8.77102 9.11566 8.82536 9.01962 8.90192 8.94289L11.8553 5.98289C12.041 5.79716 12.2619 5.64936 12.5046 5.54885Z" fill="#212636"/>
<path fill-rule="evenodd" clip-rule="evenodd" d="M4.73333 12C4.73333 11.6686 5.00196 11.4 5.33333 11.4H6C6.33137 11.4 6.6 11.6686 6.6 12C6.6 12.3314 6.33137 12.6 6 12.6H5.33333C5.00196 12.6 4.73333 12.3314 4.73333 12Z" fill="#212636"/>
</g>
</g>
</svg>
