<svg width="16" height="16" viewBox="0 0 16 16" fill="none" xmlns="http://www.w3.org/2000/svg">
<g id="technology/ic-graphql-16">
<path id="Vector" d="M8 0.565015C7.25074 0.565015 6.645 1.17075 6.645 1.92001C6.645 2.00906 6.65597 2.09429 6.6726 2.17606L3.51761 3.84653C3.27305 3.60027 2.93625 3.44501 2.56 3.44501C1.81074 3.44501 1.205 4.05075 1.205 4.80001C1.205 5.40874 1.61023 5.92135 2.165 6.09111V9.90885C1.61026 10.0778 1.205 10.5884 1.205 11.2C1.205 11.9456 1.8106 12.555 2.56 12.555C2.93625 12.555 3.27305 12.3998 3.51761 12.1535L6.6726 13.824C6.65597 13.9057 6.645 13.991 6.645 14.08C6.645 14.8293 7.25074 15.435 8 15.435C8.74939 15.435 9.355 14.8256 9.355 14.08C9.355 13.991 9.34403 13.9057 9.3274 13.824L12.4824 12.1535C12.7269 12.3998 13.0638 12.555 13.44 12.555C14.1894 12.555 14.795 11.9456 14.795 11.2C14.795 10.5884 14.3897 10.0778 13.835 9.90885V6.09111C14.3898 5.92135 14.795 5.40874 14.795 4.80001C14.795 4.05075 14.1893 3.44501 13.44 3.44501C13.0638 3.44501 12.7269 3.60027 12.4824 3.84653L9.32744 2.17608C9.34412 2.09418 9.355 2.00883 9.355 1.92001C9.355 1.17075 8.74926 0.565015 8 0.565015ZM3.8874 4.54397L6.95623 2.91912L2.955 9.74444V6.09118C3.50974 5.92219 3.915 5.41161 3.915 4.80001C3.915 4.71097 3.90403 4.62574 3.8874 4.54397ZM13.045 6.09118V9.74445L9.04367 2.91938L12.1126 4.54398C12.096 4.62575 12.085 4.71097 12.085 4.80001C12.085 5.41161 12.4903 5.92219 13.045 6.09118ZM8 3.27501C8.10964 3.27501 8.2133 3.25775 8.31172 3.23291L12.4435 10.2815C12.3078 10.4296 12.208 10.6088 12.1488 10.805H3.85125C3.79201 10.6088 3.69223 10.4296 3.5565 10.2815L7.68833 3.23345C7.78684 3.2581 7.8905 3.27501 8 3.27501ZM7.04239 13.1265L4.15004 11.595H11.85L8.95761 13.1265C8.71305 12.8803 8.37624 12.725 8 12.725C7.62375 12.725 7.28695 12.8803 7.04239 13.1265Z" fill="#212636" stroke="#212636" stroke-width="0.15"/>
<path id="Vector (Stroke)" fill-rule="evenodd" clip-rule="evenodd" d="M6.57 1.91999C6.57 1.12931 7.20932 0.48999 8 0.48999C8.79068 0.48999 9.43 1.12931 9.43 1.91999C9.43 1.99466 9.42281 2.06659 9.41124 2.13556L12.4693 3.75473C12.7233 3.51784 13.0627 3.36999 13.44 3.36999C14.2307 3.36999 14.87 4.00931 14.87 4.79999C14.87 5.42342 14.4677 5.9507 13.91 6.14543V9.85441C14.4676 10.0483 14.87 10.5738 14.87 11.2C14.87 11.9869 14.231 12.63 13.44 12.63C13.0627 12.63 12.7233 12.4821 12.4693 12.2453L9.4112 13.8644C9.42275 13.9333 9.43 14.0051 9.43 14.08C9.43 14.8669 8.79095 15.51 8 15.51C7.20932 15.51 6.57 14.8707 6.57 14.08C6.57 14.0051 6.57725 13.9333 6.5888 13.8644L3.53066 12.2453C3.27674 12.4821 2.93726 12.63 2.56 12.63C1.76905 12.63 1.13 11.9869 1.13 11.2C1.13 10.5738 1.53235 10.0483 2.09 9.85441V6.14543C1.53232 5.9507 1.13 5.42342 1.13 4.79999C1.13 4.00931 1.76932 3.36999 2.56 3.36999C2.93726 3.36999 3.27674 3.51784 3.53066 3.75473L6.5888 2.13554C6.57725 2.06671 6.57 1.99484 6.57 1.91999ZM6.75813 2.21562C6.73554 2.1203 6.72 2.02229 6.72 1.91999C6.72 1.21215 7.29216 0.63999 8 0.63999C8.70784 0.63999 9.28 1.21215 9.28 1.91999C9.28 2.02206 9.26458 2.12031 9.24187 2.21562L12.4975 3.93937C12.7314 3.68323 13.0651 3.51999 13.44 3.51999C14.1478 3.51999 14.72 4.09215 14.72 4.79999C14.72 5.39362 14.3116 5.89116 13.76 6.03437V9.96562C14.3115 10.1081 14.72 10.6034 14.72 11.2C14.72 11.9043 14.1478 12.48 13.44 12.48C13.0651 12.48 12.7314 12.3168 12.4975 12.0606L9.24187 13.7844C9.26446 13.8797 9.28 13.9777 9.28 14.08C9.28 14.7843 8.70784 15.36 8 15.36C7.29216 15.36 6.72 14.7878 6.72 14.08C6.72 13.9777 6.73554 13.8797 6.75813 13.7844L3.5025 12.0606C3.26857 12.3168 2.93489 12.48 2.56 12.48C1.85216 12.48 1.28 11.9043 1.28 11.2C1.28 10.6034 1.68845 10.1081 2.24 9.96562V6.03437C1.68843 5.89116 1.28 5.39362 1.28 4.79999C1.28 4.09215 1.85216 3.51999 2.56 3.51999C2.93489 3.51999 3.26857 3.68323 3.5025 3.93937L6.75813 2.21562ZM2.9075 9.97374C2.90326 9.97254 2.89911 9.97112 2.89496 9.96969C2.89003 9.968 2.88509 9.96631 2.88 9.96499V6.03437C3.43155 5.89186 3.84 5.39657 3.84 4.79999C3.84 4.69769 3.82446 4.59968 3.80188 4.50437L7.0575 2.78062C7.06356 2.78725 7.06909 2.79432 7.07463 2.80138C7.08169 2.8104 7.08875 2.81941 7.09688 2.82749L2.9075 9.97374ZM3.9712 4.58444C3.98275 4.65327 3.99 4.72514 3.99 4.79999C3.99 5.4262 3.58765 5.95166 3.03 6.14557V9.46818L6.75802 3.10891L3.9712 4.58444ZM13.0925 9.97374C13.0967 9.97254 13.1009 9.97112 13.105 9.96969C13.11 9.968 13.1149 9.96631 13.12 9.96499V6.03437C12.5685 5.89186 12.16 5.39657 12.16 4.79999C12.16 4.69769 12.1755 4.59968 12.1981 4.50437L8.94187 2.78062C8.93595 2.7871 8.93046 2.79396 8.92498 2.80082C8.91781 2.8098 8.91064 2.81877 8.9025 2.82687L13.0925 9.97374ZM9.24187 3.10914L12.97 9.46821V6.14557C12.4124 5.95166 12.01 5.4262 12.01 4.79999C12.01 4.72514 12.0172 4.65328 12.0288 4.58445L9.24187 3.10914ZM8.27501 3.31857C8.18842 3.33745 8.09673 3.34999 8 3.34999C7.90344 3.34999 7.81179 3.3377 7.7251 3.319L3.6486 10.2727C3.76171 10.4068 3.84828 10.5621 3.90586 10.73H12.0941C12.1517 10.5621 12.2383 10.4068 12.3514 10.2727L8.27501 3.31857ZM12.5369 10.2925L8.3475 3.14562C8.23631 3.17721 8.12137 3.19999 8 3.19999C7.87867 3.19999 7.76366 3.17766 7.6525 3.14624L3.46313 10.2925C3.62299 10.4516 3.73614 10.6546 3.79438 10.88H12.2056C12.2639 10.6546 12.377 10.4516 12.5369 10.2925ZM3.84813 11.52L7.0575 13.2194C7.29143 12.9632 7.62511 12.8 8 12.8C8.37489 12.8 8.70857 12.9632 8.9425 13.2194L12.1519 11.52H3.84813ZM4.45196 11.67L7.02934 13.0347C7.28327 12.7978 7.62275 12.65 8 12.65C8.37725 12.65 8.71673 12.7978 8.97066 13.0347L11.548 11.67H4.45196Z" fill="#212636"/>
</g>
</svg>
