<svg width="16" height="16" viewBox="0 0 16 16" fill="none" xmlns="http://www.w3.org/2000/svg">
<g id="basic/ic-headphones-16">
<path id="Vector (Stroke)" fill-rule="evenodd" clip-rule="evenodd" d="M7.99999 2.59999C6.56782 2.59999 5.19431 3.16892 4.18162 4.18162C3.16892 5.19431 2.59999 6.56782 2.59999 7.99999V8.73333H3.99999C4.51275 8.73333 5.0045 8.93702 5.36707 9.29959C5.72964 9.66216 5.93333 10.1539 5.93333 10.6667V12.6667C5.93333 13.1794 5.72964 13.6712 5.36707 14.0337C5.0045 14.3963 4.51275 14.6 3.99999 14.6H3.33333C2.82058 14.6 2.32882 14.3963 1.96625 14.0337C1.60368 13.6712 1.39999 13.1794 1.39999 12.6667V7.99999C1.39999 6.24957 2.09535 4.57083 3.33309 3.33309C4.57083 2.09535 6.24957 1.39999 7.99999 1.39999C9.75042 1.39999 11.4292 2.09535 12.6669 3.33309C13.9046 4.57083 14.6 6.24957 14.6 7.99999V12.6667C14.6 13.1794 14.3963 13.6712 14.0337 14.0337C13.6712 14.3963 13.1794 14.6 12.6667 14.6H12C11.4872 14.6 10.9955 14.3963 10.6329 14.0337C10.2704 13.6712 10.0667 13.1794 10.0667 12.6667V10.6667C10.0667 10.1539 10.2704 9.66216 10.6329 9.29959C10.9955 8.93702 11.4872 8.73333 12 8.73333H13.4V7.99999C13.4 6.56782 12.8311 5.19431 11.8184 4.18162C10.8057 3.16892 9.43216 2.59999 7.99999 2.59999ZM13.4 9.93333H12C11.8055 9.93333 11.619 10.0106 11.4815 10.1481C11.3439 10.2856 11.2667 10.4722 11.2667 10.6667V12.6667C11.2667 12.8612 11.3439 13.0477 11.4815 13.1852C11.619 13.3227 11.8055 13.4 12 13.4H12.6667C12.8612 13.4 13.0477 13.3227 13.1852 13.1852C13.3227 13.0477 13.4 12.8612 13.4 12.6667V9.93333ZM2.59999 9.93333V12.6667C2.59999 12.8612 2.67726 13.0477 2.81478 13.1852C2.95231 13.3227 3.13884 13.4 3.33333 13.4H3.99999C4.19449 13.4 4.38101 13.3227 4.51854 13.1852C4.65607 13.0477 4.73333 12.8612 4.73333 12.6667V10.6667C4.73333 10.4722 4.65607 10.2856 4.51854 10.1481C4.38101 10.0106 4.19449 9.93333 3.99999 9.93333H2.59999Z" fill="#212636"/>
</g>
</svg>
