<svg width="16" height="16" viewBox="0 0 16 16" fill="none" xmlns="http://www.w3.org/2000/svg">
<path fill-rule="evenodd" clip-rule="evenodd" d="M2.00016 1.33331C2.36835 1.33331 2.66683 1.63179 2.66683 1.99998V13.3333H14.0002C14.3684 13.3333 14.6668 13.6318 14.6668 14C14.6668 14.3682 14.3684 14.6666 14.0002 14.6666H2.00016C1.63197 14.6666 1.3335 14.3682 1.3335 14V1.99998C1.3335 1.63179 1.63197 1.33331 2.00016 1.33331Z" fill="#212636"/>
<path fill-rule="evenodd" clip-rule="evenodd" d="M12.0002 5.33331C12.3684 5.33331 12.6668 5.63179 12.6668 5.99998V11.3333C12.6668 11.7015 12.3684 12 12.0002 12C11.632 12 11.3335 11.7015 11.3335 11.3333V5.99998C11.3335 5.63179 11.632 5.33331 12.0002 5.33331Z" fill="#212636"/>
<path fill-rule="evenodd" clip-rule="evenodd" d="M8.66667 2.66669C9.03486 2.66669 9.33333 2.96516 9.33333 3.33335V11.3334C9.33333 11.7015 9.03486 12 8.66667 12C8.29848 12 8 11.7015 8 11.3334V3.33335C8 2.96516 8.29848 2.66669 8.66667 2.66669Z" fill="#212636"/>
<path fill-rule="evenodd" clip-rule="evenodd" d="M5.33317 8.66669C5.70136 8.66669 5.99984 8.96516 5.99984 9.33335V11.3334C5.99984 11.7015 5.70136 12 5.33317 12C4.96498 12 4.6665 11.7015 4.6665 11.3334V9.33335C4.6665 8.96516 4.96498 8.66669 5.33317 8.66669Z" fill="#212636"/>
</svg>
