<svg width="16" height="16" viewBox="0 0 16 16" fill="none" xmlns="http://www.w3.org/2000/svg">
<path fill-rule="evenodd" clip-rule="evenodd" d="M1.3999 2.00002C1.3999 1.66865 1.66853 1.40002 1.9999 1.40002H6.66657C6.99794 1.40002 7.26657 1.66865 7.26657 2.00002V6.66669C7.26657 6.99806 6.99794 7.26669 6.66657 7.26669H1.9999C1.66853 7.26669 1.3999 6.99806 1.3999 6.66669V2.00002ZM2.5999 2.60002V6.06669H6.06657V2.60002H2.5999Z" fill="#212636"/>
<path fill-rule="evenodd" clip-rule="evenodd" d="M8.73323 2.00002C8.73323 1.66865 9.00186 1.40002 9.33323 1.40002H13.9999C14.3313 1.40002 14.5999 1.66865 14.5999 2.00002V6.66669C14.5999 6.99806 14.3313 7.26669 13.9999 7.26669H9.33323C9.00186 7.26669 8.73323 6.99806 8.73323 6.66669V2.00002ZM9.93324 2.60002V6.06669H13.3999V2.60002H9.93324Z" fill="#212636"/>
<path fill-rule="evenodd" clip-rule="evenodd" d="M8.73323 9.33336C8.73323 9.00199 9.00186 8.73336 9.33323 8.73336H13.9999C14.3313 8.73336 14.5999 9.00199 14.5999 9.33336V14C14.5999 14.3314 14.3313 14.6 13.9999 14.6H9.33323C9.00186 14.6 8.73323 14.3314 8.73323 14V9.33336ZM9.93324 9.93336V13.4H13.3999V9.93336H9.93324Z" fill="#212636"/>
<path fill-rule="evenodd" clip-rule="evenodd" d="M1.3999 9.33336C1.3999 9.00199 1.66853 8.73336 1.9999 8.73336H6.66657C6.99794 8.73336 7.26657 9.00199 7.26657 9.33336V14C7.26657 14.3314 6.99794 14.6 6.66657 14.6H1.9999C1.66853 14.6 1.3999 14.3314 1.3999 14V9.33336ZM2.5999 9.93336V13.4H6.06657V9.93336H2.5999Z" fill="#212636"/>
</svg>
