<svg width="16" height="16" viewBox="0 0 16 16" fill="none" xmlns="http://www.w3.org/2000/svg">
<g clip-path="url(#clip0_785_14113)">
<path fill-rule="evenodd" clip-rule="evenodd" d="M7.67312 0.830271C7.87196 0.701026 8.12827 0.701026 8.32711 0.830271L9.16044 1.37194C9.43828 1.55253 9.51711 1.92416 9.33652 2.202C9.15592 2.47983 8.78429 2.55866 8.50646 2.37807L8.00012 2.04895L1.93345 5.99228L1.93345 10.0077L8.00012 13.9511L14.0668 10.0077L14.0668 5.99228L13.5065 5.62807C13.2286 5.44748 13.1498 5.07585 13.3304 4.79801C13.511 4.52018 13.8826 4.44134 14.1604 4.62194L14.9938 5.1636C15.1641 5.27428 15.2668 5.46359 15.2668 5.66667L15.2668 10.3333C15.2668 10.5364 15.1641 10.7257 14.9938 10.8364L8.32711 15.1697C8.12827 15.299 7.87196 15.299 7.67312 15.1697L1.00646 10.8364C0.836181 10.7257 0.73345 10.5364 0.73345 10.3333L0.73345 5.66667C0.73345 5.46359 0.836181 5.27428 1.00646 5.1636L7.67312 0.830271Z" fill="#212636"/>
<path fill-rule="evenodd" clip-rule="evenodd" d="M8.00012 9.73334C8.33149 9.73334 8.60012 10.002 8.60012 10.3333L8.60012 14.6667C8.60012 14.998 8.33149 15.2667 8.00012 15.2667C7.66875 15.2667 7.40012 14.998 7.40012 14.6667L7.40012 10.3333C7.40012 10.002 7.66875 9.73334 8.00012 9.73334Z" fill="#212636"/>
<path fill-rule="evenodd" clip-rule="evenodd" d="M0.841911 5.32259C1.03194 5.05112 1.40606 4.9851 1.67753 5.17513L8.00012 9.60094L14.3227 5.17513C14.5942 4.9851 14.9683 5.05112 15.1583 5.32259C15.3484 5.59406 15.2823 5.96818 15.0109 6.15821L8.34419 10.8249C8.1376 10.9695 7.86263 10.9695 7.65604 10.8249L0.989373 6.15821C0.717903 5.96818 0.651882 5.59406 0.841911 5.32259Z" fill="#212636"/>
<path fill-rule="evenodd" clip-rule="evenodd" d="M8.32105 5.04093C8.00428 5.01378 7.72549 5.24856 7.69833 5.56532C7.67118 5.88209 7.90596 6.16089 8.22273 6.18804C8.53949 6.21519 8.81829 5.98041 8.84544 5.66364C8.87259 5.34688 8.63781 5.06808 8.32105 5.04093ZM6.50272 5.46284C6.58647 4.48576 7.44644 3.76156 8.42353 3.84531C9.40061 3.92906 10.1248 4.78904 10.0411 5.76612C9.95731 6.74321 9.09733 7.4674 8.12025 7.38365C7.14316 7.2999 6.41897 6.43993 6.50272 5.46284Z" fill="#212636"/>
<path fill-rule="evenodd" clip-rule="evenodd" d="M12.5461 2.01512C12.7596 2.26859 12.7271 2.64711 12.4737 2.86055L9.61219 5.27022C9.35872 5.48366 8.98021 5.45122 8.76676 5.19775C8.55332 4.94428 8.58576 4.56577 8.83923 4.35232L11.7007 1.94266C11.9542 1.72921 12.3327 1.76166 12.5461 2.01512Z" fill="#212636"/>
<path fill-rule="evenodd" clip-rule="evenodd" d="M11.0648 2.47814C11.3183 2.26469 11.6968 2.29714 11.9102 2.5506L12.4457 3.18649C12.6592 3.43996 12.6267 3.81847 12.3733 4.03191C12.1198 4.24536 11.7413 4.21292 11.5278 3.95945L10.9923 3.32357C10.7789 3.0701 10.8113 2.69159 11.0648 2.47814Z" fill="#212636"/>
</g>
<defs>
<clipPath id="clip0_785_14113">
<rect width="16" height="16" fill="white"/>
</clipPath>
</defs>
</svg>
