<svg width="16" height="16" viewBox="0 0 16 16" fill="none" xmlns="http://www.w3.org/2000/svg">
<path fill-rule="evenodd" clip-rule="evenodd" d="M7.03446 0.992989C7.32807 0.823763 7.661 0.73468 7.9999 0.73468C8.33878 0.73468 8.67169 0.823752 8.96529 0.992957C8.96571 0.993204 8.96614 0.993451 8.96657 0.993698L13.6332 3.66036C13.9268 3.82988 14.1707 4.07363 14.3404 4.36715C14.5101 4.66068 14.5996 4.99366 14.5999 5.3327V10.6666C14.5996 11.0057 14.5101 11.3393 14.3404 11.6328C14.1707 11.9263 13.9268 12.1701 13.6332 12.3396L13.6309 12.3409L8.96657 15.0063C8.96609 15.0065 8.96562 15.0068 8.96514 15.0071C8.67159 15.1762 8.33873 15.2653 7.9999 15.2653C7.66106 15.2653 7.32817 15.1762 7.0346 15.0071C7.03415 15.0068 7.03369 15.0065 7.03324 15.0063L2.36889 12.3409L2.36657 12.3396C2.07296 12.1701 1.82908 11.9263 1.65942 11.6328C1.48975 11.3393 1.40025 11.0063 1.3999 10.6673L1.3999 5.33331C1.40025 4.99428 1.48975 4.66068 1.65942 4.36715C1.82908 4.07363 2.07296 3.82988 2.36657 3.66036L2.36888 3.65903L7.03324 0.993698C7.03364 0.993461 7.03405 0.993225 7.03446 0.992989ZM7.9999 1.93468C7.87118 1.93468 7.74472 1.96856 7.63324 2.03293L7.63092 2.03426L2.96657 4.69959C2.96623 4.69979 2.9659 4.69998 2.96557 4.70017C2.85464 4.76445 2.7625 4.85668 2.69834 4.96769C2.63402 5.07895 2.60008 5.20517 2.5999 5.33368V10.6663C2.60008 10.7948 2.63402 10.921 2.69834 11.0323C2.76251 11.1433 2.85466 11.2355 2.9656 11.2998C2.96592 11.3 2.96624 11.3002 2.96657 11.3004L7.63324 13.967C7.74472 14.0314 7.87118 14.0653 7.9999 14.0653C8.12863 14.0653 8.25509 14.0314 8.36657 13.967L8.36889 13.9657L13.0332 11.3004C13.0336 11.3002 13.0339 11.3 13.0342 11.2998C13.1451 11.2355 13.2373 11.1433 13.3015 11.0323C13.3658 10.9209 13.3998 10.7946 13.3999 10.666V5.33393C13.3998 5.20533 13.3658 5.07903 13.3015 4.96769C13.2373 4.85668 13.1452 4.76445 13.0342 4.70017C13.0339 4.69998 13.0336 4.69979 13.0332 4.69959L8.36657 2.03293C8.25509 1.96857 8.12863 1.93468 7.9999 1.93468Z" fill="#212636"/>
<path fill-rule="evenodd" clip-rule="evenodd" d="M1.67301 4.36798C1.83798 4.08059 2.20469 3.98136 2.49208 4.14633L8.00003 7.30819L13.508 4.14633C13.7954 3.98136 14.1621 4.08059 14.3271 4.36798C14.492 4.65536 14.3928 5.02207 14.1054 5.18705L8.29874 8.52038C8.11376 8.62657 7.8863 8.62657 7.70132 8.52038L1.89465 5.18705C1.60727 5.02207 1.50803 4.65536 1.67301 4.36798Z" fill="#212636"/>
<path fill-rule="evenodd" clip-rule="evenodd" d="M7.9999 7.40002C8.33127 7.40002 8.5999 7.66865 8.5999 8.00002V14.6667C8.5999 14.9981 8.33127 15.2667 7.9999 15.2667C7.66853 15.2667 7.3999 14.9981 7.3999 14.6667V8.00002C7.3999 7.66865 7.66853 7.40002 7.9999 7.40002Z" fill="#212636"/>
</svg>
