<svg width="16" height="16" viewBox="0 0 16 16" fill="none" xmlns="http://www.w3.org/2000/svg">
<g clip-path="url(#clip0_777_14072)">
<path fill-rule="evenodd" clip-rule="evenodd" d="M4.66673 10.4C4.9981 10.4 5.26673 10.6686 5.26673 11V14.4467C5.26673 14.778 4.9981 15.0466 4.66673 15.0466C4.33536 15.0466 4.06673 14.778 4.06673 14.4467V11C4.06673 10.6686 4.33536 10.4 4.66673 10.4Z" fill="#212636"/>
<path fill-rule="evenodd" clip-rule="evenodd" d="M4.35785 6.4856C4.54788 6.37149 4.78535 6.37144 4.97543 6.48549L8.30876 8.48549C8.48949 8.59392 8.60006 8.78923 8.60006 8.99998V12.6667C8.60006 12.8775 8.4894 13.0729 8.30857 13.1813L5.6624 14.7676C5.36182 14.9481 5.01733 15.0437 4.66673 15.0437C4.31594 15.0437 3.97176 14.9483 3.67106 14.7676L1.67137 13.5678C1.38597 13.3963 1.14938 13.1539 0.985108 12.8643C0.820832 12.5747 0.73413 12.2476 0.7334 11.9146L0.733398 11.9133V9.75332L0.7334 9.752C0.73413 9.41905 0.820832 9.09194 0.985108 8.80234C1.14938 8.51274 1.38567 8.27047 1.67107 8.099L4.35785 6.4856ZM4.66686 7.69978L2.28906 9.12763C2.18086 9.19267 2.09116 9.28461 2.02887 9.39441C1.96665 9.5041 1.93377 9.62798 1.9334 9.75408V11.9126C1.93377 12.0387 1.96665 12.1625 2.02887 12.2722C2.09113 12.382 2.18064 12.4738 2.28876 12.5388M2.28876 12.5388L4.28876 13.7388C4.40282 13.8073 4.53367 13.8437 4.66673 13.8437C4.79979 13.8437 4.93034 13.8075 5.0444 13.739L7.40006 12.3268V9.3397L4.66686 7.69978" fill="#212636"/>
<path fill-rule="evenodd" clip-rule="evenodd" d="M0.992523 8.79081C1.16328 8.50682 1.53192 8.41502 1.81591 8.58578L4.97591 10.4858C5.2599 10.6565 5.35169 11.0252 5.18094 11.3092C5.01019 11.5931 4.64155 11.6849 4.35756 11.5142L1.19756 9.61419C0.913566 9.44344 0.82177 9.0748 0.992523 8.79081Z" fill="#212636"/>
<path fill-rule="evenodd" clip-rule="evenodd" d="M8.51456 8.69129C8.68505 8.97543 8.59291 9.34399 8.30876 9.51448L4.97543 11.5145C4.69128 11.685 4.32272 11.5928 4.15224 11.3087C3.98175 11.0245 4.07389 10.656 4.35803 10.4855L7.69137 8.48549C7.97552 8.315 8.34407 8.40714 8.51456 8.69129Z" fill="#212636"/>
<path fill-rule="evenodd" clip-rule="evenodd" d="M11.0247 6.48549C11.2148 6.37144 11.4522 6.37149 11.6423 6.4856L14.3289 8.09893C14.6144 8.2704 14.8507 8.51274 15.015 8.80234C15.1793 9.09194 15.266 9.41905 15.2667 9.752L15.2667 9.75332L15.2667 11.9146C15.266 12.2476 15.1793 12.5747 15.015 12.8643C14.8507 13.1539 14.6145 13.3962 14.3291 13.5676L12.3291 14.7676C12.0284 14.9483 11.6842 15.0437 11.3334 15.0437C10.9828 15.0437 10.6388 14.9484 10.3382 14.7679L7.69156 13.1813C7.51073 13.0729 7.40007 12.8775 7.40007 12.6667V8.99998C7.40007 8.78923 7.51064 8.59392 7.69137 8.48549L11.0247 6.48549ZM8.60007 9.3397V12.3268L10.9552 13.7387C11.0693 13.8072 11.2003 13.8437 11.3334 13.8437C11.4665 13.8437 11.597 13.8075 11.7111 13.739L14.0667 12.1833M8.60007 9.3397L11.3333 7.69978L13.7111 9.12763C13.8193 9.19267 13.909 9.2846 13.9713 9.39441C14.0335 9.5041 14.0664 9.62798 14.0667 9.75408V12.1833" fill="#212636"/>
<path fill-rule="evenodd" clip-rule="evenodd" d="M7.48557 8.69129C7.65606 8.40714 8.02461 8.315 8.30876 8.48549L11.6421 10.4855C11.9262 10.656 12.0184 11.0245 11.8479 11.3087C11.6774 11.5928 11.3088 11.685 11.0247 11.5145L7.69137 9.51448C7.40722 9.34399 7.31508 8.97543 7.48557 8.69129Z" fill="#212636"/>
<path fill-rule="evenodd" clip-rule="evenodd" d="M15.0076 8.79081C15.1784 9.0748 15.0866 9.44344 14.8026 9.61419L11.6426 11.5142C11.3586 11.6849 10.9899 11.5931 10.8192 11.3092C10.6484 11.0252 10.7402 10.6565 11.0242 10.4858L14.1842 8.58578C14.4682 8.41502 14.8369 8.50682 15.0076 8.79081Z" fill="#212636"/>
<path fill-rule="evenodd" clip-rule="evenodd" d="M11.3334 10.4C11.6648 10.4 11.9334 10.6686 11.9334 11V14.4467C11.9334 14.778 11.6648 15.0466 11.3334 15.0466C11.002 15.0466 10.7334 14.778 10.7334 14.4467V11C10.7334 10.6686 11.002 10.4 11.3334 10.4Z" fill="#212636"/>
<path fill-rule="evenodd" clip-rule="evenodd" d="M7.0047 1.23216C7.30532 1.05162 7.64939 0.956238 8.00006 0.956238C8.35074 0.956238 8.69481 1.05162 8.99543 1.23216L10.9954 2.43216C11.2808 2.60362 11.5174 2.84607 11.6817 3.13567C11.846 3.42527 11.9327 3.75239 11.9334 4.08534L11.9334 4.08665L11.9334 6.99998C11.9334 7.21074 11.8228 7.40605 11.6421 7.51448L8.30876 9.51448C8.11875 9.62849 7.88138 9.62849 7.69137 9.51448L4.35803 7.51448C4.17731 7.40605 4.06673 7.21074 4.06673 6.99998V4.08665L4.06673 4.08534C4.06746 3.75239 4.15416 3.42527 4.31844 3.13567C4.48272 2.84607 4.719 2.6038 5.0044 2.43234L7.0047 1.23216ZM8.00006 2.15624C7.86701 2.15624 7.73645 2.19244 7.6224 2.26096L5.6224 3.46097C5.51414 3.52601 5.42452 3.6179 5.36221 3.72775C5.29999 3.83744 5.2671 3.96131 5.26673 4.08741V6.66027L8.00006 8.30027L10.7334 6.66027V4.08741C10.733 3.96131 10.7001 3.83744 10.6379 3.72775C10.5756 3.61791 10.486 3.52602 10.3778 3.46098L8.37803 2.26115C8.26398 2.19262 8.13312 2.15624 8.00006 2.15624Z" fill="#212636"/>
<path fill-rule="evenodd" clip-rule="evenodd" d="M4.32586 3.12414C4.49661 2.84015 4.86525 2.74836 5.14924 2.91911L8.30924 4.81911C8.59323 4.98986 8.68503 5.3585 8.51427 5.64249C8.34352 5.92648 7.97488 6.01828 7.69089 5.84753L4.53089 3.94753C4.2469 3.77677 4.1551 3.40813 4.32586 3.12414Z" fill="#212636"/>
<path fill-rule="evenodd" clip-rule="evenodd" d="M11.6743 3.12414C11.845 3.40813 11.7532 3.77677 11.4692 3.94753L8.30924 5.84753C8.02525 6.01828 7.65661 5.92648 7.48586 5.64249C7.3151 5.3585 7.4069 4.98986 7.69089 4.81911L10.8509 2.91911C11.1349 2.74836 11.5035 2.84015 11.6743 3.12414Z" fill="#212636"/>
<path fill-rule="evenodd" clip-rule="evenodd" d="M8.00007 4.73332C8.33144 4.73332 8.60007 5.00195 8.60007 5.33332L8.60006 8.99998C8.60006 9.33136 8.33144 9.59999 8.00007 9.59999C7.66869 9.59999 7.40007 9.33136 7.40007 8.99998V5.33332C7.40007 5.00195 7.66869 4.73332 8.00007 4.73332Z" fill="#212636"/>
</g>
<defs>
<clipPath id="clip0_777_14072">
<rect width="16" height="16" fill="white"/>
</clipPath>
</defs>
</svg>
