<svg width="16" height="16" viewBox="0 0 16 16" fill="none" xmlns="http://www.w3.org/2000/svg">
<g clip-path="url(#clip0_1022_6911)">
<path d="M15.2646 8.00003C15.2646 9.92672 14.4992 11.7745 13.1368 13.1369C11.7744 14.4993 9.92666 15.2646 7.99997 15.2646C7.04596 15.2646 6.1013 15.0767 5.21992 14.7117C4.33854 14.3466 3.53769 13.8115 2.86311 13.1369C1.50073 11.7745 0.735352 9.92672 0.735352 8.00003C0.735352 6.07333 1.50073 4.22555 2.86311 2.86317C4.22549 1.50079 6.07327 0.735413 7.99997 0.735413C8.95397 0.735413 9.89863 0.923317 10.78 1.2884C11.6614 1.65348 12.4622 2.18859 13.1368 2.86317C13.8114 3.53775 14.3465 4.3386 14.7116 5.21998C15.0767 6.10136 15.2646 7.04603 15.2646 8.00003ZM1.94212 8.16926C1.97699 9.52639 2.42397 10.7391 3.28304 11.8074C3.29945 11.8279 3.3171 11.829 3.33597 11.8105L11.7963 3.34957C11.8023 3.34354 11.807 3.33631 11.81 3.32837C11.813 3.32042 11.8143 3.31193 11.8137 3.30348C11.8132 3.29503 11.8109 3.28681 11.8069 3.27937C11.803 3.27193 11.7974 3.26544 11.7907 3.26034C7.68858 0.088028 1.80858 3.00372 1.94212 8.16926ZM11.3107 13.0806C14.3335 11.1391 14.9557 6.95818 12.7144 4.18403C12.712 4.18095 12.7089 4.17843 12.7053 4.17663C12.7018 4.17482 12.698 4.17376 12.6941 4.17353C12.6901 4.1733 12.6862 4.1739 12.6825 4.17528C12.6788 4.17666 12.6754 4.1788 12.6726 4.18157L4.18151 12.6726C4.17857 12.6756 4.17629 12.6792 4.17481 12.6831C4.17333 12.687 4.17268 12.6911 4.17291 12.6953C4.17315 12.6994 4.17425 12.7034 4.17616 12.707C4.17806 12.7107 4.18072 12.7138 4.18397 12.7163C6.24551 14.3606 9.06889 14.5213 11.3107 13.0806Z" fill="#212636"/>
</g>
<defs>
<clipPath id="clip0_1022_6911">
<rect width="16" height="16" fill="white"/>
</clipPath>
</defs>
</svg>
