<svg width="16" height="16" viewBox="0 0 16 16" fill="none" xmlns="http://www.w3.org/2000/svg">
<g clip-path="url(#clip0_1127_7083)">
<path fill-rule="evenodd" clip-rule="evenodd" d="M3.33324 7.93334C2.92823 7.93334 2.5999 8.26166 2.5999 8.66667V12.6667C2.5999 13.0717 2.92823 13.4 3.33324 13.4H12.6666C13.0716 13.4 13.3999 13.0717 13.3999 12.6667V8.66667C13.3999 8.26166 13.0716 7.93334 12.6666 7.93334H3.33324ZM1.3999 8.66667C1.3999 7.59892 2.26549 6.73334 3.33324 6.73334H12.6666C13.7343 6.73334 14.5999 7.59892 14.5999 8.66667V12.6667C14.5999 13.7344 13.7343 14.6 12.6666 14.6H3.33324C2.26549 14.6 1.3999 13.7344 1.3999 12.6667V8.66667Z" fill="#212636"/>
<path fill-rule="evenodd" clip-rule="evenodd" d="M8.00023 2.60002C7.59522 2.60002 7.26689 2.92835 7.26689 3.33336C7.26689 3.73837 7.59522 4.06669 8.00023 4.06669C8.40524 4.06669 8.73356 3.73837 8.73356 3.33336C8.73356 2.92835 8.40524 2.60002 8.00023 2.60002ZM6.06689 3.33336C6.06689 2.26561 6.93248 1.40002 8.00023 1.40002C9.06798 1.40002 9.93356 2.26561 9.93356 3.33336C9.93356 4.40111 9.06798 5.26669 8.00023 5.26669C6.93248 5.26669 6.06689 4.40111 6.06689 3.33336Z" fill="#212636"/>
<path fill-rule="evenodd" clip-rule="evenodd" d="M7.9999 4.06665C8.33127 4.06665 8.5999 4.33528 8.5999 4.66665V7.33332C8.5999 7.66469 8.33127 7.93332 7.9999 7.93332C7.66853 7.93332 7.3999 7.66469 7.3999 7.33332V4.66665C7.3999 4.33528 7.66853 4.06665 7.9999 4.06665Z" fill="#212636"/>
<circle cx="5.75" cy="9.75" r="0.75" fill="#212636"/>
<circle cx="10.25" cy="9.75" r="0.75" fill="#212636"/>
<rect x="6" y="11.5" width="4" height="1" rx="0.5" fill="#212636"/>
</g>
<defs>
<clipPath id="clip0_1127_7083">
<rect width="16" height="16" fill="white"/>
</clipPath>
</defs>
</svg>
