<svg width="16" height="16" viewBox="0 0 16 16" fill="none" xmlns="http://www.w3.org/2000/svg">
<g clip-path="url(#clip0_1127_7117)">
<path fill-rule="evenodd" clip-rule="evenodd" d="M2.66673 1.93334C2.26477 1.93334 1.9334 2.26471 1.9334 2.66667V10.6667C1.9334 10.998 1.66477 11.2667 1.3334 11.2667C1.00203 11.2667 0.733398 10.998 0.733398 10.6667V2.66667C0.733398 1.60197 1.60203 0.733337 2.66673 0.733337H10.0001C10.3314 0.733337 10.6001 1.00197 10.6001 1.33334C10.6001 1.66471 10.3314 1.93334 10.0001 1.93334H2.66673Z" fill="#212636"/>
<path fill-rule="evenodd" clip-rule="evenodd" d="M0.733398 10.6667C0.733398 9.60197 1.60203 8.73334 2.66673 8.73334H3.3334C3.66477 8.73334 3.9334 9.00197 3.9334 9.33334C3.9334 9.66471 3.66477 9.93334 3.3334 9.93334H2.66673C2.26477 9.93334 1.9334 10.2647 1.9334 10.6667C1.9334 11.0686 2.26477 11.4 2.66673 11.4H3.3334C3.66477 11.4 3.9334 11.6686 3.9334 12C3.9334 12.3314 3.66477 12.6 3.3334 12.6H2.66673C1.60203 12.6 0.733398 11.7314 0.733398 10.6667Z" fill="#212636"/>
<path fill-rule="evenodd" clip-rule="evenodd" d="M5.3999 13.3334C5.3999 12.2687 6.26853 11.4 7.33324 11.4H14.6666C14.9979 11.4 15.2666 11.6687 15.2666 12C15.2666 12.3314 14.9979 12.6 14.6666 12.6H7.33324C6.93127 12.6 6.5999 12.9314 6.5999 13.3334C6.5999 13.6647 6.33127 13.9334 5.9999 13.9334C5.66853 13.9334 5.3999 13.6647 5.3999 13.3334Z" fill="#212636"/>
<path fill-rule="evenodd" clip-rule="evenodd" d="M7.33324 4.60002C6.93127 4.60002 6.5999 4.9314 6.5999 5.33336V13.3334C6.5999 13.7353 6.93127 14.0667 7.33324 14.0667H14.0666V4.60002H7.33324ZM5.3999 5.33336C5.3999 4.26865 6.26853 3.40002 7.33324 3.40002H14.6666C14.9979 3.40002 15.2666 3.66865 15.2666 4.00002V14.6667C15.2666 14.9981 14.9979 15.2667 14.6666 15.2667H7.33324C6.26853 15.2667 5.3999 14.3981 5.3999 13.3334V5.33336Z" fill="#212636"/>
</g>
<defs>
<clipPath id="clip0_1127_7117">
<rect width="16" height="16" fill="white"/>
</clipPath>
</defs>
</svg>
