<svg width="16" height="16" viewBox="0 0 16 16" fill="none" xmlns="http://www.w3.org/2000/svg">
<path fill-rule="evenodd" clip-rule="evenodd" d="M15.0908 2.24239C15.3251 2.4767 15.3251 2.8566 15.0908 3.09091L8.42417 9.75758C8.18985 9.9919 7.80995 9.9919 7.57564 9.75758L5.57564 7.75758C5.34132 7.52327 5.34132 7.14337 5.57564 6.90905C5.80995 6.67474 6.18985 6.67474 6.42417 6.90905L7.9999 8.48479L14.2423 2.24239C14.4766 2.00807 14.8565 2.00807 15.0908 2.24239Z" fill="#212636"/>
<path fill-rule="evenodd" clip-rule="evenodd" d="M3.33324 2.60002C3.13874 2.60002 2.95222 2.67729 2.81469 2.81481C2.67716 2.95234 2.5999 3.13887 2.5999 3.33336V12.6667C2.5999 12.8612 2.67716 13.0477 2.81469 13.1852C2.95222 13.3228 3.13874 13.4 3.33324 13.4H12.6666C12.8611 13.4 13.0476 13.3228 13.1851 13.1852C13.3226 13.0477 13.3999 12.8612 13.3999 12.6667V8.00002C13.3999 7.66865 13.6685 7.40002 13.9999 7.40002C14.3313 7.40002 14.5999 7.66865 14.5999 8.00002V12.6667C14.5999 13.1794 14.3962 13.6712 14.0336 14.0338C13.6711 14.3963 13.1793 14.6 12.6666 14.6H3.33324C2.82048 14.6 2.32873 14.3963 1.96616 14.0338C1.60359 13.6712 1.3999 13.1794 1.3999 12.6667V3.33336C1.3999 2.82061 1.60359 2.32885 1.96616 1.96628C2.32873 1.60371 2.82048 1.40002 3.33324 1.40002H10.6666C10.9979 1.40002 11.2666 1.66865 11.2666 2.00002C11.2666 2.3314 10.9979 2.60002 10.6666 2.60002H3.33324Z" fill="#212636"/>
</svg>
