<svg width="16" height="16" viewBox="0 0 16 16" fill="none" xmlns="http://www.w3.org/2000/svg">
<path fill-rule="evenodd" clip-rule="evenodd" d="M5.57673 1.40942C6.37445 1.34629 7.17607 1.46576 7.92072 1.75878C8.66537 2.05179 9.33345 2.51063 9.87424 3.10046C10.3125 3.57843 10.6578 4.13223 10.894 4.73335H11.6746C12.4377 4.74364 13.1777 4.99622 13.788 5.45454C14.3982 5.91285 14.847 6.55323 15.0696 7.28323C15.2921 8.01322 15.2769 8.79506 15.0262 9.51586C14.7754 10.2367 14.3021 10.8591 13.6746 11.2934C13.4021 11.482 13.0283 11.4139 12.8398 11.1414C12.6512 10.8689 12.7192 10.4952 12.9917 10.3066C13.4101 10.0171 13.7256 9.60214 13.8928 9.1216C14.06 8.64107 14.0701 8.11984 13.9217 7.63318C13.7733 7.14651 13.4741 6.71959 13.0673 6.41405C12.6615 6.10927 12.1696 5.941 11.6622 5.93335H10.4665C10.2008 5.93335 9.96673 5.75861 9.89122 5.50388C9.7156 4.91147 9.40731 4.36686 8.98974 3.91142C8.57217 3.45598 8.0563 3.10169 7.48132 2.87544C6.90634 2.64919 6.28737 2.55693 5.6714 2.60568C5.05544 2.65443 4.45868 2.84291 3.92645 3.15679C3.39422 3.47066 2.94051 3.9017 2.59978 4.41715C2.25905 4.93261 2.04026 5.51893 1.96002 6.13159C1.87978 6.74425 1.94021 7.36714 2.13671 7.95295C2.33321 8.53876 2.66062 9.0721 3.09407 9.51245C3.32653 9.74861 3.32353 10.1285 3.08738 10.361C2.85122 10.5934 2.47133 10.5904 2.23887 10.3543C1.67752 9.78396 1.2535 9.09325 0.99901 8.33457C0.744524 7.5759 0.666267 6.76921 0.770181 5.97576C0.874095 5.18232 1.15745 4.42298 1.59872 3.75543C2.03999 3.08787 2.62758 2.52965 3.31687 2.12315C4.00615 1.71665 4.779 1.47256 5.57673 1.40942Z" fill="#212636"/>
<path fill-rule="evenodd" clip-rule="evenodd" d="M7.99981 9.93335C7.22661 9.93335 6.59981 10.5602 6.59981 11.3334C6.59981 12.1066 7.22661 12.7334 7.99981 12.7334C8.77301 12.7334 9.39981 12.1066 9.39981 11.3334C9.39981 10.5602 8.77301 9.93335 7.99981 9.93335ZM5.39981 11.3334C5.39981 9.89741 6.56387 8.73335 7.99981 8.73335C9.43575 8.73335 10.5998 9.89741 10.5998 11.3334C10.5998 12.7693 9.43575 13.9334 7.99981 13.9334C6.56387 13.9334 5.39981 12.7693 5.39981 11.3334Z" fill="#212636"/>
<path fill-rule="evenodd" clip-rule="evenodd" d="M7.99981 8.06668C8.33118 8.06668 8.59981 8.33531 8.59981 8.66668V9.33335C8.59981 9.66472 8.33118 9.93335 7.99981 9.93335C7.66844 9.93335 7.39981 9.66472 7.39981 9.33335V8.66668C7.39981 8.33531 7.66844 8.06668 7.99981 8.06668Z" fill="#212636"/>
<path fill-rule="evenodd" clip-rule="evenodd" d="M7.99981 12.7334C8.33118 12.7334 8.59981 13.002 8.59981 13.3334V14C8.59981 14.3314 8.33118 14.6 7.99981 14.6C7.66844 14.6 7.39981 14.3314 7.39981 14V13.3334C7.39981 13.002 7.66844 12.7334 7.99981 12.7334Z" fill="#212636"/>
<path fill-rule="evenodd" clip-rule="evenodd" d="M9.39981 11.3334C9.39981 11.002 9.66844 10.7334 9.99981 10.7334H10.6665C10.9978 10.7334 11.2665 11.002 11.2665 11.3334C11.2665 11.6647 10.9978 11.9334 10.6665 11.9334H9.99981C9.66844 11.9334 9.39981 11.6647 9.39981 11.3334Z" fill="#212636"/>
<path fill-rule="evenodd" clip-rule="evenodd" d="M4.73314 11.3334C4.73314 11.002 5.00177 10.7334 5.33314 10.7334H5.99981C6.33118 10.7334 6.59981 11.002 6.59981 11.3334C6.59981 11.6647 6.33118 11.9334 5.99981 11.9334H5.33314C5.00177 11.9334 4.73314 11.6647 4.73314 11.3334Z" fill="#212636"/>
<path fill-rule="evenodd" clip-rule="evenodd" d="M10.4241 8.90909C10.6584 9.1434 10.6584 9.5233 10.4241 9.75762L9.8374 10.3443C9.60309 10.5786 9.22319 10.5786 8.98888 10.3443C8.75456 10.11 8.75456 9.73007 8.98888 9.49575L9.57554 8.90909C9.80986 8.67477 10.1898 8.67477 10.4241 8.90909Z" fill="#212636"/>
<path fill-rule="evenodd" clip-rule="evenodd" d="M7.01074 12.3224C7.24505 12.5567 7.24505 12.9366 7.01074 13.1709L6.42407 13.7576C6.18976 13.9919 5.80986 13.9919 5.57554 13.7576C5.34123 13.5233 5.34123 13.1434 5.57554 12.9091L6.16221 12.3224C6.39652 12.0881 6.77642 12.0881 7.01074 12.3224Z" fill="#212636"/>
<path fill-rule="evenodd" clip-rule="evenodd" d="M8.98888 12.3224C9.22319 12.0881 9.60309 12.0881 9.8374 12.3224L10.4241 12.9091C10.6584 13.1434 10.6584 13.5233 10.4241 13.7576C10.1898 13.9919 9.80986 13.9919 9.57554 13.7576L8.98888 13.1709C8.75456 12.9366 8.75456 12.5567 8.98888 12.3224Z" fill="#212636"/>
<path fill-rule="evenodd" clip-rule="evenodd" d="M5.57554 8.90909C5.80986 8.67477 6.18976 8.67477 6.42407 8.90909L7.01074 9.49575C7.24505 9.73007 7.24505 10.11 7.01074 10.3443C6.77642 10.5786 6.39652 10.5786 6.16221 10.3443L5.57554 9.75762C5.34123 9.5233 5.34123 9.1434 5.57554 8.90909Z" fill="#212636"/>
</svg>
