<svg width="16" height="16" viewBox="0 0 16 16" fill="none" xmlns="http://www.w3.org/2000/svg">
<path fill-rule="evenodd" clip-rule="evenodd" d="M3.33324 3.26661C2.92823 3.26661 2.5999 3.59493 2.5999 3.99994V13.3333C2.5999 13.7383 2.92823 14.0666 3.33324 14.0666H12.6666C13.0716 14.0666 13.3999 13.7383 13.3999 13.3333V3.99994C13.3999 3.59493 13.0716 3.26661 12.6666 3.26661H3.33324ZM1.3999 3.99994C1.3999 2.93219 2.26549 2.06661 3.33324 2.06661H12.6666C13.7343 2.06661 14.5999 2.93219 14.5999 3.99994V13.3333C14.5999 14.401 13.7343 15.2666 12.6666 15.2666H3.33324C2.26549 15.2666 1.3999 14.401 1.3999 13.3333V3.99994Z" fill="#212636"/>
<path fill-rule="evenodd" clip-rule="evenodd" d="M10.6666 0.733276C10.9979 0.733276 11.2666 1.00191 11.2666 1.33328V3.99994C11.2666 4.33131 10.9979 4.59994 10.6666 4.59994C10.3352 4.59994 10.0666 4.33131 10.0666 3.99994V1.33328C10.0666 1.00191 10.3352 0.733276 10.6666 0.733276Z" fill="#212636"/>
<path fill-rule="evenodd" clip-rule="evenodd" d="M5.33324 0.733276C5.66461 0.733276 5.93324 1.00191 5.93324 1.33328V3.99994C5.93324 4.33131 5.66461 4.59994 5.33324 4.59994C5.00187 4.59994 4.73324 4.33131 4.73324 3.99994V1.33328C4.73324 1.00191 5.00187 0.733276 5.33324 0.733276Z" fill="#212636"/>
<path fill-rule="evenodd" clip-rule="evenodd" d="M1.3999 6.66661C1.3999 6.33524 1.66853 6.06661 1.9999 6.06661H13.9999C14.3313 6.06661 14.5999 6.33524 14.5999 6.66661C14.5999 6.99798 14.3313 7.26661 13.9999 7.26661H1.9999C1.66853 7.26661 1.3999 6.99798 1.3999 6.66661Z" fill="#212636"/>
<path fill-rule="evenodd" clip-rule="evenodd" d="M4.73324 9.33328C4.73324 9.0019 5.00187 8.73328 5.33324 8.73328H5.3399C5.67127 8.73328 5.9399 9.0019 5.9399 9.33328C5.9399 9.66465 5.67127 9.93328 5.3399 9.93328H5.33324C5.00187 9.93328 4.73324 9.66465 4.73324 9.33328Z" fill="#212636"/>
<path fill-rule="evenodd" clip-rule="evenodd" d="M7.3999 9.33328C7.3999 9.0019 7.66853 8.73328 7.9999 8.73328H8.00657C8.33794 8.73328 8.60657 9.0019 8.60657 9.33328C8.60657 9.66465 8.33794 9.93328 8.00657 9.93328H7.9999C7.66853 9.93328 7.3999 9.66465 7.3999 9.33328Z" fill="#212636"/>
<path fill-rule="evenodd" clip-rule="evenodd" d="M10.0666 9.33328C10.0666 9.0019 10.3352 8.73328 10.6666 8.73328H10.6732C11.0046 8.73328 11.2732 9.0019 11.2732 9.33328C11.2732 9.66465 11.0046 9.93328 10.6732 9.93328H10.6666C10.3352 9.93328 10.0666 9.66465 10.0666 9.33328Z" fill="#212636"/>
<path fill-rule="evenodd" clip-rule="evenodd" d="M4.73324 11.9999C4.73324 11.6686 5.00187 11.3999 5.33324 11.3999H5.3399C5.67127 11.3999 5.9399 11.6686 5.9399 11.9999C5.9399 12.3313 5.67127 12.5999 5.3399 12.5999H5.33324C5.00187 12.5999 4.73324 12.3313 4.73324 11.9999Z" fill="#212636"/>
<path fill-rule="evenodd" clip-rule="evenodd" d="M7.3999 11.9999C7.3999 11.6686 7.66853 11.3999 7.9999 11.3999H8.00657C8.33794 11.3999 8.60657 11.6686 8.60657 11.9999C8.60657 12.3313 8.33794 12.5999 8.00657 12.5999H7.9999C7.66853 12.5999 7.3999 12.3313 7.3999 11.9999Z" fill="#212636"/>
<path fill-rule="evenodd" clip-rule="evenodd" d="M10.0666 11.9999C10.0666 11.6686 10.3352 11.3999 10.6666 11.3999H10.6732C11.0046 11.3999 11.2732 11.6686 11.2732 11.9999C11.2732 12.3313 11.0046 12.5999 10.6732 12.5999H10.6666C10.3352 12.5999 10.0666 12.3313 10.0666 11.9999Z" fill="#212636"/>
</svg>
