<svg width="16" height="16" viewBox="0 0 16 16" fill="none" xmlns="http://www.w3.org/2000/svg">
<path fill-rule="evenodd" clip-rule="evenodd" d="M11.5758 4.90909C11.8101 4.67478 12.19 4.67478 12.4243 4.90909L15.091 7.57576C15.2035 7.68828 15.2667 7.84089 15.2667 8.00002C15.2667 8.15915 15.2035 8.31176 15.091 8.42429L12.4243 11.091C12.19 11.3253 11.8101 11.3253 11.5758 11.091C11.3415 10.8566 11.3415 10.4767 11.5758 10.2424L13.8182 8.00002L11.5758 5.75762C11.3415 5.5233 11.3415 5.14341 11.5758 4.90909Z" fill="#212636"/>
<path fill-rule="evenodd" clip-rule="evenodd" d="M4.42433 4.90909C4.65864 5.14341 4.65864 5.5233 4.42433 5.75762L2.18193 8.00002L4.42433 10.2424C4.65864 10.4767 4.65864 10.8566 4.42433 11.091C4.19001 11.3253 3.81012 11.3253 3.5758 11.091L0.909134 8.42429C0.67482 8.18997 0.67482 7.81007 0.909134 7.57576L3.5758 4.90909C3.81012 4.67478 4.19001 4.67478 4.42433 4.90909Z" fill="#212636"/>
<path fill-rule="evenodd" clip-rule="evenodd" d="M9.8457 2.094C10.162 2.19284 10.3383 2.52937 10.2394 2.84565L6.90609 13.5123C6.80725 13.8286 6.47072 14.0049 6.15443 13.906C5.83815 13.8072 5.66187 13.4707 5.76071 13.1544L9.09404 2.48772C9.19288 2.17144 9.52941 1.99516 9.8457 2.094Z" fill="#212636"/>
</svg>
