<svg width="16" height="16" viewBox="0 0 16 16" fill="none" xmlns="http://www.w3.org/2000/svg">
<g clip-path="url(#clip0_785_14323)">
<path fill-rule="evenodd" clip-rule="evenodd" d="M7.73187 0.796681C7.90078 0.712223 8.09961 0.712223 8.26853 0.796681L14.9352 4.13001C15.1385 4.23165 15.2669 4.43941 15.2669 4.66667C15.2669 4.89393 15.1385 5.10169 14.9352 5.20333L8.26853 8.53666C8.09961 8.62112 7.90078 8.62112 7.73187 8.53666L1.0652 5.20333C0.861931 5.10169 0.73353 4.89393 0.73353 4.66667C0.73353 4.43941 0.861931 4.23165 1.0652 4.13001L7.73187 0.796681ZM2.67517 4.66667L8.0002 7.32918L13.3252 4.66667L8.0002 2.00416L2.67517 4.66667Z" fill="#212636"/>
<path fill-rule="evenodd" clip-rule="evenodd" d="M0.796874 11.065C0.945067 10.7686 1.30547 10.6485 1.60186 10.7967L8.0002 13.9959L14.3985 10.7967C14.6949 10.6485 15.0553 10.7686 15.2035 11.065C15.3517 11.3614 15.2316 11.7218 14.9352 11.87L8.26853 15.2033C8.09961 15.2878 7.90078 15.2878 7.73187 15.2033L1.0652 11.87C0.768815 11.7218 0.64868 11.3614 0.796874 11.065Z" fill="#212636"/>
<path fill-rule="evenodd" clip-rule="evenodd" d="M0.796874 7.73168C0.945067 7.43529 1.30547 7.31515 1.60186 7.46335L8.0002 10.6625L14.3985 7.46335C14.6949 7.31515 15.0553 7.43529 15.2035 7.73168C15.3517 8.02806 15.2316 8.38847 14.9352 8.53666L8.26853 11.87C8.09961 11.9545 7.90078 11.9545 7.73187 11.87L1.0652 8.53666C0.768815 8.38847 0.64868 8.02806 0.796874 7.73168Z" fill="#212636"/>
</g>
<defs>
<clipPath id="clip0_785_14323">
<rect width="16" height="16" fill="white"/>
</clipPath>
</defs>
</svg>
