<svg width="16" height="16" viewBox="0 0 16 16" fill="none" xmlns="http://www.w3.org/2000/svg">
<path fill-rule="evenodd" clip-rule="evenodd" d="M0.733398 2.00002C0.733398 1.66865 1.00203 1.40002 1.3334 1.40002H5.3334C6.19977 1.40002 7.03066 1.74419 7.64328 2.35681C8.2559 2.96943 8.60006 3.80032 8.60006 4.66669V14C8.60006 14.3314 8.33144 14.6 8.00006 14.6C7.66869 14.6 7.40006 14.3314 7.40006 14C7.40006 13.6287 7.25256 13.2726 6.99001 13.0101C6.72746 12.7475 6.37137 12.6 6.00006 12.6H1.3334C1.00203 12.6 0.733398 12.3314 0.733398 12V2.00002ZM7.40006 11.8091V4.66669C7.40006 4.11858 7.18233 3.59291 6.79475 3.20534C6.40718 2.81776 5.88151 2.60002 5.3334 2.60002H1.9334V11.4H6.00006C6.50007 11.4 6.98522 11.544 7.40006 11.8091Z" fill="#212636"/>
<path fill-rule="evenodd" clip-rule="evenodd" d="M8.35685 2.35681C8.96947 1.74419 9.80036 1.40002 10.6667 1.40002H14.6667C14.9981 1.40002 15.2667 1.66865 15.2667 2.00002V12C15.2667 12.3314 14.9981 12.6 14.6667 12.6H10.0001C9.62876 12.6 9.27267 12.7475 9.01012 13.0101C8.74757 13.2726 8.60006 13.6287 8.60006 14C8.60006 14.3314 8.33144 14.6 8.00006 14.6C7.66869 14.6 7.40006 14.3314 7.40006 14V4.66669C7.40006 3.80032 7.74423 2.96943 8.35685 2.35681ZM8.60007 11.8091C9.01491 11.544 9.50006 11.4 10.0001 11.4H14.0667V2.60002H10.6667C10.1186 2.60002 9.59295 2.81776 9.20538 3.20534C8.8178 3.59291 8.60006 4.11858 8.60006 4.66669L8.60007 11.8091Z" fill="#212636"/>
</svg>
