<svg width="16" height="16" viewBox="0 0 16 16" fill="none" xmlns="http://www.w3.org/2000/svg">
<path d="M8 5.33331C11.3137 5.33331 14 4.43788 14 3.33331C14 2.22874 11.3137 1.33331 8 1.33331C4.68629 1.33331 2 2.22874 2 3.33331C2 4.43788 4.68629 5.33331 8 5.33331Z" stroke="#212636" stroke-width="1.2" stroke-linecap="round" stroke-linejoin="round"/>
<path d="M2 3.33331V12.6666C2 13.1971 2.63214 13.7058 3.75736 14.0809C4.88258 14.4559 6.4087 14.6666 8 14.6666M14 3.33331V7.99998" stroke="#212636" stroke-width="1.2" stroke-linecap="round" stroke-linejoin="round"/>
<path d="M2 8C2 8.53043 2.63214 9.03914 3.75736 9.41421C4.88258 9.78929 6.4087 10 8 10" stroke="#212636" stroke-width="1.2" stroke-linecap="round" stroke-linejoin="round"/>
<path d="M10 10H15" stroke="#212636" stroke-width="1.1" stroke-linecap="round" stroke-linejoin="round"/>
<path d="M10 12H15" stroke="#212636" stroke-width="1.1" stroke-linecap="round" stroke-linejoin="round"/>
<path d="M10 14H15" stroke="#212636" stroke-width="1.1" stroke-linecap="round" stroke-linejoin="round"/>
</svg>
