<svg width="16" height="16" viewBox="0 0 16 16" fill="none" xmlns="http://www.w3.org/2000/svg">
<path fill-rule="evenodd" clip-rule="evenodd" d="M2.8428 3.02609C2.60756 3.21148 2.5999 3.31983 2.5999 3.33334C2.5999 3.34684 2.60756 3.4552 2.8428 3.64058C3.07126 3.82063 3.43905 4.00902 3.947 4.17834C4.95663 4.51489 6.38959 4.73334 7.9999 4.73334C9.61021 4.73334 11.0432 4.51489 12.0528 4.17834C12.5608 4.00902 12.9285 3.82063 13.157 3.64058C13.3922 3.4552 13.3999 3.34684 13.3999 3.33334C13.3999 3.31983 13.3922 3.21148 13.157 3.02609C12.9285 2.84604 12.5608 2.65765 12.0528 2.48833C11.0432 2.15179 9.61021 1.93334 7.9999 1.93334C6.38959 1.93334 4.95663 2.15179 3.947 2.48833C3.43905 2.65765 3.07126 2.84604 2.8428 3.02609ZM3.56752 1.34991C4.72946 0.962601 6.2965 0.733337 7.9999 0.733337C9.7033 0.733337 11.2703 0.962601 12.4323 1.34991C13.0101 1.54253 13.521 1.7851 13.8998 2.0836C14.2718 2.37677 14.5999 2.79456 14.5999 3.33334C14.5999 3.87212 14.2718 4.28991 13.8998 4.58307C13.521 4.88157 13.0101 5.12415 12.4323 5.31676C11.2703 5.70407 9.7033 5.93334 7.9999 5.93334C6.2965 5.93334 4.72946 5.70407 3.56752 5.31676C2.98969 5.12415 2.47879 4.88157 2.10003 4.58307C1.72803 4.28991 1.3999 3.87212 1.3999 3.33334C1.3999 2.79456 1.72803 2.37677 2.10003 2.0836C2.47879 1.7851 2.98969 1.54253 3.56752 1.34991Z" fill="#212636"/>
<path fill-rule="evenodd" clip-rule="evenodd" d="M1.9999 2.73334C2.33127 2.73334 2.5999 3.00197 2.5999 3.33334V12.6667C2.5999 12.6754 2.60473 12.7811 2.83279 12.9646C3.05531 13.1437 3.42144 13.3365 3.947 13.5117C4.00497 13.531 4.05947 13.5493 4.11124 13.5667C4.62474 13.7393 4.86965 13.8216 5.57013 13.9041C5.89922 13.9429 6.13456 14.2411 6.09578 14.5702C6.05699 14.8993 5.75877 15.1347 5.42967 15.0959C4.60577 14.9988 4.27031 14.8861 3.72548 14.703C3.67483 14.686 3.62236 14.6684 3.56752 14.6501C2.96787 14.4502 2.45532 14.2011 2.08046 13.8995C1.71114 13.6023 1.3999 13.1883 1.3999 12.6667V3.33334C1.3999 3.00197 1.66853 2.73334 1.9999 2.73334ZM13.9999 2.73334C14.3313 2.73334 14.5999 3.00197 14.5999 3.33334V11C14.5999 11.3314 14.3313 11.6 13.9999 11.6C13.6685 11.6 13.3999 11.3314 13.3999 11V3.33334C13.3999 3.00197 13.6685 2.73334 13.9999 2.73334Z" fill="#212636"/>
<path fill-rule="evenodd" clip-rule="evenodd" d="M1.9999 7.4C2.33127 7.4 2.5999 7.66863 2.5999 8C2.5999 8.00877 2.60473 8.11441 2.83279 8.29793C3.05531 8.477 3.42144 8.66982 3.947 8.84501C4.50003 9.02935 5.17219 9.17517 5.91807 9.27102C6.24674 9.31326 6.47893 9.61394 6.4367 9.9426C6.39446 10.2713 6.09378 10.5035 5.76511 10.4612C4.96205 10.358 4.21102 10.1979 3.56753 9.98343C2.96787 9.78354 2.45532 9.53447 2.08046 9.23281C1.71114 8.93561 1.3999 8.52167 1.3999 8C1.3999 7.66863 1.66853 7.4 1.9999 7.4Z" fill="#212636"/>
<path fill-rule="evenodd" clip-rule="evenodd" d="M8.10366 9.1001C8.24188 8.96663 8.46598 8.96663 8.6042 9.1001L10.9638 11.3786C11.102 11.5121 11.102 11.7285 10.9638 11.8619L8.6042 14.1404C8.46598 14.2739 8.24188 14.2739 8.10366 14.1404C7.96545 14.0069 7.96545 13.7905 8.10366 13.6571L10.2129 11.6203L8.10366 9.58344C7.96545 9.44997 7.96545 9.23357 8.10366 9.1001Z" fill="#212636"/>
<path fill-rule="evenodd" clip-rule="evenodd" d="M11.1461 14.6582C11.1461 14.4695 11.3045 14.3165 11.5 14.3165H14.6461C14.8415 14.3165 15 14.4695 15 14.6582C15 14.847 14.8415 15 14.6461 15H11.5C11.3045 15 11.1461 14.847 11.1461 14.6582Z" fill="#212636"/>
<path fill-rule="evenodd" clip-rule="evenodd" d="M8.10366 9.1001C8.24188 8.96663 8.46598 8.96663 8.6042 9.1001L10.9638 11.3786C11.102 11.5121 11.102 11.7285 10.9638 11.8619L8.6042 14.1404C8.46598 14.2739 8.24188 14.2739 8.10366 14.1404C7.96545 14.0069 7.96545 13.7905 8.10366 13.6571L10.2129 11.6203L8.10366 9.58344C7.96545 9.44997 7.96545 9.23357 8.10366 9.1001Z" stroke="#212636" stroke-width="0.4" stroke-linecap="round" stroke-linejoin="round"/>
<path fill-rule="evenodd" clip-rule="evenodd" d="M11.1461 14.6582C11.1461 14.4695 11.3045 14.3165 11.5 14.3165H14.6461C14.8415 14.3165 15 14.4695 15 14.6582C15 14.847 14.8415 15 14.6461 15H11.5C11.3045 15 11.1461 14.847 11.1461 14.6582Z" stroke="#212636" stroke-width="0.4" stroke-linecap="round" stroke-linejoin="round"/>
</svg>
