<svg width="16" height="16" viewBox="0 0 16 16" fill="none" xmlns="http://www.w3.org/2000/svg">
<path fill-rule="evenodd" clip-rule="evenodd" d="M4.00006 1.93334C3.80557 1.93334 3.61905 2.0106 3.48152 2.14813C3.34399 2.28565 3.26673 2.47218 3.26673 2.66667V4C3.26673 4.33138 2.9981 4.6 2.66673 4.6C2.33536 4.6 2.06673 4.33138 2.06673 4V2.66667C2.06673 2.15392 2.27042 1.66217 2.63299 1.2996C2.99556 0.937027 3.48731 0.733337 4.00006 0.733337H9.66673C9.82586 0.733337 9.97847 0.796552 10.091 0.909073L13.7577 4.57574C13.8702 4.68826 13.9334 4.84087 13.9334 5V13.3333C13.9334 13.8461 13.7297 14.3378 13.3671 14.7004C13.0046 15.063 12.5128 15.2667 12.0001 15.2667H2.66673C2.33536 15.2667 2.06673 14.998 2.06673 14.6667C2.06673 14.3353 2.33536 14.0667 2.66673 14.0667H12.0001C12.1946 14.0667 12.3811 13.9894 12.5186 13.8519C12.6561 13.7144 12.7334 13.5278 12.7334 13.3333V5.24853L9.4182 1.93334H4.00006Z" fill="#212636"/>
<path fill-rule="evenodd" clip-rule="evenodd" d="M9.3334 0.733337C9.66477 0.733337 9.9334 1.00197 9.9334 1.33334V4.73334H13.3334C13.6648 4.73334 13.9334 5.00197 13.9334 5.33334C13.9334 5.66471 13.6648 5.93334 13.3334 5.93334H9.3334C9.00203 5.93334 8.7334 5.66471 8.7334 5.33334V1.33334C8.7334 1.00197 9.00203 0.733337 9.3334 0.733337Z" fill="#212636"/>
<path fill-rule="evenodd" clip-rule="evenodd" d="M4.00006 7.93334C3.22687 7.93334 2.60007 8.56014 2.60007 9.33334C2.60007 10.1065 3.22687 10.7333 4.00006 10.7333C4.77326 10.7333 5.40006 10.1065 5.40006 9.33334C5.40006 8.56014 4.77326 7.93334 4.00006 7.93334ZM1.40007 9.33334C1.40007 7.8974 2.56412 6.73334 4.00006 6.73334C5.43601 6.73334 6.60007 7.8974 6.60007 9.33334C6.60007 10.7693 5.43601 11.9333 4.00006 11.9333C2.56412 11.9333 1.40007 10.7693 1.40007 9.33334Z" fill="#212636"/>
<path fill-rule="evenodd" clip-rule="evenodd" d="M4.00007 6.06667C4.33144 6.06667 4.60007 6.3353 4.60007 6.66667V7.33334C4.60007 7.66471 4.33144 7.93334 4.00006 7.93334C3.66869 7.93334 3.40007 7.66471 3.40007 7.33334V6.66667C3.40007 6.3353 3.66869 6.06667 4.00007 6.06667Z" fill="#212636"/>
<path fill-rule="evenodd" clip-rule="evenodd" d="M4.00006 10.7333C4.33144 10.7333 4.60007 11.002 4.60007 11.3333V12C4.60007 12.3314 4.33144 12.6 4.00007 12.6C3.66869 12.6 3.40007 12.3314 3.40007 12V11.3333C3.40007 11.002 3.66869 10.7333 4.00006 10.7333Z" fill="#212636"/>
<path fill-rule="evenodd" clip-rule="evenodd" d="M5.40006 9.33334C5.40006 9.00197 5.66869 8.73334 6.00007 8.73334H6.66673C6.9981 8.73334 7.26673 9.00197 7.26673 9.33334C7.26673 9.66471 6.9981 9.93334 6.66673 9.93334H6.00007C5.66869 9.93334 5.40006 9.66471 5.40006 9.33334Z" fill="#212636"/>
<path fill-rule="evenodd" clip-rule="evenodd" d="M0.733398 9.33334C0.733398 9.00197 1.00203 8.73334 1.3334 8.73334H2.00007C2.33144 8.73334 2.60007 9.00197 2.60007 9.33334C2.60007 9.66471 2.33144 9.93334 2.00007 9.93334H1.3334C1.00203 9.93334 0.733398 9.66471 0.733398 9.33334Z" fill="#212636"/>
<path fill-rule="evenodd" clip-rule="evenodd" d="M6.42433 6.90907C6.65864 7.14339 6.65864 7.52329 6.42433 7.7576L5.83766 8.34427C5.60335 8.57858 5.22345 8.57858 4.98913 8.34427C4.75482 8.10995 4.75482 7.73005 4.98913 7.49574L5.5758 6.90907C5.81012 6.67476 6.19001 6.67476 6.42433 6.90907Z" fill="#212636"/>
<path fill-rule="evenodd" clip-rule="evenodd" d="M3.011 10.3224C3.24531 10.5567 3.24531 10.9366 3.011 11.1709L2.42433 11.7576C2.19001 11.9919 1.81012 11.9919 1.5758 11.7576C1.34149 11.5233 1.34149 11.1434 1.5758 10.9091L2.16247 10.3224C2.39678 10.0881 2.77668 10.0881 3.011 10.3224Z" fill="#212636"/>
<path fill-rule="evenodd" clip-rule="evenodd" d="M4.98913 10.3224C5.22345 10.0881 5.60335 10.0881 5.83766 10.3224L6.42433 10.9091C6.65864 11.1434 6.65864 11.5233 6.42433 11.7576C6.19002 11.9919 5.81012 11.9919 5.5758 11.7576L4.98913 11.1709C4.75482 10.9366 4.75482 10.5567 4.98913 10.3224Z" fill="#212636"/>
<path fill-rule="evenodd" clip-rule="evenodd" d="M1.5758 6.90907C1.81012 6.67476 2.19001 6.67476 2.42433 6.90907L3.011 7.49574C3.24531 7.73005 3.24531 8.10995 3.011 8.34427C2.77668 8.57858 2.39678 8.57858 2.16247 8.34427L1.5758 7.7576C1.34149 7.52329 1.34149 7.14339 1.5758 6.90907Z" fill="#212636"/>
</svg>
