<svg width="16" height="16" viewBox="0 0 16 16" fill="none" xmlns="http://www.w3.org/2000/svg">
<path fill-rule="evenodd" clip-rule="evenodd" d="M2.8428 3.02609C2.60756 3.21148 2.5999 3.31983 2.5999 3.33334C2.5999 3.34684 2.60756 3.4552 2.8428 3.64058C3.07126 3.82063 3.43905 4.00902 3.947 4.17834C4.95663 4.51489 6.38959 4.73334 7.9999 4.73334C9.61021 4.73334 11.0432 4.51489 12.0528 4.17834C12.5608 4.00902 12.9285 3.82063 13.157 3.64058C13.3922 3.4552 13.3999 3.34684 13.3999 3.33334C13.3999 3.31983 13.3922 3.21148 13.157 3.02609C12.9285 2.84604 12.5608 2.65765 12.0528 2.48833C11.0432 2.15179 9.61021 1.93334 7.9999 1.93334C6.38959 1.93334 4.95663 2.15179 3.947 2.48833C3.43905 2.65765 3.07126 2.84604 2.8428 3.02609ZM13.3999 4.90731C13.1121 5.06328 12.7846 5.19931 12.4323 5.31676C11.2703 5.70407 9.7033 5.93334 7.9999 5.93334C6.2965 5.93334 4.72946 5.70407 3.56752 5.31676C3.21517 5.19931 2.8877 5.06328 2.5999 4.90731V8C2.5999 8.00877 2.60473 8.11441 2.83279 8.29793C3.05531 8.477 3.42144 8.66982 3.947 8.84501C4.99417 9.19406 6.45251 9.4 7.9999 9.4C9.54729 9.4 11.0056 9.19406 12.0528 8.84501C12.5784 8.66982 12.9445 8.477 13.167 8.29793C13.3951 8.11441 13.3999 8.00877 13.3999 8V4.90731ZM14.5999 3.33334C14.5999 2.79456 14.2718 2.37677 13.8998 2.0836C13.521 1.7851 13.0101 1.54253 12.4323 1.34991C11.2703 0.962601 9.7033 0.733337 7.9999 0.733337C6.2965 0.733337 4.72946 0.962601 3.56752 1.34991C2.98969 1.54253 2.47879 1.7851 2.10003 2.0836C1.72803 2.37677 1.3999 2.79456 1.3999 3.33334V12.6667C1.3999 13.1883 1.71114 13.6023 2.08046 13.8995C2.45532 14.2011 2.96787 14.4502 3.56752 14.6501C4.77079 15.0512 6.3647 15.2667 7.9999 15.2667C9.63511 15.2667 11.229 15.0512 12.4323 14.6501C13.0319 14.4502 13.5445 14.2011 13.9193 13.8995C14.2887 13.6023 14.5999 13.1883 14.5999 12.6667V3.33334ZM13.3999 9.57346C13.1153 9.72802 12.7892 9.86444 12.4323 9.98343C11.229 10.3845 9.63511 10.6 7.9999 10.6C6.3647 10.6 4.77079 10.3845 3.56752 9.98343C3.21056 9.86444 2.88446 9.72802 2.5999 9.57346V12.6667C2.5999 12.6754 2.60473 12.7811 2.83279 12.9646C3.05531 13.1437 3.42144 13.3365 3.947 13.5117C4.99417 13.8607 6.45251 14.0667 7.9999 14.0667C9.54729 14.0667 11.0056 13.8607 12.0528 13.5117C12.5784 13.3365 12.9445 13.1437 13.167 12.9646C13.3951 12.7811 13.3999 12.6754 13.3999 12.6667V9.57346Z" fill="#212636"/>
</svg>
