<svg width="16" height="16" viewBox="0 0 16 16" fill="none" xmlns="http://www.w3.org/2000/svg">
<path fill-rule="evenodd" clip-rule="evenodd" d="M2.8428 3.02609C2.60756 3.21148 2.5999 3.31983 2.5999 3.33334C2.5999 3.34684 2.60756 3.4552 2.8428 3.64058C3.07126 3.82063 3.43905 4.00902 3.947 4.17834C4.95663 4.51489 6.38959 4.73334 7.9999 4.73334C9.61021 4.73334 11.0432 4.51489 12.0528 4.17834C12.5608 4.00902 12.9285 3.82063 13.157 3.64058C13.3922 3.4552 13.3999 3.34684 13.3999 3.33334C13.3999 3.31983 13.3922 3.21148 13.157 3.02609C12.9285 2.84604 12.5608 2.65765 12.0528 2.48833C11.0432 2.15179 9.61021 1.93334 7.9999 1.93334C6.38959 1.93334 4.95663 2.15179 3.947 2.48833C3.43905 2.65765 3.07126 2.84604 2.8428 3.02609ZM3.56752 1.34991C4.72946 0.962601 6.2965 0.733337 7.9999 0.733337C9.7033 0.733337 11.2703 0.962601 12.4323 1.34991C13.0101 1.54253 13.521 1.7851 13.8998 2.0836C14.2718 2.37677 14.5999 2.79456 14.5999 3.33334C14.5999 3.87212 14.2718 4.28991 13.8998 4.58307C13.521 4.88157 13.0101 5.12415 12.4323 5.31676C11.2703 5.70407 9.7033 5.93334 7.9999 5.93334C6.2965 5.93334 4.72946 5.70407 3.56752 5.31676C2.98969 5.12415 2.47879 4.88157 2.10003 4.58307C1.72803 4.28991 1.3999 3.87212 1.3999 3.33334C1.3999 2.79456 1.72803 2.37677 2.10003 2.0836C2.47879 1.7851 2.98969 1.54253 3.56752 1.34991Z" fill="#212636"/>
<path fill-rule="evenodd" clip-rule="evenodd" d="M1.9999 2.73334C2.33127 2.73334 2.5999 3.00197 2.5999 3.33334V12.6667C2.5999 12.6754 2.60473 12.7811 2.83279 12.9646C3.05531 13.1437 3.42144 13.3365 3.947 13.5117C4.99417 13.8607 6.45251 14.0667 7.9999 14.0667C8.33127 14.0667 8.5999 14.3353 8.5999 14.6667C8.5999 14.998 8.33127 15.2667 7.9999 15.2667C6.3647 15.2667 4.77079 15.0512 3.56752 14.6501C2.96787 14.4502 2.45532 14.2011 2.08046 13.8995C1.71114 13.6023 1.3999 13.1883 1.3999 12.6667V3.33334C1.3999 3.00197 1.66853 2.73334 1.9999 2.73334ZM13.9999 2.73334C14.3313 2.73334 14.5999 3.00197 14.5999 3.33334V7.99996C14.5999 8.33133 14.3313 8.59996 13.9999 8.59996C13.6685 8.59996 13.3999 8.33133 13.3999 7.99996L13.3999 3.33334C13.3999 3.00197 13.6685 2.73334 13.9999 2.73334Z" fill="#212636"/>
<path fill-rule="evenodd" clip-rule="evenodd" d="M1.9999 7.4C2.33127 7.4 2.5999 7.66863 2.5999 8C2.5999 8.00877 2.60473 8.11441 2.83279 8.29793C3.05531 8.477 3.42144 8.66982 3.947 8.84501C4.4678 9.01861 5.0946 9.15815 5.78967 9.25393C6.11794 9.29916 6.34739 9.60194 6.30216 9.93021C6.25692 10.2585 5.95414 10.4879 5.62587 10.4427C4.87568 10.3393 4.174 10.1856 3.56752 9.98343C2.96787 9.78354 2.45532 9.53447 2.08046 9.23281C1.71114 8.93561 1.3999 8.52167 1.3999 8C1.3999 7.66863 1.66853 7.4 1.9999 7.4Z" fill="#212636"/>
<path fill-rule="evenodd" clip-rule="evenodd" d="M9.95417 8.855C10.0293 8.81491 10.1208 8.81812 10.1928 8.86335L14.56 11.6076C14.627 11.6497 14.6675 11.7222 14.6675 11.8C14.6675 11.8778 14.627 11.9503 14.56 11.9924L10.1928 14.7367C10.1208 14.7819 10.0293 14.7851 9.95417 14.745C9.87905 14.7049 9.83232 14.6279 9.83232 14.5443V9.05572C9.83232 8.97206 9.87905 8.89508 9.95417 8.855ZM10.3002 9.47461V14.1254L14.0009 11.8L10.3002 9.47461Z" fill="#212636"/>
<path fill-rule="evenodd" clip-rule="evenodd" d="M9.79567 8.56754C9.97703 8.47075 10.1978 8.47844 10.3717 8.58775L14.739 11.332C14.901 11.4339 14.9999 11.61 14.9999 11.8C14.9999 11.9901 14.901 12.1662 14.739 12.268L10.3717 15.0123C10.1978 15.1216 9.97703 15.1293 9.79567 15.0325C9.61405 14.9355 9.4999 14.7486 9.4999 14.5443V9.05572C9.4999 8.85137 9.61405 8.66446 9.79567 8.56754ZM10.6327 10.0715V13.5285L13.3833 11.8L10.6327 10.0715Z" fill="#212636"/>
</svg>
