<svg width="16" height="16" viewBox="0 0 16 16" fill="none" xmlns="http://www.w3.org/2000/svg">
<path fill-rule="evenodd" clip-rule="evenodd" d="M6 1.93333C5.96318 1.93333 5.93333 1.96318 5.93333 2V3.33333C5.93333 3.37015 5.96318 3.4 6 3.4H10C10.0368 3.4 10.0667 3.37015 10.0667 3.33333V2C10.0667 1.96318 10.0368 1.93333 10 1.93333H6ZM4.73333 2C4.73333 1.30044 5.30044 0.73333 6 0.73333H10C10.6996 0.73333 11.2667 1.30044 11.2667 2V3.33333C11.2667 4.03289 10.6996 4.6 10 4.6H6C5.30044 4.6 4.73333 4.03289 4.73333 3.33333V2Z" fill="#212636"/>
<path fill-rule="evenodd" clip-rule="evenodd" d="M4 3.26667C3.80551 3.26667 3.61898 3.34393 3.48145 3.48145C3.34393 3.61898 3.26667 3.80551 3.26667 4V13.3333C3.26667 13.5278 3.34393 13.7144 3.48145 13.8519C3.61898 13.9894 3.80551 14.0667 4 14.0667H12C12.1945 14.0667 12.381 13.9894 12.5185 13.8519C12.6561 13.7144 12.7333 13.5278 12.7333 13.3333V4C12.7333 3.80551 12.6561 3.61898 12.5185 3.48145C12.381 3.34393 12.1945 3.26667 12 3.26667H10.6667C10.3353 3.26667 10.0667 2.99804 10.0667 2.66667C10.0667 2.33529 10.3353 2.06667 10.6667 2.06667H12C12.5128 2.06667 13.0045 2.27036 13.3671 2.63293C13.7296 2.9955 13.9333 3.48725 13.9333 4V13.3333C13.9333 13.8461 13.7296 14.3378 13.3671 14.7004C13.0045 15.063 12.5128 15.2667 12 15.2667H4C3.48725 15.2667 2.9955 15.063 2.63293 14.7004C2.27036 14.3378 2.06667 13.8461 2.06667 13.3333V4C2.06667 3.48725 2.27036 2.9955 2.63293 2.63293C2.9955 2.27036 3.48725 2.06667 4 2.06667H5.33333C5.6647 2.06667 5.93333 2.33529 5.93333 2.66667C5.93333 2.99804 5.6647 3.26667 5.33333 3.26667H4Z" fill="#212636"/>
<path fill-rule="evenodd" clip-rule="evenodd" d="M7.4 7.33334C7.4 7.00197 7.66863 6.73334 8 6.73334H10.6667C10.998 6.73334 11.2667 7.00197 11.2667 7.33334C11.2667 7.66471 10.998 7.93334 10.6667 7.93334H8C7.66863 7.93334 7.4 7.66471 7.4 7.33334Z" fill="#212636"/>
<path fill-rule="evenodd" clip-rule="evenodd" d="M7.4 10.6667C7.4 10.3353 7.66863 10.0667 8 10.0667H10.6667C10.998 10.0667 11.2667 10.3353 11.2667 10.6667C11.2667 10.998 10.998 11.2667 10.6667 11.2667H8C7.66863 11.2667 7.4 10.998 7.4 10.6667Z" fill="#212636"/>
<path fill-rule="evenodd" clip-rule="evenodd" d="M4.73333 7.33334C4.73333 7.00197 5.00196 6.73334 5.33333 6.73334H5.34C5.67137 6.73334 5.94 7.00197 5.94 7.33334C5.94 7.66471 5.67137 7.93334 5.34 7.93334H5.33333C5.00196 7.93334 4.73333 7.66471 4.73333 7.33334Z" fill="#212636"/>
<path fill-rule="evenodd" clip-rule="evenodd" d="M4.73333 10.6667C4.73333 10.3353 5.00196 10.0667 5.33333 10.0667H5.34C5.67137 10.0667 5.94 10.3353 5.94 10.6667C5.94 10.998 5.67137 11.2667 5.34 11.2667H5.33333C5.00196 11.2667 4.73333 10.998 4.73333 10.6667Z" fill="#212636"/>
</svg>
