<svg width="16" height="16" viewBox="0 0 16 16" fill="none" xmlns="http://www.w3.org/2000/svg">
<path fill-rule="evenodd" clip-rule="evenodd" d="M2.63315 1.2996C2.99573 0.937027 3.48748 0.733337 4.00023 0.733337H9.66689C9.82602 0.733337 9.97864 0.796552 10.0912 0.909073L13.7578 4.57574C13.8703 4.68826 13.9336 4.84087 13.9336 5V13.3333C13.9336 13.8461 13.7299 14.3378 13.3673 14.7004C13.0047 15.063 12.513 15.2667 12.0002 15.2667H4.00023C3.48748 15.2667 2.99572 15.063 2.63315 14.7004C2.27058 14.3378 2.06689 13.8461 2.06689 13.3333V2.66667C2.06689 2.15392 2.27058 1.66217 2.63315 1.2996ZM4.00023 1.93334C3.80574 1.93334 3.61921 2.0106 3.48168 2.14813C3.34416 2.28565 3.26689 2.47218 3.26689 2.66667V13.3333C3.26689 13.5278 3.34416 13.7144 3.48168 13.8519C3.61921 13.9894 3.80574 14.0667 4.00023 14.0667H12.0002C12.1947 14.0667 12.3812 13.9894 12.5188 13.8519C12.6563 13.7144 12.7336 13.5278 12.7336 13.3333V5.24853L9.41837 1.93334H4.00023Z" fill="#212636"/>
<path fill-rule="evenodd" clip-rule="evenodd" d="M9.3334 0.733337C9.66477 0.733337 9.9334 1.00197 9.9334 1.33334V4.73334H13.3334C13.6648 4.73334 13.9334 5.00197 13.9334 5.33334C13.9334 5.66471 13.6648 5.93334 13.3334 5.93334H9.3334C9.00203 5.93334 8.7334 5.66471 8.7334 5.33334V1.33334C8.7334 1.00197 9.00203 0.733337 9.3334 0.733337Z" fill="#212636"/>
<path fill-rule="evenodd" clip-rule="evenodd" d="M10.4242 8.24239C10.6585 8.4767 10.6585 8.8566 10.4242 9.09091L7.7575 11.7576C7.52319 11.9919 7.14329 11.9919 6.90897 11.7576L5.57564 10.4242C5.34132 10.1899 5.34132 9.81003 5.57564 9.57572C5.80995 9.3414 6.18985 9.3414 6.42417 9.57572L7.33324 10.4848L9.57564 8.24239C9.80995 8.00807 10.1899 8.00807 10.4242 8.24239Z" fill="#212636"/>
</svg>
