<svg width="16" height="16" viewBox="0 0 16 16" fill="none" xmlns="http://www.w3.org/2000/svg">
<path fill-rule="evenodd" clip-rule="evenodd" d="M4.57596 1.24241C4.86017 0.958199 5.27176 0.733337 5.73356 0.733337H10.3336C10.4927 0.733337 10.6453 0.796552 10.7578 0.909073L13.7578 3.90907C13.8703 4.0216 13.9336 4.17421 13.9336 4.33334V10.9333C13.9336 11.3951 13.7087 11.8067 13.4245 12.0909C13.1403 12.3751 12.7287 12.6 12.2669 12.6H5.73356C5.27176 12.6 4.86017 12.3751 4.57596 12.0909C4.29176 11.8067 4.06689 11.3951 4.06689 10.9333V2.4C4.06689 1.9382 4.29176 1.52661 4.57596 1.24241ZM5.73356 1.93334C5.66203 1.93334 5.54028 1.97514 5.42449 2.09093C5.3087 2.20673 5.26689 2.32848 5.26689 2.4V10.9333C5.26689 11.0049 5.3087 11.1266 5.42449 11.2424C5.54028 11.3582 5.66203 11.4 5.73356 11.4H12.2669C12.3384 11.4 12.4602 11.3582 12.576 11.2424C12.6918 11.1266 12.7336 11.0049 12.7336 10.9333V4.58187L10.085 1.93334H5.73356Z" fill="#212636"/>
<path fill-rule="evenodd" clip-rule="evenodd" d="M1.9999 4.46667C2.33127 4.46667 2.5999 4.7353 2.5999 5.06667V13.6C2.5999 13.6715 2.64171 13.7933 2.7575 13.9091C2.87329 14.0249 2.99504 14.0667 3.06657 14.0667H9.5999C9.93127 14.0667 10.1999 14.3353 10.1999 14.6667C10.1999 14.998 9.93127 15.2667 9.5999 15.2667H3.06657C2.60476 15.2667 2.19318 15.0418 1.90897 14.7576C1.62476 14.4734 1.3999 14.0618 1.3999 13.6V5.06667C1.3999 4.7353 1.66853 4.46667 1.9999 4.46667Z" fill="#212636"/>
<path fill-rule="evenodd" clip-rule="evenodd" d="M9.9999 0.733337C10.3313 0.733337 10.5999 1.00197 10.5999 1.33334V4.06667H13.3332C13.6646 4.06667 13.9332 4.3353 13.9332 4.66667C13.9332 4.99804 13.6646 5.26667 13.3332 5.26667H9.9999C9.66853 5.26667 9.3999 4.99804 9.3999 4.66667V1.33334C9.3999 1.00197 9.66853 0.733337 9.9999 0.733337Z" fill="#212636"/>
</svg>
