<svg width="16" height="16" viewBox="0 0 16 16" fill="none" xmlns="http://www.w3.org/2000/svg">
<path d="M7.99978 0.640015C7.29194 0.640015 6.71979 1.21217 6.71979 1.92001C6.71979 2.02231 6.73533 2.12033 6.75791 2.21564L3.50228 3.93939C3.26836 3.68325 2.93467 3.52001 2.55979 3.52001C1.85195 3.52001 1.27979 4.09217 1.27979 4.80001C1.27979 5.39365 1.68822 5.89119 2.23979 6.03439V9.96564C1.68824 10.1081 1.27979 10.6034 1.27979 11.2C1.27979 11.9043 1.85195 12.48 2.55979 12.48C2.93467 12.48 3.26836 12.3168 3.50228 12.0606L6.75791 13.7844C6.73533 13.8797 6.71979 13.9777 6.71979 14.08C6.71979 14.7879 7.29194 15.36 7.99978 15.36C8.70762 15.36 9.27979 14.7843 9.27979 14.08C9.27979 13.9777 9.26424 13.8797 9.24166 13.7844L12.4973 12.0606C12.7312 12.3168 13.0649 12.48 13.4398 12.48C14.1476 12.48 14.7198 11.9043 14.7198 11.2C14.7198 10.6034 14.3113 10.1081 13.7598 9.96564V6.03439C14.3114 5.89119 14.7198 5.39365 14.7198 4.80001C14.7198 4.09217 14.1476 3.52001 13.4398 3.52001C13.0649 3.52001 12.7312 3.68325 12.4973 3.93939L9.24166 2.21564C9.26436 2.12034 9.27979 2.02208 9.27979 1.92001C9.27979 1.21217 8.70762 0.640015 7.99978 0.640015ZM7.05728 2.78064C7.07107 2.79573 7.08217 2.8131 7.09666 2.82751L2.90729 9.97376C2.898 9.97114 2.88916 9.96743 2.87979 9.96501V6.03439C3.43133 5.89189 3.83979 5.3966 3.83979 4.80001C3.83979 4.69772 3.82424 4.5997 3.80166 4.50439L7.05728 2.78064ZM8.94166 2.78064L12.1979 4.50439C12.1753 4.5997 12.1598 4.69772 12.1598 4.80001C12.1598 5.3966 12.5682 5.89189 13.1198 6.03439V9.96501C13.1104 9.96743 13.1016 9.97114 13.0923 9.97376L8.90229 2.82689C8.91664 2.8126 8.92799 2.7956 8.94166 2.78064ZM8.34728 3.14564L12.5367 10.2925C12.3768 10.4516 12.2636 10.6546 12.2054 10.88H3.79416C3.73593 10.6546 3.62277 10.4516 3.46291 10.2925L7.65229 3.14626C7.76344 3.17769 7.87845 3.20001 7.99978 3.20001C8.12116 3.20001 8.23609 3.17724 8.34728 3.14564ZM3.84791 11.52H12.1517L8.94229 13.2194C8.70836 12.9633 8.37467 12.8 7.99978 12.8C7.6249 12.8 7.29121 12.9633 7.05728 13.2194L3.84791 11.52Z" fill="#212636"/>
<path fill-rule="evenodd" clip-rule="evenodd" d="M6.56988 1.91999C6.56988 1.12931 7.2092 0.48999 7.99988 0.48999C8.79057 0.48999 9.42988 1.12931 9.42988 1.91999C9.42988 1.99466 9.42269 2.06659 9.41113 2.13556L12.4692 3.75473C12.7231 3.51784 13.0626 3.36999 13.4399 3.36999C14.2306 3.36999 14.8699 4.00931 14.8699 4.79999C14.8699 5.42342 14.4676 5.9507 13.9099 6.14543V9.85441C14.4675 10.0483 14.8699 10.5738 14.8699 11.2C14.8699 11.9869 14.2308 12.63 13.4399 12.63C13.0626 12.63 12.7231 12.4821 12.4692 12.2453L9.41109 13.8644C9.42263 13.9333 9.42988 14.0051 9.42988 14.08C9.42988 14.8669 8.79083 15.51 7.99988 15.51C7.2092 15.51 6.56988 14.8707 6.56988 14.08C6.56988 14.0051 6.57713 13.9333 6.58868 13.8644L3.53054 12.2453C3.27662 12.4821 2.93714 12.63 2.55988 12.63C1.76893 12.63 1.12988 11.9869 1.12988 11.2C1.12988 10.5738 1.53224 10.0483 2.08988 9.85441V6.14543C1.5322 5.9507 1.12988 5.42342 1.12988 4.79999C1.12988 4.00931 1.7692 3.36999 2.55988 3.36999C2.93714 3.36999 3.27662 3.51784 3.53054 3.75473L6.58868 2.13554C6.57713 2.06671 6.56988 1.99484 6.56988 1.91999ZM6.75801 2.21562C6.73542 2.1203 6.71988 2.02229 6.71988 1.91999C6.71988 1.21215 7.29204 0.63999 7.99988 0.63999C8.70772 0.63999 9.27988 1.21215 9.27988 1.91999C9.27988 2.02206 9.26446 2.12031 9.24176 2.21562L12.4974 3.93937C12.7313 3.68323 13.065 3.51999 13.4399 3.51999C14.1477 3.51999 14.7199 4.09215 14.7199 4.79999C14.7199 5.39362 14.3115 5.89116 13.7599 6.03437V9.96562C14.3114 10.1081 14.7199 10.6034 14.7199 11.2C14.7199 11.9043 14.1477 12.48 13.4399 12.48C13.065 12.48 12.7313 12.3168 12.4974 12.0606L9.24176 13.7844C9.26434 13.8797 9.27988 13.9777 9.27988 14.08C9.27988 14.7843 8.70772 15.36 7.99988 15.36C7.29204 15.36 6.71988 14.7878 6.71988 14.08C6.71988 13.9777 6.73542 13.8797 6.75801 13.7844L3.50238 12.0606C3.26845 12.3168 2.93477 12.48 2.55988 12.48C1.85204 12.48 1.27988 11.9043 1.27988 11.2C1.27988 10.6034 1.68834 10.1081 2.23988 9.96562V6.03437C1.68831 5.89116 1.27988 5.39362 1.27988 4.79999C1.27988 4.09215 1.85204 3.51999 2.55988 3.51999C2.93477 3.51999 3.26845 3.68323 3.50238 3.93937L6.75801 2.21562ZM2.90738 9.97374C2.90314 9.97254 2.89899 9.97112 2.89485 9.96969C2.88991 9.968 2.88498 9.96631 2.87988 9.96499V6.03437C3.43143 5.89186 3.83988 5.39657 3.83988 4.79999C3.83988 4.69769 3.82434 4.59968 3.80176 4.50437L7.05738 2.78062C7.06344 2.78725 7.06898 2.79432 7.07451 2.80138C7.08158 2.8104 7.08864 2.81941 7.09676 2.82749L2.90738 9.97374ZM3.97109 4.58444C3.98263 4.65327 3.98988 4.72514 3.98988 4.79999C3.98988 5.4262 3.58753 5.95166 3.02988 6.14557V9.46818L6.75791 3.10891L3.97109 4.58444ZM13.0924 9.97374C13.0966 9.97254 13.1008 9.97112 13.1049 9.96969C13.1099 9.968 13.1148 9.96631 13.1199 9.96499V6.03437C12.5683 5.89186 12.1599 5.39657 12.1599 4.79999C12.1599 4.69769 12.1754 4.59968 12.198 4.50437L8.94176 2.78062C8.93583 2.7871 8.93035 2.79396 8.92486 2.80082C8.91769 2.8098 8.91052 2.81877 8.90238 2.82687L13.0924 9.97374ZM9.24175 3.10914L12.9699 9.46821V6.14557C12.4122 5.95166 12.0099 5.4262 12.0099 4.79999C12.0099 4.72514 12.0171 4.65328 12.0287 4.58445L9.24175 3.10914ZM8.2749 3.31857C8.1883 3.33745 8.09662 3.34999 7.99988 3.34999C7.90332 3.34999 7.81168 3.3377 7.72498 3.319L3.64849 10.2727C3.76159 10.4068 3.84816 10.5621 3.90575 10.73H12.094C12.1516 10.5621 12.2382 10.4068 12.3513 10.2727L8.2749 3.31857ZM12.5368 10.2925L8.34738 3.14562C8.23619 3.17721 8.12125 3.19999 7.99988 3.19999C7.87855 3.19999 7.76354 3.17766 7.65238 3.14624L3.46301 10.2925C3.62287 10.4516 3.73602 10.6546 3.79426 10.88H12.2055C12.2637 10.6546 12.3769 10.4516 12.5368 10.2925ZM3.84801 11.52L7.05738 13.2194C7.29131 12.9632 7.625 12.8 7.99988 12.8C8.37477 12.8 8.70845 12.9632 8.94238 13.2194L12.1518 11.52H3.84801ZM4.45184 11.67L7.02922 13.0347C7.28315 12.7978 7.62263 12.65 7.99988 12.65C8.37714 12.65 8.71662 12.7978 8.97054 13.0347L11.5479 11.67H4.45184Z" fill="#212636"/>
</svg>
