<svg width="16" height="16" viewBox="0 0 16 16" fill="none" xmlns="http://www.w3.org/2000/svg">
<g clip-path="url(#clip0_1022_6918)">
<path d="M15.2649 8.00001C15.2649 9.92675 14.4995 11.7746 13.1371 13.137C11.7747 14.4994 9.92687 15.2648 8.00013 15.2648C6.07339 15.2648 4.22557 14.4994 2.86316 13.137C1.50075 11.7746 0.735352 9.92675 0.735352 8.00001C0.735352 6.07327 1.50075 4.22544 2.86316 2.86303C4.22557 1.50062 6.07339 0.735229 8.00013 0.735229C9.92687 0.735229 11.7747 1.50062 13.1371 2.86303C14.4995 4.22544 15.2649 6.07327 15.2649 8.00001ZM14.0646 8.00001C14.0646 7.20361 13.9077 6.41501 13.603 5.67924C13.2982 4.94347 12.8515 4.27493 12.2883 3.71179C11.7252 3.14865 11.0567 2.70195 10.3209 2.39718C9.58512 2.09242 8.79653 1.93555 8.00013 1.93555C6.39174 1.93555 4.84922 2.57448 3.71191 3.71179C2.57461 4.8491 1.93568 6.39161 1.93568 8.00001C1.93568 9.6084 2.57461 11.1509 3.71191 12.2882C4.84922 13.4255 6.39174 14.0645 8.00013 14.0645C8.79653 14.0645 9.58512 13.9076 10.3209 13.6028C11.0567 13.2981 11.7252 12.8514 12.2883 12.2882C12.8515 11.7251 13.2982 11.0565 13.603 10.3208C13.9077 9.585 14.0646 8.7964 14.0646 8.00001Z" fill="#212636"/>
<path d="M9.28758 6.93893C9.47414 6.40063 9.14961 5.79173 8.74345 5.51772C7.95771 4.98719 7.0003 5.31432 6.63625 6.18687C6.48013 6.55998 6.06232 6.72193 5.72807 6.49909C5.36208 6.25488 5.43916 5.87399 5.616 5.51772C6.64661 3.43772 9.68985 3.6476 10.4095 5.85715C10.9569 7.53683 9.65617 8.67172 8.25439 9.188C8.07906 9.25235 7.93503 9.27264 7.82232 9.24889C7.3773 9.15432 7.19916 8.61731 7.49325 8.27982C7.55717 8.20684 7.6783 8.13407 7.85665 8.06152C8.32694 7.86978 9.11074 7.45132 9.28758 6.93893Z" fill="#212636"/>
<path d="M8.60106 11.3334C8.60106 11.492 8.53807 11.6441 8.42594 11.7562C8.31382 11.8683 8.16174 11.9313 8.00317 11.9313C7.8446 11.9313 7.69252 11.8683 7.58039 11.7562C7.46827 11.6441 7.40527 11.492 7.40527 11.3334C7.40527 11.1749 7.46827 11.0228 7.58039 10.9107C7.69252 10.7985 7.8446 10.7355 8.00317 10.7355C8.16174 10.7355 8.31382 10.7985 8.42594 10.9107C8.53807 11.0228 8.60106 11.1749 8.60106 11.3334Z" fill="#212636"/>
</g>
<defs>
<clipPath id="clip0_1022_6918">
<rect width="16" height="16" fill="white"/>
</clipPath>
</defs>
</svg>
