<svg width="16" height="16" viewBox="0 0 16 16" fill="none" xmlns="http://www.w3.org/2000/svg">
<path fill-rule="evenodd" clip-rule="evenodd" d="M7.9999 2.60002C6.56773 2.60002 5.19422 3.16895 4.18153 4.18165C3.16883 5.19434 2.5999 6.56786 2.5999 8.00002V8.73336H3.9999C4.51265 8.73336 5.00441 8.93705 5.36698 9.29962C5.72955 9.66219 5.93324 10.1539 5.93324 10.6667V12.6667C5.93324 13.1794 5.72955 13.6712 5.36698 14.0338C5.00441 14.3963 4.51265 14.6 3.9999 14.6H3.33324C2.82048 14.6 2.32873 14.3963 1.96616 14.0338C1.60359 13.6712 1.3999 13.1794 1.3999 12.6667V8.00002C1.3999 6.2496 2.09526 4.57086 3.333 3.33312C4.57074 2.09538 6.24947 1.40002 7.9999 1.40002C9.75033 1.40002 11.4291 2.09538 12.6668 3.33312C13.9045 4.57086 14.5999 6.2496 14.5999 8.00002V12.6667C14.5999 13.1794 14.3962 13.6712 14.0336 14.0338C13.6711 14.3963 13.1793 14.6 12.6666 14.6H11.9999C11.4872 14.6 10.9954 14.3963 10.6328 14.0338C10.2703 13.6712 10.0666 13.1794 10.0666 12.6667V10.6667C10.0666 10.1539 10.2703 9.66219 10.6328 9.29962C10.9954 8.93705 11.4872 8.73336 11.9999 8.73336H13.3999V8.00002C13.3999 6.56786 12.831 5.19434 11.8183 4.18165C10.8056 3.16895 9.43207 2.60002 7.9999 2.60002ZM13.3999 9.93336H11.9999C11.8054 9.93336 11.6189 10.0106 11.4814 10.1481C11.3438 10.2857 11.2666 10.4722 11.2666 10.6667V12.6667C11.2666 12.8612 11.3438 13.0477 11.4814 13.1852C11.6189 13.3228 11.8054 13.4 11.9999 13.4H12.6666C12.8611 13.4 13.0476 13.3228 13.1851 13.1852C13.3226 13.0477 13.3999 12.8612 13.3999 12.6667V9.93336ZM2.5999 9.93336V12.6667C2.5999 12.8612 2.67716 13.0477 2.81469 13.1852C2.95222 13.3228 3.13874 13.4 3.33324 13.4H3.9999C4.19439 13.4 4.38092 13.3228 4.51845 13.1852C4.65597 13.0477 4.73324 12.8612 4.73324 12.6667V10.6667C4.73324 10.4722 4.65597 10.2857 4.51845 10.1481C4.38092 10.0106 4.19439 9.93336 3.9999 9.93336H2.5999Z" fill="#212636"/>
</svg>
