<svg width="16" height="16" viewBox="0 0 16 16" fill="none" xmlns="http://www.w3.org/2000/svg">
<path fill-rule="evenodd" clip-rule="evenodd" d="M7.63154 0.859726C7.8482 0.691208 8.1516 0.691208 8.36827 0.859726L14.3683 5.52639C14.5144 5.64007 14.5999 5.81485 14.5999 6V13.3333C14.5999 13.8461 14.3962 14.3378 14.0336 14.7004C13.6711 15.063 13.1793 15.2667 12.6666 15.2667H3.33324C2.82048 15.2667 2.32873 15.063 1.96616 14.7004C1.60359 14.3378 1.3999 13.8461 1.3999 13.3333V6C1.3999 5.81485 1.48539 5.64007 1.63154 5.52639L7.63154 0.859726ZM2.5999 6.29345V13.3333C2.5999 13.5278 2.67716 13.7144 2.81469 13.8519C2.95222 13.9894 3.13874 14.0667 3.33324 14.0667H12.6666C12.8611 14.0667 13.0476 13.9894 13.1851 13.8519C13.3226 13.7144 13.3999 13.5278 13.3999 13.3333V6.29345L7.9999 2.09345L2.5999 6.29345Z" fill="#212636"/>
<path fill-rule="evenodd" clip-rule="evenodd" d="M5.3999 8C5.3999 7.66863 5.66853 7.4 5.9999 7.4H9.9999C10.3313 7.4 10.5999 7.66863 10.5999 8V14.6667C10.5999 14.998 10.3313 15.2667 9.9999 15.2667C9.66853 15.2667 9.3999 14.998 9.3999 14.6667V8.6H6.5999V14.6667C6.5999 14.998 6.33127 15.2667 5.9999 15.2667C5.66853 15.2667 5.3999 14.998 5.3999 14.6667V8Z" fill="#212636"/>
</svg>
