<svg width="16" height="16" viewBox="0 0 16 16" fill="none" xmlns="http://www.w3.org/2000/svg">
<path d="M2.59015 10.4219C2.2022 10.1203 1.46477 9.37777 1.25636 8.95757C0.504504 7.44037 1.54973 6.58714 2.54366 5.62325C3.34201 4.84861 4.25899 5.06993 4.77199 6.00335C5.74027 7.77075 7.5053 6.16213 6.50816 5.06673C6.28533 4.82134 5.92783 4.74596 5.69218 4.54549C4.90184 3.87189 5.0349 3.12611 5.72264 2.44449C6.61878 1.55438 7.31453 0.641809 8.71885 1.1422C8.98711 1.23736 9.29544 1.45868 9.64385 1.80618C9.90569 2.06599 10.1723 2.321 10.4438 2.57119C10.4606 2.58628 10.4803 2.59774 10.5016 2.60484C10.523 2.61193 10.5456 2.6145 10.5679 2.61239C10.5903 2.61027 10.6119 2.60352 10.6313 2.59256C10.6508 2.5816 10.6678 2.56668 10.6811 2.54874C10.7644 2.43754 10.8355 2.32207 10.8943 2.20232C11.8449 0.268121 14.6888 0.845493 14.9614 2.89356C15.1041 3.97293 14.4804 4.89672 13.4689 5.28805C13.4446 5.29757 13.423 5.31287 13.4059 5.33264C13.3889 5.35241 13.3769 5.37604 13.371 5.40149C13.3652 5.42693 13.3657 5.45342 13.3724 5.47865C13.3791 5.50388 13.3918 5.52709 13.4096 5.54627C14.3057 6.51657 15.4086 7.22225 14.8476 8.74106C14.6343 9.32324 13.2957 10.7362 12.6801 10.8581C11.861 11.0185 11.5067 10.4251 11.17 9.78514C10.4983 8.51011 8.59221 9.70335 9.45308 10.8629C9.76889 11.2879 10.4053 11.3473 10.7179 11.8557C10.9328 12.2032 10.9686 12.5464 10.8253 12.8853C10.6298 13.3456 9.36972 14.5661 8.89199 14.7858C7.39629 15.4723 6.49053 14.372 5.54629 13.413C5.5275 13.3941 5.50428 13.3801 5.47875 13.3725C5.45322 13.3648 5.42618 13.3636 5.40008 13.369C5.37398 13.3744 5.34964 13.3863 5.32926 13.4035C5.30889 13.4207 5.29312 13.4427 5.28338 13.4675C4.78482 14.7217 3.49752 15.3632 2.26472 14.7682C0.39389 13.8684 0.73375 11.4836 2.55489 10.6961C2.58057 10.6851 2.60294 10.6676 2.61979 10.6454C2.63663 10.6231 2.64737 10.5968 2.65093 10.5691C2.6545 10.5414 2.65076 10.5132 2.6401 10.4874C2.62944 10.4616 2.61222 10.439 2.59015 10.4219ZM12.4637 4.64011C12.6037 4.43269 12.7924 4.28888 13.0296 4.20869C15.096 3.50942 12.725 0.842285 11.8145 2.9096C11.4345 3.77405 10.431 4.14133 9.68232 3.42122C9.26231 3.01866 8.67397 2.26647 8.13692 2.17986C7.46362 2.07241 6.77588 2.97536 6.35587 3.40999C6.33744 3.42914 6.32406 3.45258 6.31693 3.47819C6.30981 3.5038 6.30916 3.53078 6.31504 3.55671C6.32092 3.58263 6.33315 3.60669 6.35063 3.62671C6.36811 3.64673 6.39029 3.66209 6.41518 3.67141C7.86119 4.20869 8.46877 5.87184 7.47163 7.14527C6.35907 8.56143 4.28464 8.01453 3.67867 6.41714C3.66918 6.39236 3.65369 6.37033 3.6336 6.35301C3.61351 6.3357 3.58944 6.32364 3.56354 6.31792C3.53765 6.3122 3.51074 6.31299 3.48523 6.32023C3.45972 6.32747 3.4364 6.34093 3.41736 6.3594C3.04383 6.72346 2.3064 7.31687 2.19258 7.79962C1.95372 8.82125 3.52637 9.32806 3.76043 10.2775C3.94478 11.0249 3.52798 11.482 2.90116 11.7931C0.991851 12.7394 3.26827 14.9382 4.17082 13.1932C4.51549 12.5277 4.87459 12.0754 5.71462 12.231C6.3222 12.3416 7.13498 13.4611 7.45239 13.6824C8.29724 14.271 9.11001 13.1131 9.65187 12.6271C9.67194 12.6088 9.68716 12.5859 9.69614 12.5603C9.70512 12.5347 9.70757 12.5073 9.70326 12.4806C9.69895 12.4539 9.68802 12.4289 9.67148 12.4077C9.65494 12.3865 9.63331 12.3698 9.60858 12.3593C6.45366 11.0024 8.82626 6.76516 11.4393 8.4652C11.8647 8.74213 12.172 9.11421 12.3611 9.58146C12.3709 9.606 12.3866 9.62777 12.4068 9.64485C12.4269 9.66192 12.4509 9.67376 12.4766 9.67932C12.5023 9.68488 12.529 9.68397 12.5541 9.67669C12.5793 9.66941 12.6022 9.65598 12.6208 9.63759C12.9233 9.34249 13.2231 9.03509 13.5202 8.7154C14.963 7.16612 11.1812 6.53421 12.4637 4.64011Z" fill="#212636"/>
</svg>
