<svg width="16" height="16" viewBox="0 0 16 16" fill="none" xmlns="http://www.w3.org/2000/svg">
<path fill-rule="evenodd" clip-rule="evenodd" d="M7.08892 10.0632C7.409 9.97741 7.73801 10.1674 7.82377 10.4874L8.64455 13.5506L11.7077 12.7298C12.0278 12.6441 12.3568 12.834 12.4426 13.1541C12.5283 13.4742 12.3384 13.8032 12.0183 13.889L8.37557 14.865C8.05549 14.9508 7.72649 14.7608 7.64073 14.4408L6.66466 10.798C6.57889 10.4779 6.76884 10.1489 7.08892 10.0632Z" fill="#212636"/>
<path fill-rule="evenodd" clip-rule="evenodd" d="M13.8536 4.52825C14.1406 4.69393 14.2389 5.06089 14.0732 5.34786L8.7399 14.5855C8.57421 14.8724 8.20726 14.9708 7.92028 14.8051C7.63331 14.6394 7.53498 14.2724 7.70067 13.9855L13.034 4.74786C13.1997 4.46089 13.5666 4.36256 13.8536 4.52825Z" fill="#212636"/>
<path fill-rule="evenodd" clip-rule="evenodd" d="M7.62482 1.13497C7.9449 1.04921 8.2739 1.23916 8.35967 1.55924L9.33574 5.20197C9.4215 5.52205 9.23155 5.85105 8.91147 5.93682C8.59139 6.02258 8.26239 5.83263 8.17663 5.51255L7.35585 2.44938L4.29267 3.27015C3.97259 3.35592 3.64359 3.16597 3.55782 2.84589C3.47206 2.52581 3.66201 2.19681 3.98209 2.11104L7.62482 1.13497Z" fill="#212636"/>
<path fill-rule="evenodd" clip-rule="evenodd" d="M8.08011 1.19491C8.36709 1.3606 8.46541 1.72755 8.29973 2.01453L2.9664 11.2521C2.80071 11.5391 2.43376 11.6374 2.14678 11.4717C1.8598 11.3061 1.76148 10.9391 1.92716 10.6521L7.2605 1.41453C7.42618 1.12755 7.79314 1.02923 8.08011 1.19491Z" fill="#212636"/>
</svg>
