<svg width="16" height="16" viewBox="0 0 16 16" fill="none" xmlns="http://www.w3.org/2000/svg">
<path fill-rule="evenodd" clip-rule="evenodd" d="M5.00007 7.26665C3.30639 7.26665 1.9334 8.63964 1.9334 10.3333C1.9334 12.027 3.30639 13.4 5.00007 13.4C6.69374 13.4 8.06673 12.027 8.06673 10.3333C8.06673 8.63964 6.69374 7.26665 5.00007 7.26665ZM0.733398 10.3333C0.733398 7.9769 2.64365 6.06665 5.00007 6.06665C7.35648 6.06665 9.26673 7.9769 9.26673 10.3333C9.26673 12.6897 7.35648 14.6 5.00007 14.6C2.64365 14.6 0.733398 12.6897 0.733398 10.3333Z" fill="#212636"/>
<path fill-rule="evenodd" clip-rule="evenodd" d="M14.4243 0.909073C14.6586 1.14339 14.6586 1.52329 14.4243 1.7576L8.02426 8.1576C7.78995 8.39192 7.41005 8.39192 7.17574 8.1576C6.94142 7.92329 6.94142 7.54339 7.17574 7.30907L13.5757 0.909073C13.8101 0.674759 14.1899 0.674759 14.4243 0.909073Z" fill="#212636"/>
<path fill-rule="evenodd" clip-rule="evenodd" d="M12.2425 2.24239C12.4768 2.00807 12.8567 2.00807 13.091 2.24239L15.091 4.24239C15.3253 4.4767 15.3253 4.8566 15.091 5.09091L12.7577 7.42425C12.5233 7.65856 12.1434 7.65856 11.9091 7.42425L9.90913 5.42425C9.67482 5.18993 9.67482 4.81003 9.90913 4.57572C10.1434 4.34141 10.5233 4.34141 10.7577 4.57572L12.3334 6.15146L13.8182 4.66665L12.2425 3.09091C12.0082 2.8566 12.0082 2.4767 12.2425 2.24239Z" fill="#212636"/>
</svg>
