<svg width="16" height="16" viewBox="0 0 16 16" fill="none" xmlns="http://www.w3.org/2000/svg">
<path fill-rule="evenodd" clip-rule="evenodd" d="M9.3999 2.00002C9.3999 1.66865 9.66853 1.40002 9.9999 1.40002H12.6666C13.1793 1.40002 13.6711 1.60371 14.0336 1.96628C14.3962 2.32885 14.5999 2.82061 14.5999 3.33336V12.6667C14.5999 13.1794 14.3962 13.6712 14.0336 14.0338C13.6711 14.3963 13.1793 14.6 12.6666 14.6H9.9999C9.66853 14.6 9.3999 14.3314 9.3999 14C9.3999 13.6687 9.66853 13.4 9.9999 13.4H12.6666C12.8611 13.4 13.0476 13.3228 13.1851 13.1852C13.3226 13.0477 13.3999 12.8612 13.3999 12.6667V3.33336C13.3999 3.13887 13.3226 2.95234 13.1851 2.81481C13.0476 2.67729 12.8611 2.60002 12.6666 2.60002H9.9999C9.66853 2.60002 9.3999 2.3314 9.3999 2.00002Z" fill="#212636"/>
<path fill-rule="evenodd" clip-rule="evenodd" d="M6.2423 4.24243C6.47662 4.00811 6.85652 4.00811 7.09083 4.24243L10.4242 7.57576C10.5367 7.68828 10.5999 7.84089 10.5999 8.00002C10.5999 8.15915 10.5367 8.31177 10.4242 8.42429L7.09083 11.7576C6.85652 11.9919 6.47662 11.9919 6.2423 11.7576C6.00799 11.5233 6.00799 11.1434 6.2423 10.9091L9.15137 8.00002L6.2423 5.09096C6.00799 4.85664 6.00799 4.47674 6.2423 4.24243Z" fill="#212636"/>
<path fill-rule="evenodd" clip-rule="evenodd" d="M1.3999 8.00002C1.3999 7.66865 1.66853 7.40002 1.9999 7.40002H9.9999C10.3313 7.40002 10.5999 7.66865 10.5999 8.00002C10.5999 8.33139 10.3313 8.60002 9.9999 8.60002H1.9999C1.66853 8.60002 1.3999 8.3314 1.3999 8.00002Z" fill="#212636"/>
</svg>
