<svg width="16" height="16" viewBox="0 0 16 16" fill="none" xmlns="http://www.w3.org/2000/svg">
<path fill-rule="evenodd" clip-rule="evenodd" d="M3.33324 7.93334C2.92823 7.93334 2.5999 8.26166 2.5999 8.66667V13.3333C2.5999 13.7383 2.92823 14.0667 3.33324 14.0667H12.6666C13.0716 14.0667 13.3999 13.7383 13.3999 13.3333V8.66667C13.3999 8.26166 13.0716 7.93334 12.6666 7.93334H3.33324ZM1.3999 8.66667C1.3999 7.59892 2.26549 6.73334 3.33324 6.73334H12.6666C13.7343 6.73334 14.5999 7.59892 14.5999 8.66667V13.3333C14.5999 14.4011 13.7343 15.2667 12.6666 15.2667H3.33324C2.26549 15.2667 1.3999 14.4011 1.3999 13.3333V8.66667Z" fill="#212636"/>
<path fill-rule="evenodd" clip-rule="evenodd" d="M7.9999 1.93334C7.27498 1.93334 6.57974 2.22131 6.06714 2.73391C5.55454 3.24651 5.26657 3.94175 5.26657 4.66667V7.33334C5.26657 7.66471 4.99794 7.93334 4.66657 7.93334C4.3352 7.93334 4.06657 7.66471 4.06657 7.33334V4.66667C4.06657 3.62349 4.48097 2.62303 5.21862 1.88538C5.95626 1.14774 6.95672 0.733337 7.9999 0.733337C9.04309 0.733337 10.0435 1.14774 10.7812 1.88538C11.5188 2.62303 11.9332 3.62349 11.9332 4.66667V7.33334C11.9332 7.66471 11.6646 7.93334 11.3332 7.93334C11.0019 7.93334 10.7332 7.66471 10.7332 7.33334V4.66667C10.7332 3.94175 10.4453 3.24651 9.93266 2.73391C9.42006 2.22131 8.72483 1.93334 7.9999 1.93334Z" fill="#212636"/>
</svg>
