<svg width="16" height="16" viewBox="0 0 16 16" fill="none" xmlns="http://www.w3.org/2000/svg">
<path fill-rule="evenodd" clip-rule="evenodd" d="M2.66681 3.26665C2.2618 3.26665 1.93347 3.59497 1.93347 3.99998V12C1.93347 12.405 2.2618 12.7333 2.66681 12.7333H13.3335C13.7385 12.7333 14.0668 12.405 14.0668 12V3.99998C14.0668 3.59497 13.7385 3.26665 13.3335 3.26665H2.66681ZM0.733474 3.99998C0.733474 2.93223 1.59906 2.06665 2.66681 2.06665H13.3335C14.4012 2.06665 15.2668 2.93223 15.2668 3.99998V12C15.2668 13.0677 14.4012 13.9333 13.3335 13.9333H2.66681C1.59906 13.9333 0.733474 13.0677 0.733474 12V3.99998Z" fill="#212636"/>
<path fill-rule="evenodd" clip-rule="evenodd" d="M0.827069 4.34485C1.00479 4.06517 1.37559 3.98252 1.65527 4.16024L7.63342 7.95907C7.74344 8.02764 7.87049 8.06399 8.00014 8.06399C8.1298 8.06399 8.25684 8.02764 8.36686 7.95907L8.36825 7.9582L14.345 4.16024C14.6247 3.98252 14.9955 4.06517 15.1732 4.34485C15.3509 4.62453 15.2683 4.99533 14.9886 5.17306L9.00537 8.97511C8.70407 9.16388 8.35569 9.26399 8.00014 9.26399C7.64459 9.26399 7.29622 9.16387 6.99492 8.9751L6.99167 8.97307L1.01168 5.17306C0.731998 4.99533 0.649345 4.62453 0.827069 4.34485Z" fill="#212636"/>
</svg>
