<svg width="16" height="16" viewBox="0 0 16 16" fill="none" xmlns="http://www.w3.org/2000/svg">
<path d="M7.33356 8.00007C7.33356 8.36826 7.63204 8.66673 8.00023 8.66673C8.36842 8.66673 8.66689 8.36826 8.66689 8.00007C8.66689 7.63188 8.36842 7.3334 8.00023 7.3334C7.63204 7.3334 7.33356 7.63188 7.33356 8.00007Z" fill="#212636"/>
<path fill-rule="evenodd" clip-rule="evenodd" d="M8.06689 8.00007C8.06689 7.96325 8.03705 7.9334 8.00023 7.9334C7.96341 7.9334 7.93356 7.96325 7.93356 8.00007C7.93356 8.03688 7.96341 8.06673 8.00023 8.06673C8.03705 8.06673 8.06689 8.03688 8.06689 8.00007ZM8.00023 6.7334C8.69979 6.7334 9.26689 7.3005 9.26689 8.00007C9.26689 8.69963 8.69979 9.26673 8.00023 9.26673C7.30067 9.26673 6.73356 8.69963 6.73356 8.00007C6.73356 7.3005 7.30067 6.7334 8.00023 6.7334Z" fill="#212636"/>
<path d="M12.0002 8.00007C12.0002 8.36826 12.2987 8.66673 12.6669 8.66673C13.0351 8.66673 13.3336 8.36826 13.3336 8.00007C13.3336 7.63188 13.0351 7.3334 12.6669 7.3334C12.2987 7.3334 12.0002 7.63188 12.0002 8.00007Z" fill="#212636"/>
<path fill-rule="evenodd" clip-rule="evenodd" d="M12.7336 8.00007C12.7336 7.96325 12.7037 7.9334 12.6669 7.9334C12.6301 7.9334 12.6002 7.96325 12.6002 8.00007C12.6002 8.03688 12.6301 8.06673 12.6669 8.06673C12.7037 8.06673 12.7336 8.03688 12.7336 8.00007ZM12.6669 6.7334C13.3665 6.7334 13.9336 7.3005 13.9336 8.00007C13.9336 8.69963 13.3665 9.26673 12.6669 9.26673C11.9673 9.26673 11.4002 8.69963 11.4002 8.00007C11.4002 7.3005 11.9673 6.7334 12.6669 6.7334Z" fill="#212636"/>
<path d="M2.66689 8.00006C2.66689 8.36825 2.96537 8.66673 3.33356 8.66673C3.70175 8.66673 4.00023 8.36825 4.00023 8.00007C4.00023 7.63188 3.70175 7.3334 3.33356 7.3334C2.96537 7.3334 2.66689 7.63188 2.66689 8.00006Z" fill="#212636"/>
<path fill-rule="evenodd" clip-rule="evenodd" d="M3.40023 8.00007C3.40023 7.96325 3.37038 7.9334 3.33356 7.9334C3.29674 7.9334 3.26689 7.96325 3.26689 8.00007C3.26689 8.03688 3.29674 8.06673 3.33356 8.06673C3.37038 8.06673 3.40023 8.03688 3.40023 8.00007ZM3.33356 6.7334C4.03312 6.7334 4.60023 7.3005 4.60023 8.00007C4.60023 8.69963 4.03312 9.26673 3.33356 9.26673C2.634 9.26673 2.06689 8.69963 2.06689 8.00007C2.06689 7.3005 2.634 6.7334 3.33356 6.7334Z" fill="#212636"/>
</svg>
