<svg width="16" height="16" viewBox="0 0 16 16" fill="none" xmlns="http://www.w3.org/2000/svg">
<path d="M8.00007 8.66665C8.36825 8.66665 8.66673 8.36817 8.66673 7.99998C8.66673 7.63179 8.36825 7.33332 8.00007 7.33332C7.63188 7.33332 7.3334 7.63179 7.3334 7.99998C7.3334 8.36817 7.63188 8.66665 8.00007 8.66665Z" fill="#212636"/>
<path fill-rule="evenodd" clip-rule="evenodd" d="M8.00007 7.93332C7.96325 7.93332 7.9334 7.96316 7.9334 7.99998C7.9334 8.0368 7.96325 8.06665 8.00007 8.06665C8.03688 8.06665 8.06673 8.0368 8.06673 7.99998C8.06673 7.96316 8.03688 7.93332 8.00007 7.93332ZM6.7334 7.99998C6.7334 7.30042 7.3005 6.73332 8.00007 6.73332C8.69963 6.73332 9.26673 7.30042 9.26673 7.99998C9.26673 8.69954 8.69963 9.26665 8.00007 9.26665C7.3005 9.26665 6.7334 8.69954 6.7334 7.99998Z" fill="#212636"/>
<path d="M8.00007 3.99998C8.36825 3.99998 8.66673 3.70151 8.66673 3.33332C8.66673 2.96513 8.36825 2.66665 8.00007 2.66665C7.63188 2.66665 7.3334 2.96513 7.3334 3.33332C7.3334 3.70151 7.63188 3.99998 8.00007 3.99998Z" fill="#212636"/>
<path fill-rule="evenodd" clip-rule="evenodd" d="M8.00007 3.26665C7.96325 3.26665 7.9334 3.2965 7.9334 3.33332C7.9334 3.37014 7.96325 3.39998 8.00007 3.39998C8.03688 3.39998 8.06673 3.37014 8.06673 3.33332C8.06673 3.2965 8.03688 3.26665 8.00007 3.26665ZM6.7334 3.33332C6.7334 2.63376 7.3005 2.06665 8.00007 2.06665C8.69963 2.06665 9.26673 2.63376 9.26673 3.33332C9.26673 4.03288 8.69963 4.59998 8.00007 4.59998C7.3005 4.59998 6.7334 4.03288 6.7334 3.33332Z" fill="#212636"/>
<path d="M8.00007 13.3333C8.36825 13.3333 8.66673 13.0348 8.66673 12.6667C8.66673 12.2985 8.36825 12 8.00007 12C7.63188 12 7.3334 12.2985 7.3334 12.6667C7.3334 13.0348 7.63188 13.3333 8.00007 13.3333Z" fill="#212636"/>
<path fill-rule="evenodd" clip-rule="evenodd" d="M8.00007 12.6C7.96325 12.6 7.9334 12.6298 7.9334 12.6666C7.9334 12.7035 7.96325 12.7333 8.00007 12.7333C8.03688 12.7333 8.06673 12.7035 8.06673 12.6666C8.06673 12.6298 8.03688 12.6 8.00007 12.6ZM6.7334 12.6666C6.7334 11.9671 7.3005 11.4 8.00007 11.4C8.69963 11.4 9.26673 11.9671 9.26673 12.6666C9.26673 13.3662 8.69963 13.9333 8.00007 13.9333C7.3005 13.9333 6.7334 13.3662 6.7334 12.6666Z" fill="#212636"/>
</svg>
