<svg width="16" height="16" viewBox="0 0 16 16" fill="none" xmlns="http://www.w3.org/2000/svg">
<path fill-rule="evenodd" clip-rule="evenodd" d="M1.29966 1.96628C1.66223 1.60371 2.15398 1.40002 2.66673 1.40002C3.17948 1.40002 3.67123 1.60371 4.0338 1.96628C4.39638 2.32885 4.60006 2.82061 4.60007 3.33336V12.6667C4.60007 12.8612 4.67733 13.0477 4.81485 13.1852C4.95238 13.3228 5.13891 13.4 5.3334 13.4C5.52789 13.4 5.71442 13.3228 5.85194 13.1852C5.98947 13.0477 6.06673 12.8612 6.06673 12.6667V11.3334C6.06673 11.002 6.33536 10.7334 6.66673 10.7334H14.6667C14.9981 10.7334 15.2667 11.002 15.2667 11.3334V12.6667C15.2667 13.1794 15.063 13.6712 14.7005 14.0338C14.3379 14.3963 13.8462 14.6 13.3334 14.6H5.3334C4.82065 14.6 4.3289 14.3963 3.96633 14.0338C3.60375 13.6712 3.40007 13.1794 3.40006 12.6667V5.93336H1.3334C1.00203 5.93336 0.733398 5.66473 0.733398 5.33336V3.33336C0.733398 2.82061 0.937088 2.32885 1.29966 1.96628ZM3.40006 4.73336V3.33336C3.40006 3.13887 3.3228 2.95234 3.18528 2.81481C3.04775 2.67729 2.86122 2.60002 2.66673 2.60002C2.47224 2.60002 2.28571 2.67729 2.14819 2.81481C2.01066 2.95234 1.9334 3.13887 1.9334 3.33336V4.73336H3.40006ZM7.12225 13.4H13.3334C13.5279 13.4 13.7144 13.3228 13.8519 13.1852C13.9895 13.0477 14.0667 12.8612 14.0667 12.6667V11.9334H7.26673V12.6667C7.26673 12.9207 7.21676 13.1695 7.12225 13.4Z" fill="#212636"/>
<path fill-rule="evenodd" clip-rule="evenodd" d="M2.06673 2.00002C2.06673 1.66865 2.33536 1.40002 2.66673 1.40002H11.3334C11.8462 1.40002 12.3379 1.60371 12.7005 1.96628C13.063 2.32885 13.2667 2.82061 13.2667 3.33336V11.3334C13.2667 11.6647 12.9981 11.9334 12.6667 11.9334C12.3354 11.9334 12.0667 11.6647 12.0667 11.3334V3.33336C12.0667 3.13887 11.9895 2.95234 11.8519 2.81481C11.7144 2.67729 11.5279 2.60002 11.3334 2.60002H2.66673C2.33536 2.60002 2.06673 2.3314 2.06673 2.00002Z" fill="#212636"/>
<path fill-rule="evenodd" clip-rule="evenodd" d="M6.701 5.02349C6.76314 4.98978 6.83885 4.99248 6.89841 5.03052L10.5113 7.33821C10.5667 7.3736 10.6002 7.43454 10.6002 7.49998C10.6002 7.56541 10.5667 7.62636 10.5113 7.66174L6.89841 9.96943C6.83885 10.0075 6.76314 10.0102 6.701 9.97646C6.63885 9.94275 6.6002 9.87802 6.6002 9.80767V5.19228C6.6002 5.12194 6.63885 5.0572 6.701 5.02349ZM6.98729 5.54453V9.45542L10.0487 7.49998L6.98729 5.54453Z" fill="#212636"/>
<path fill-rule="evenodd" clip-rule="evenodd" d="M6.56987 4.78177C6.71991 4.70038 6.90253 4.70684 7.04644 4.79876L10.6593 7.10645C10.7934 7.19208 10.8752 7.34016 10.8752 7.49998C10.8752 7.65979 10.7934 7.80787 10.6593 7.8935L7.04644 10.2012C6.90253 10.2931 6.71991 10.2996 6.56987 10.2182C6.41963 10.1367 6.3252 9.97951 6.3252 9.80767V5.19228C6.3252 5.02044 6.41963 4.86327 6.56987 4.78177ZM7.26229 6.04649V8.95346L9.53786 7.49998L7.26229 6.04649Z" fill="#212636"/>
</svg>
