<svg width="16" height="16" viewBox="0 0 16 16" fill="none" xmlns="http://www.w3.org/2000/svg">
<g clip-path="url(#clip0_1165_7700)">
<path d="M15 9.23384H9M9 12.9755H15M13.4279 14.4877L13.9518 13.9755L14.9996 12.9511L13.9518 11.9266L13.4279 11.4144M10.7326 10.9517L10.1552 10.3872L9.00038 9.25813L10.1552 8.12905L10.7326 7.56451" stroke="#212636" stroke-width="1.2" stroke-linecap="round" stroke-linejoin="round"/>
<path d="M7.66654 9.78135C7.50935 9.87487 7.37879 10.0094 7.28796 10.1713C7.19713 10.3332 7.14922 10.517 7.14903 10.704V10.8C7.14903 11.0829 7.03998 11.3542 6.84588 11.5543C6.65178 11.7543 6.38852 11.8667 6.11401 11.8667H5.88631C5.61181 11.8667 5.34855 11.7543 5.15444 11.5543C4.96034 11.3542 4.8513 11.0829 4.8513 10.8V10.704C4.85111 10.517 4.8032 10.3332 4.71236 10.1713C4.62153 10.0094 4.49097 9.87487 4.33379 9.78135L4.11126 9.64801C3.95392 9.55439 3.77544 9.50511 3.59375 9.50511C3.41207 9.50511 3.23359 9.55439 3.07624 9.64801L2.99862 9.69068C2.76112 9.83187 2.47896 9.87018 2.21408 9.79718C1.9492 9.72419 1.72325 9.54586 1.58582 9.30135L1.47197 9.09868C1.33497 8.85391 1.2978 8.56313 1.36863 8.29015C1.43946 8.01717 1.61249 7.78431 1.84975 7.64268L1.92738 7.59468C2.08533 7.5007 2.21637 7.36538 2.30725 7.20242C2.39813 7.03945 2.44561 6.85464 2.44489 6.66668V6.39468C2.44379 6.20853 2.39545 6.02592 2.30467 5.86499C2.21388 5.70406 2.08381 5.57042 1.92738 5.47735L1.84975 5.42401C1.61249 5.28238 1.43946 5.04952 1.36863 4.77655C1.2978 4.50357 1.33497 4.21278 1.47197 3.96801L1.58582 3.76535C1.72325 3.52083 1.9492 3.3425 2.21408 3.26951C2.47896 3.19652 2.76112 3.23482 2.99862 3.37601L3.07624 3.41868C3.23359 3.5123 3.41207 3.56159 3.59375 3.56159C3.77544 3.56159 3.95392 3.5123 4.11126 3.41868L4.33379 3.28535C4.49097 3.19182 4.62153 3.05734 4.71236 2.89539C4.8032 2.73345 4.85111 2.54973 4.8513 2.36268V2.26668C4.8513 1.98378 4.96034 1.71247 5.15444 1.51243C5.34855 1.31239 5.61181 1.20001 5.88631 1.20001H6.11401C6.38852 1.20001 6.65178 1.31239 6.84588 1.51243C7.03998 1.71247 7.14903 1.98378 7.14903 2.26668V2.36268C7.14922 2.54973 7.19713 2.73345 7.28796 2.89539C7.37879 3.05734 7.50935 3.19182 7.66654 3.28535L7.88907 3.41868C8.04641 3.5123 8.22489 3.56159 8.40657 3.56159C8.58826 3.56159 8.76674 3.5123 8.92408 3.41868L9.00171 3.37601C9.23921 3.23482 9.52137 3.19652 9.78625 3.26951C10.0511 3.3425 10.2771 3.52083 10.4145 3.76535L10.5284 3.96801C10.6654 4.21278 10.7025 4.50357 10.6317 4.77655C10.5609 5.04952 10.3878 5.28238 10.1506 5.42401L10.0729 5.47201C9.915 5.56599 9.78395 5.70131 9.69307 5.86427C9.6022 6.02724 9.55472 6.21206 9.55544 6.40001V6.66668M7.3335 6.53335C7.3335 7.26973 6.73654 7.86668 6.00016 7.86668C5.26378 7.86668 4.66683 7.26973 4.66683 6.53335C4.66683 5.79697 5.26378 5.20001 6.00016 5.20001C6.73654 5.20001 7.3335 5.79697 7.3335 6.53335Z" stroke="#212636" stroke-width="1.2" stroke-linecap="round" stroke-linejoin="round"/>
</g>
<defs>
<clipPath id="clip0_1165_7700">
<rect width="16" height="16" fill="white"/>
</clipPath>
</defs>
</svg>
