<svg width="16" height="16" viewBox="0 0 16 16" fill="none" xmlns="http://www.w3.org/2000/svg">
<path d="M9.15056 9.79904C9.18581 9.82202 9.22866 9.83034 9.26997 9.82221C9.31128 9.81407 9.34777 9.79014 9.37166 9.75551C10.432 8.22242 11.7392 9.01879 13.1207 9.31057C15.3123 9.77002 14.9815 11.0484 14.9831 12.8362C14.9831 14.6998 13.855 15.2157 12.1766 14.9239C6.26011 13.8954 1.82842 9.20257 1.02955 3.32973C0.893987 2.33453 1.22483 1.63865 2.02208 1.24208C2.68054 0.914822 5.06746 0.918047 5.70655 1.25981C6.76687 1.82888 6.72168 3.12983 7.0267 4.17124C7.34947 5.27068 7.1784 5.97033 6.25366 6.65224C6.22039 6.67652 6.19769 6.71259 6.19018 6.75305C6.18268 6.79351 6.19096 6.83531 6.21331 6.86987C6.98797 8.05637 7.96705 9.03276 9.15056 9.79904ZM10.2383 10.4922C10.1738 10.5825 9.99084 10.7486 9.68959 10.9904C9.45074 11.1817 9.20758 11.2037 8.96012 11.0565C7.24511 10.0344 5.90237 8.67864 4.93189 6.98917C4.79633 6.75273 4.82646 6.53295 5.02227 6.32982L5.8744 5.44963C6.01857 5.30131 6.053 5.07508 5.97768 4.77094L5.47577 2.74293C5.394 2.41406 5.22777 2.23996 4.97708 2.22061C4.41868 2.17548 2.05113 1.88691 2.14797 2.89769C2.69184 8.60609 7.25587 13.099 12.9206 13.8583C14.2181 14.0324 13.8114 11.898 13.8098 11.158C13.8098 10.8367 13.6204 10.6282 13.2417 10.5325L11.0033 9.96992C10.9717 9.96257 10.9386 9.96482 10.9081 9.97637C10.6337 10.0785 10.4105 10.2504 10.2383 10.4922Z" fill="#212636"/>
</svg>
