<svg width="16" height="16" viewBox="0 0 16 16" fill="none" xmlns="http://www.w3.org/2000/svg">
<path fill-rule="evenodd" clip-rule="evenodd" d="M2.63315 1.2996C2.99573 0.937027 3.48748 0.733337 4.00023 0.733337H9.66689C9.82602 0.733337 9.97864 0.796552 10.0912 0.909073L13.7578 4.57574C13.8703 4.68826 13.9336 4.84087 13.9336 5V13.3333C13.9336 13.8461 13.7299 14.3378 13.3673 14.7004C13.0047 15.063 12.513 15.2667 12.0002 15.2667H4.00023C3.48748 15.2667 2.99572 15.063 2.63315 14.7004C2.27058 14.3378 2.06689 13.8461 2.06689 13.3333V2.66667C2.06689 2.15392 2.27058 1.66217 2.63315 1.2996ZM4.00023 1.93334C3.80574 1.93334 3.61921 2.0106 3.48168 2.14813C3.34416 2.28565 3.26689 2.47218 3.26689 2.66667V13.3333C3.26689 13.5278 3.34416 13.7144 3.48168 13.8519C3.61921 13.9894 3.80574 14.0667 4.00023 14.0667H12.0002C12.1947 14.0667 12.3812 13.9894 12.5188 13.8519C12.6563 13.7144 12.7336 13.5278 12.7336 13.3333V5.24853L9.41837 1.93334H4.00023Z" fill="#212636"/>
<path fill-rule="evenodd" clip-rule="evenodd" d="M9.33356 0.733337C9.66493 0.733337 9.93356 1.00197 9.93356 1.33334V4.73334H13.3336C13.6649 4.73334 13.9336 5.00197 13.9336 5.33334C13.9336 5.66471 13.6649 5.93334 13.3336 5.93334H9.33356C9.00219 5.93334 8.73356 5.66471 8.73356 5.33334V1.33334C8.73356 1.00197 9.00219 0.733337 9.33356 0.733337Z" fill="#212636"/>
<path fill-rule="evenodd" clip-rule="evenodd" d="M4.73356 8.66667C4.73356 8.3353 5.00219 8.06667 5.33356 8.06667H6.66689C6.99827 8.06667 7.26689 8.3353 7.26689 8.66667C7.26689 8.99804 6.99827 9.26667 6.66689 9.26667H5.33356C5.00219 9.26667 4.73356 8.99804 4.73356 8.66667Z" fill="#212636"/>
<path fill-rule="evenodd" clip-rule="evenodd" d="M4.73356 11.3333C4.73356 11.002 5.00219 10.7333 5.33356 10.7333H6.66689C6.99827 10.7333 7.26689 11.002 7.26689 11.3333C7.26689 11.6647 6.99827 11.9333 6.66689 11.9333H5.33356C5.00219 11.9333 4.73356 11.6647 4.73356 11.3333Z" fill="#212636"/>
<path fill-rule="evenodd" clip-rule="evenodd" d="M8.73356 8.66667C8.73356 8.3353 9.00219 8.06667 9.33356 8.06667H10.6669C10.9983 8.06667 11.2669 8.3353 11.2669 8.66667C11.2669 8.99804 10.9983 9.26667 10.6669 9.26667H9.33356C9.00219 9.26667 8.73356 8.99804 8.73356 8.66667Z" fill="#212636"/>
<path fill-rule="evenodd" clip-rule="evenodd" d="M8.73356 11.3333C8.73356 11.002 9.00219 10.7333 9.33356 10.7333H10.6669C10.9983 10.7333 11.2669 11.002 11.2669 11.3333C11.2669 11.6647 10.9983 11.9333 10.6669 11.9333H9.33356C9.00219 11.9333 8.73356 11.6647 8.73356 11.3333Z" fill="#212636"/>
</svg>
