<svg width="16" height="16" viewBox="0 0 16 16" fill="none" xmlns="http://www.w3.org/2000/svg">
<path d="M9.33333 10.0333C9.33333 10.2174 9.48257 10.3667 9.66667 10.3667C9.85076 10.3667 10 10.2174 10 10.0333C10 9.84925 9.85076 9.70001 9.66667 9.70001C9.48257 9.70001 9.33333 9.84925 9.33333 10.0333Z" fill="#212636"/>
<path d="M11.3333 10.0333C11.3333 10.2174 11.4826 10.3667 11.6667 10.3667C11.8508 10.3667 12 10.2174 12 10.0333C12 9.84925 11.8508 9.70001 11.6667 9.70001C11.4826 9.70001 11.3333 9.84925 11.3333 10.0333Z" fill="#212636"/>
<path d="M7.33333 10.0333C7.33333 10.2174 7.48257 10.3667 7.66667 10.3667C7.85076 10.3667 8 10.2174 8 10.0333C8 9.84925 7.85076 9.70001 7.66667 9.70001C7.48257 9.70001 7.33333 9.84925 7.33333 10.0333Z" fill="#212636"/>
<path fill-rule="evenodd" clip-rule="evenodd" d="M3.33324 2.60002C2.92823 2.60002 2.5999 2.92835 2.5999 3.33336V12.6667C2.5999 13.0717 2.92823 13.4 3.33324 13.4H12.6666C13.0716 13.4 13.3999 13.0717 13.3999 12.6667V3.33336C13.3999 2.92835 13.0716 2.60002 12.6666 2.60002H3.33324ZM1.3999 3.33336C1.3999 2.26561 2.26549 1.40002 3.33324 1.40002H12.6666C13.7343 1.40002 14.5999 2.26561 14.5999 3.33336V12.6667C14.5999 13.7344 13.7343 14.6 12.6666 14.6H3.33324C2.26549 14.6 1.3999 13.7344 1.3999 12.6667V3.33336Z" fill="#212636"/>
<path fill-rule="evenodd" clip-rule="evenodd" d="M8.33272 4.50079C8.60844 4.68461 8.68294 5.05713 8.49913 5.33284L5.1658 10.3328C4.98199 10.6086 4.60947 10.6831 4.33375 10.4993C4.05803 10.3154 3.98353 9.94292 4.16734 9.6672L7.50067 4.6672C7.68448 4.39149 8.057 4.31698 8.33272 4.50079Z" fill="#212636"/>
<path fill-rule="evenodd" clip-rule="evenodd" d="M9.7499 10.0334C9.7499 9.98733 9.71259 9.95002 9.66657 9.95002C9.62055 9.95002 9.58324 9.98733 9.58324 10.0334C9.58324 10.0794 9.62055 10.1167 9.66657 10.1167C9.71259 10.1167 9.7499 10.0794 9.7499 10.0334ZM9.66657 9.45002C9.98874 9.45002 10.2499 9.71119 10.2499 10.0334C10.2499 10.3555 9.98874 10.6167 9.66657 10.6167C9.3444 10.6167 9.08324 10.3555 9.08324 10.0334C9.08324 9.71119 9.3444 9.45002 9.66657 9.45002Z" fill="#212636"/>
<path fill-rule="evenodd" clip-rule="evenodd" d="M11.7499 10.0334C11.7499 9.98733 11.7126 9.95002 11.6666 9.95002C11.6205 9.95002 11.5832 9.98733 11.5832 10.0334C11.5832 10.0794 11.6205 10.1167 11.6666 10.1167C11.7126 10.1167 11.7499 10.0794 11.7499 10.0334ZM11.6666 9.45002C11.9887 9.45002 12.2499 9.71119 12.2499 10.0334C12.2499 10.3555 11.9887 10.6167 11.6666 10.6167C11.3444 10.6167 11.0832 10.3555 11.0832 10.0334C11.0832 9.71119 11.3444 9.45002 11.6666 9.45002Z" fill="#212636"/>
<path fill-rule="evenodd" clip-rule="evenodd" d="M7.7499 10.0334C7.7499 9.98733 7.71259 9.95002 7.66657 9.95002C7.62055 9.95002 7.58324 9.98733 7.58324 10.0334C7.58324 10.0794 7.62055 10.1167 7.66657 10.1167C7.71259 10.1167 7.7499 10.0794 7.7499 10.0334ZM7.66657 9.45002C7.98874 9.45002 8.2499 9.71119 8.2499 10.0334C8.2499 10.3555 7.98874 10.6167 7.66657 10.6167C7.3444 10.6167 7.08324 10.3555 7.08324 10.0334C7.08324 9.71119 7.3444 9.45002 7.66657 9.45002Z" fill="#212636"/>
</svg>
