<svg width="16" height="16" viewBox="0 0 16 16" fill="none" xmlns="http://www.w3.org/2000/svg">
<path d="M11.3597 8.94079C11.5922 9.9151 11.7137 10.952 11.4053 11.8516C11.147 12.6056 10.4409 13.1115 9.7298 13.4177C9.12288 13.6793 8.59074 13.8466 8.13338 13.9196C7.69494 13.9893 7.40623 13.7055 7.40712 13.2827C7.4098 12.2786 7.40876 11.2744 7.40399 10.27C7.4037 10.2548 7.39818 10.2418 7.38746 10.2311L5.77405 8.61722C5.76303 8.6062 5.74962 8.60068 5.73383 8.60068C4.72854 8.59085 3.72414 8.58832 2.72064 8.59309C2.19193 8.59577 2.01405 8.22973 2.1079 7.75554C2.29383 6.81387 2.73673 5.60269 3.47059 4.98817C4.43416 4.18102 5.93897 4.37454 7.06656 4.64001C7.08206 4.64359 7.09442 4.63897 7.10366 4.62616C7.34887 4.29394 7.5479 4.04173 7.70075 3.86951C9.43796 1.91376 11.8625 0.770516 14.486 0.736549C14.9995 0.730292 15.2646 0.906382 15.2614 1.43331C15.2418 4.50191 13.821 7.11554 11.3754 8.89744C11.3605 8.90817 11.3553 8.92262 11.3597 8.94079ZM8.14947 5.24292C7.60243 5.99197 7.09874 6.91711 6.71796 7.8275C6.70872 7.84955 6.71245 7.86891 6.72913 7.8856L8.12489 9.28135C8.13532 9.29148 8.14723 9.29387 8.16064 9.2885C9.72355 8.64404 11.1153 7.79487 12.2085 6.51219C13.2981 5.23353 13.922 3.66392 14.0409 1.97945C14.0418 1.96396 14.0346 1.95681 14.0194 1.958C11.6534 2.1332 9.54612 3.33007 8.14947 5.24292ZM6.40109 5.7551C6.40248 5.75263 6.40328 5.74988 6.40343 5.74705C6.40358 5.74422 6.40307 5.7414 6.40195 5.7388C6.40082 5.7362 6.39911 5.7339 6.39694 5.73207C6.39478 5.73025 6.39222 5.72895 6.38947 5.72828C5.69182 5.56962 4.52802 5.46012 4.0574 6.10191C3.78567 6.47227 3.58545 6.89595 3.45673 7.37297C3.45316 7.38698 3.45867 7.39413 3.47327 7.39443L5.5345 7.40917C5.57174 7.40947 5.59751 7.39249 5.61181 7.35823C5.84392 6.8085 6.10701 6.27413 6.40109 5.7551ZM8.59461 12.5256C8.59461 12.5462 8.60459 12.5538 8.62455 12.5484C9.22969 12.3812 10.1919 11.9817 10.3273 11.2849C10.4266 10.7733 10.4075 10.2198 10.2701 9.62415C10.2666 9.60895 10.2579 9.60523 10.2442 9.61297C9.72101 9.90616 9.18202 10.1673 8.62723 10.3964C8.61263 10.4024 8.60533 10.4131 8.60533 10.4286L8.59461 12.5256Z" fill="#212636"/>
<path d="M5.92911 12.3039C5.70609 14.0478 3.46296 14.6266 2.05916 14.8782C1.64084 14.9528 1.23101 14.9707 1.10363 14.5131C1.07145 14.3972 1.07294 14.2339 1.1081 14.0232C1.28866 12.9452 1.63011 11.688 2.32687 10.8295C3.59793 9.26211 6.19011 10.2664 5.92911 12.3039ZM2.43816 13.57C3.09514 13.4252 3.79011 13.1942 4.34252 12.8C4.95436 12.3642 4.85782 11.3372 4.02207 11.263C3.02944 11.1745 2.59101 12.8532 2.43011 13.562C2.42986 13.5631 2.42989 13.5643 2.4302 13.5654C2.43051 13.5665 2.4311 13.5674 2.4319 13.5683C2.43271 13.5691 2.4337 13.5696 2.4348 13.57C2.43589 13.5703 2.43705 13.5703 2.43816 13.57Z" fill="#212636"/>
</svg>
