<svg width="16" height="16" viewBox="0 0 16 16" fill="none" xmlns="http://www.w3.org/2000/svg">
<path fill-rule="evenodd" clip-rule="evenodd" d="M1.99995 0.733337C2.33132 0.733337 2.59995 1.00197 2.59995 1.33334V4.73334H5.99995C6.33132 4.73334 6.59995 5.00197 6.59995 5.33334C6.59995 5.66471 6.33132 5.93334 5.99995 5.93334H1.99995C1.66858 5.93334 1.39995 5.66471 1.39995 5.33334V1.33334C1.39995 1.00197 1.66858 0.733337 1.99995 0.733337Z" fill="#212636"/>
<path fill-rule="evenodd" clip-rule="evenodd" d="M7.59625 1.44547C9.07316 1.36246 10.5351 1.778 11.7476 2.62542C12.96 3.47284 13.8527 4.70299 14.2822 6.11849C14.7118 7.53398 14.6534 9.05275 14.1163 10.4311C13.5793 11.8094 12.5949 12.9673 11.3209 13.7191C10.047 14.4709 8.55739 14.773 7.09122 14.5768C5.62505 14.3806 4.2673 13.6975 3.23583 12.6372C2.20437 11.5769 1.559 10.2008 1.40329 8.72983C1.3684 8.4003 1.60726 8.10489 1.93679 8.07C2.26632 8.03512 2.56174 8.27398 2.59662 8.60351C2.72402 9.80707 3.25205 10.9329 4.09598 11.8005C4.9399 12.668 6.05079 13.2268 7.25038 13.3874C8.44998 13.5479 9.66872 13.3008 10.711 12.6857C11.7534 12.0706 12.5588 11.1231 12.9982 9.99543C13.4376 8.86771 13.4854 7.62509 13.1339 6.46696C12.7825 5.30883 12.0521 4.30233 11.0601 3.60899C10.0681 2.91565 8.87197 2.57566 7.66359 2.64358C6.45623 2.71144 5.30662 3.18258 4.39891 3.98149L2.40133 5.77931C2.15502 6.00099 1.77565 5.98102 1.55397 5.73472C1.3323 5.48841 1.35227 5.10904 1.59857 4.88736L3.60326 3.08314C4.71312 2.1052 6.11935 1.52848 7.59625 1.44547Z" fill="#212636"/>
</svg>
