<svg width="16" height="16" viewBox="0 0 16 16" fill="none" xmlns="http://www.w3.org/2000/svg">
<path fill-rule="evenodd" clip-rule="evenodd" d="M7.4999 3.60002C5.34599 3.60002 3.5999 5.34611 3.5999 7.50002C3.5999 9.65393 5.34599 11.4 7.4999 11.4C9.65381 11.4 11.3999 9.65393 11.3999 7.50002C11.3999 5.34611 9.65381 3.60002 7.4999 3.60002ZM2.3999 7.50002C2.3999 4.68337 4.68325 2.40002 7.4999 2.40002C10.3166 2.40002 12.5999 4.68337 12.5999 7.50002C12.5999 10.3167 10.3166 12.6 7.4999 12.6C4.68325 12.6 2.3999 10.3167 2.3999 7.50002Z" fill="#212636"/>
<path fill-rule="evenodd" clip-rule="evenodd" d="M10.5756 10.5758C10.81 10.3414 11.1899 10.3414 11.4242 10.5758L13.4242 12.5758C13.6585 12.8101 13.6585 13.19 13.4242 13.4243C13.1899 13.6586 12.81 13.6586 12.5756 13.4243L10.5756 11.4243C10.3413 11.19 10.3413 10.8101 10.5756 10.5758Z" fill="#212636"/>
</svg>
