<svg width="16" height="16" viewBox="0 0 16 16" fill="none" xmlns="http://www.w3.org/2000/svg">
<path fill-rule="evenodd" clip-rule="evenodd" d="M7.78955 0.77154C7.92538 0.720603 8.07507 0.720603 8.2109 0.77154L13.5442 2.77154C13.7784 2.85936 13.9336 3.08323 13.9336 3.33334V8C13.9336 10.2679 12.4312 12.0868 11.062 13.2849C10.3648 13.8949 9.67044 14.372 9.15156 14.6963C8.8915 14.8588 8.67392 14.984 8.51998 15.0692C8.44298 15.1118 8.38178 15.1445 8.33902 15.167C8.31764 15.1782 8.30086 15.1869 8.28901 15.1929L8.27497 15.2001L8.27079 15.2022L8.26943 15.2029C8.26923 15.203 8.26856 15.2033 8.00023 14.6667C7.7319 15.2033 7.73172 15.2032 7.73152 15.2031L7.72966 15.2022L7.72549 15.2001L7.71144 15.1929C7.69959 15.1869 7.68281 15.1782 7.66143 15.167C7.61868 15.1445 7.55748 15.1118 7.48047 15.0692C7.32653 14.984 7.10896 14.8588 6.84889 14.6963C6.33002 14.372 5.63565 13.8949 4.93846 13.2849C3.56928 12.0868 2.06689 10.2679 2.06689 8V3.33334C2.06689 3.08323 2.22204 2.85936 2.45622 2.77154L7.78955 0.77154ZM8.00023 14.6667L7.73152 15.2031C7.90044 15.2876 8.10051 15.2873 8.26943 15.2029L8.00023 14.6667ZM8.00022 13.9851C8.1331 13.9103 8.30923 13.8077 8.51556 13.6787C8.99669 13.378 9.63565 12.9384 10.2718 12.3818C11.5693 11.2465 12.7336 9.73214 12.7336 8V3.74914L8.00023 1.97414L3.26689 3.74914V8C3.26689 9.73214 4.43118 11.2465 5.72866 12.3818C6.3648 12.9384 7.00377 13.378 7.48489 13.6787C7.69123 13.8077 7.86735 13.9103 8.00022 13.9851Z" fill="#212636"/>
<path fill-rule="evenodd" clip-rule="evenodd" d="M5.77388 8.37457C6.34324 7.69135 7.14143 7.28 8.00258 7.28C8.86372 7.28 9.66192 7.69135 10.2313 8.37457C10.5253 8.72734 10.7479 9.13927 10.8944 9.58022C10.9988 9.8947 10.8285 10.2343 10.5141 10.3388C10.1996 10.4432 9.85997 10.2729 9.75552 9.95845C9.65286 9.64936 9.50044 9.37203 9.30941 9.14279C8.94109 8.7008 8.46752 8.48 8.00258 8.48C7.53764 8.48 7.06407 8.7008 6.69574 9.14279C6.50472 9.37203 6.3523 9.64936 6.24964 9.95845C6.14519 10.2729 5.80558 10.4432 5.4911 10.3388C5.17662 10.2343 5.00636 9.8947 5.1108 9.58022C5.25726 9.13927 5.47991 8.72734 5.77388 8.37457Z" fill="#212636"/>
<path fill-rule="evenodd" clip-rule="evenodd" d="M8.00258 5.48C7.50552 5.48 7.10258 5.88295 7.10258 6.38C7.10258 6.87706 7.50552 7.28 8.00258 7.28C8.49964 7.28 8.90258 6.87706 8.90258 6.38C8.90258 5.88295 8.49963 5.48 8.00258 5.48ZM5.90258 6.38C5.90258 5.22021 6.84278 4.28 8.00258 4.28C9.16238 4.28 10.1026 5.22021 10.1026 6.38C10.1026 7.5398 9.16238 8.48 8.00258 8.48C6.84278 8.48 5.90258 7.5398 5.90258 6.38Z" fill="#212636"/>
</svg>
