<svg width="16" height="16" viewBox="0 0 16 16" fill="none" xmlns="http://www.w3.org/2000/svg">
<path fill-rule="evenodd" clip-rule="evenodd" d="M1.9999 1.40002C2.33127 1.40002 2.5999 1.66865 2.5999 2.00002V13.4H13.9999C14.3313 13.4 14.5999 13.6687 14.5999 14C14.5999 14.3314 14.3313 14.6 13.9999 14.6H1.9999C1.66853 14.6 1.3999 14.3314 1.3999 14V2.00002C1.3999 1.66865 1.66853 1.40002 1.9999 1.40002Z" fill="#212636"/>
<path fill-rule="evenodd" clip-rule="evenodd" d="M13.0908 5.57576C13.3251 5.81007 13.3251 6.18997 13.0908 6.42429L9.7575 9.75762C9.52319 9.99194 9.14329 9.99194 8.90897 9.75762L6.66657 7.51522L5.09083 9.09096C4.85652 9.32527 4.47662 9.32527 4.2423 9.09095C4.00799 8.85664 4.00799 8.47674 4.2423 8.24243L6.2423 6.24243C6.47662 6.00811 6.85652 6.00811 7.09083 6.24243L9.33324 8.48483L12.2423 5.57576C12.4766 5.34145 12.8565 5.34145 13.0908 5.57576Z" fill="#212636"/>
</svg>
