<svg width="16" height="16" viewBox="0 0 16 16" fill="none" xmlns="http://www.w3.org/2000/svg">
<path fill-rule="evenodd" clip-rule="evenodd" d="M7.78955 0.77154C7.92538 0.720603 8.07507 0.720603 8.2109 0.77154L13.5442 2.77154C13.7784 2.85936 13.9336 3.08323 13.9336 3.33334V8C13.9336 10.2679 12.4312 12.0868 11.062 13.2849C10.3648 13.8949 9.67044 14.372 9.15156 14.6963C8.8915 14.8588 8.67392 14.984 8.51998 15.0692C8.44298 15.1118 8.38178 15.1445 8.33902 15.167C8.32515 15.1743 8.31321 15.1805 8.3033 15.1856C8.29794 15.1884 8.29317 15.1908 8.28901 15.1929L8.27497 15.2001L8.27079 15.2022L8.26943 15.2029L8.26893 15.2031C8.26873 15.2032 8.26856 15.2033 8.00023 14.6667C7.7319 15.2033 7.73172 15.2032 7.73152 15.2031L7.73102 15.2029L7.72966 15.2022L7.72549 15.2001L7.71144 15.1929C7.69959 15.1869 7.68281 15.1782 7.66143 15.167C7.61868 15.1445 7.55748 15.1118 7.48047 15.0692C7.32653 14.984 7.10896 14.8588 6.84889 14.6963C6.33002 14.372 5.63565 13.8949 4.93846 13.2849C3.56928 12.0868 2.06689 10.2679 2.06689 8V3.33334C2.06689 3.08323 2.22204 2.85936 2.45622 2.77154L7.78955 0.77154ZM8.00023 14.6667L7.7319 15.2033C7.90082 15.2878 8.09964 15.2878 8.26856 15.2033L8.00023 14.6667ZM8.00022 13.9851C8.1331 13.9103 8.30923 13.8077 8.51556 13.6787C8.99669 13.378 9.63565 12.9384 10.2718 12.3818C11.5693 11.2465 12.7336 9.73214 12.7336 8V3.74914L8.00023 1.97414L3.26689 3.74914V8C3.26689 9.73214 4.43118 11.2465 5.72866 12.3818C6.3648 12.9384 7.00377 13.378 7.48489 13.6787C7.69123 13.8077 7.86735 13.9103 8.00022 13.9851Z" fill="#212636"/>
<path fill-rule="evenodd" clip-rule="evenodd" d="M10.4242 6.24239C10.6585 6.4767 10.6585 6.8566 10.4242 7.09091L7.7575 9.75758C7.52319 9.9919 7.14329 9.9919 6.90897 9.75758L5.57564 8.42425C5.34132 8.18993 5.34132 7.81003 5.57564 7.57572C5.80995 7.34141 6.18985 7.3414 6.42417 7.57572L7.33324 8.48479L9.57564 6.24239C9.80995 6.00807 10.1899 6.00807 10.4242 6.24239Z" fill="#212636"/>
</svg>
