<svg width="16" height="16" viewBox="0 0 16 16" fill="none" xmlns="http://www.w3.org/2000/svg">
<path fill-rule="evenodd" clip-rule="evenodd" d="M4.33356 11.9333C4.05066 11.9333 3.77935 12.0457 3.57931 12.2458C3.37928 12.4458 3.26689 12.7171 3.26689 13C3.26689 13.3314 2.99827 13.6 2.66689 13.6C2.33552 13.6 2.06689 13.3314 2.06689 13C2.06689 12.3988 2.3057 11.8223 2.73079 11.3972C3.15587 10.9721 3.7324 10.7333 4.33356 10.7333H13.3336C13.6649 10.7333 13.9336 11.002 13.9336 11.3333C13.9336 11.6647 13.6649 11.9333 13.3336 11.9333H4.33356Z" fill="#212636"/>
<path fill-rule="evenodd" clip-rule="evenodd" d="M4.33356 1.93334C4.05066 1.93334 3.77935 2.04572 3.57931 2.24576C3.37928 2.4458 3.26689 2.71711 3.26689 3V13C3.26689 13.2829 3.37928 13.5542 3.57931 13.7543C3.77935 13.9543 4.05066 14.0667 4.33356 14.0667H12.7336V1.93334H4.33356ZM2.73079 1.39723C3.15587 0.972146 3.7324 0.733337 4.33356 0.733337H13.3336C13.6649 0.733337 13.9336 1.00197 13.9336 1.33334V14.6667C13.9336 14.998 13.6649 15.2667 13.3336 15.2667H4.33356C3.7324 15.2667 3.15587 15.0279 2.73079 14.6028C2.3057 14.1777 2.06689 13.6012 2.06689 13V3C2.06689 2.39885 2.3057 1.82231 2.73079 1.39723Z" fill="#212636"/>
</svg>
