<svg width="16" height="16" viewBox="0 0 16 16" fill="none" xmlns="http://www.w3.org/2000/svg">
<path fill-rule="evenodd" clip-rule="evenodd" d="M3.33324 2.60002C2.92823 2.60002 2.5999 2.92835 2.5999 3.33336V12.6667C2.5999 13.0717 2.92823 13.4 3.33324 13.4H12.6666C13.0716 13.4 13.3999 13.0717 13.3999 12.6667V3.33336C13.3999 2.92835 13.0716 2.60002 12.6666 2.60002H3.33324ZM1.3999 3.33336C1.3999 2.26561 2.26549 1.40002 3.33324 1.40002H12.6666C13.7343 1.40002 14.5999 2.26561 14.5999 3.33336V12.6667C14.5999 13.7344 13.7343 14.6 12.6666 14.6H3.33324C2.26549 14.6 1.3999 13.7344 1.3999 12.6667V3.33336Z" fill="#212636"/>
<path fill-rule="evenodd" clip-rule="evenodd" d="M1.3999 6.00002C1.3999 5.66865 1.66853 5.40002 1.9999 5.40002H13.9999C14.3313 5.40002 14.5999 5.66865 14.5999 6.00002C14.5999 6.3314 14.3313 6.60002 13.9999 6.60002H1.9999C1.66853 6.60002 1.3999 6.3314 1.3999 6.00002Z" fill="#212636"/>
<path fill-rule="evenodd" clip-rule="evenodd" d="M1.3999 10C1.3999 9.66865 1.66853 9.40002 1.9999 9.40002H13.9999C14.3313 9.40002 14.5999 9.66865 14.5999 10C14.5999 10.3314 14.3313 10.6 13.9999 10.6H1.9999C1.66853 10.6 1.3999 10.3314 1.3999 10Z" fill="#212636"/>
<path fill-rule="evenodd" clip-rule="evenodd" d="M7.9999 1.40002C8.33127 1.40002 8.5999 1.66865 8.5999 2.00002V14C8.5999 14.3314 8.33127 14.6 7.9999 14.6C7.66853 14.6 7.3999 14.3314 7.3999 14V2.00002C7.3999 1.66865 7.66853 1.40002 7.9999 1.40002Z" fill="#212636"/>
</svg>
