<svg width="16" height="16" viewBox="0 0 16 16" fill="none" xmlns="http://www.w3.org/2000/svg">
<path fill-rule="evenodd" clip-rule="evenodd" d="M2.24263 2.90907C2.47695 2.67476 2.85684 2.67476 3.09116 2.90907L7.09116 6.90907C7.32547 7.14339 7.32547 7.52329 7.09116 7.7576L3.09116 11.7576C2.85684 11.9919 2.47695 11.9919 2.24263 11.7576C2.00832 11.5233 2.00832 11.1434 2.24263 10.9091L5.81837 7.33334L2.24263 3.7576C2.00832 3.52329 2.00832 3.14339 2.24263 2.90907Z" fill="#212636"/>
<path fill-rule="evenodd" clip-rule="evenodd" d="M7.40023 12.6667C7.40023 12.3353 7.66886 12.0667 8.00023 12.0667H13.3336C13.6649 12.0667 13.9336 12.3353 13.9336 12.6667C13.9336 12.998 13.6649 13.2667 13.3336 13.2667H8.00023C7.66886 13.2667 7.40023 12.998 7.40023 12.6667Z" fill="#212636"/>
</svg>
