<svg width="16" height="16" viewBox="0 0 16 16" fill="none" xmlns="http://www.w3.org/2000/svg">
<path fill-rule="evenodd" clip-rule="evenodd" d="M1.3999 4.00002C1.3999 3.66865 1.66853 3.40002 1.9999 3.40002H13.9999C14.3313 3.40002 14.5999 3.66865 14.5999 4.00002C14.5999 4.3314 14.3313 4.60002 13.9999 4.60002H1.9999C1.66853 4.60002 1.3999 4.3314 1.3999 4.00002Z" fill="#212636"/>
<path fill-rule="evenodd" clip-rule="evenodd" d="M3.3334 3.40002C3.66477 3.40002 3.9334 3.66865 3.9334 4.00002V13.3334C3.9334 13.4716 4.00854 13.66 4.17433 13.8258C4.34012 13.9916 4.52854 14.0667 4.66673 14.0667H11.3334C11.4716 14.0667 11.66 13.9916 11.8258 13.8258C11.9916 13.66 12.0667 13.4716 12.0667 13.3334V4.00002C12.0667 3.66865 12.3354 3.40002 12.6667 3.40002C12.9981 3.40002 13.2667 3.66865 13.2667 4.00002V13.3334C13.2667 13.8618 13.0085 14.3401 12.6743 14.6743C12.3401 15.0085 11.8619 15.2667 11.3334 15.2667H4.66673C4.13826 15.2667 3.66001 15.0085 3.3258 14.6743C2.99159 14.3401 2.7334 13.8618 2.7334 13.3334V4.00002C2.7334 3.66865 3.00203 3.40002 3.3334 3.40002Z" fill="#212636"/>
<path fill-rule="evenodd" clip-rule="evenodd" d="M6.17433 2.17427C6.00854 2.34006 5.9334 2.52848 5.9334 2.66667V4C5.9334 4.33138 5.66477 4.6 5.3334 4.6C5.00203 4.6 4.7334 4.33138 4.7334 4V2.66667C4.7334 2.1382 4.99159 1.65995 5.3258 1.32574C5.66001 0.991532 6.13826 0.733337 6.66673 0.733337H9.3334C9.86187 0.733337 10.3401 0.991532 10.6743 1.32574C11.0085 1.65995 11.2667 2.1382 11.2667 2.66667V4C11.2667 4.33138 10.9981 4.6 10.6667 4.6C10.3354 4.6 10.0667 4.33138 10.0667 4V2.66667C10.0667 2.52848 9.99159 2.34006 9.8258 2.17427C9.66001 2.00848 9.47159 1.93334 9.3334 1.93334H6.66673C6.52854 1.93334 6.34012 2.00848 6.17433 2.17427Z" fill="#212636"/>
<path fill-rule="evenodd" clip-rule="evenodd" d="M6.66689 6.73334C6.99827 6.73334 7.26689 7.00197 7.26689 7.33334V11.3333C7.26689 11.6647 6.99827 11.9333 6.66689 11.9333C6.33552 11.9333 6.06689 11.6647 6.06689 11.3333V7.33334C6.06689 7.00197 6.33552 6.73334 6.66689 6.73334Z" fill="#212636"/>
<path fill-rule="evenodd" clip-rule="evenodd" d="M9.3334 6.73334C9.66477 6.73334 9.9334 7.00197 9.9334 7.33334V11.3333C9.9334 11.6647 9.66477 11.9333 9.3334 11.9333C9.00203 11.9333 8.7334 11.6647 8.7334 11.3333V7.33334C8.7334 7.00197 9.00203 6.73334 9.3334 6.73334Z" fill="#212636"/>
</svg>
