<svg width="16" height="16" viewBox="0 0 16 16" fill="none" xmlns="http://www.w3.org/2000/svg">
<path fill-rule="evenodd" clip-rule="evenodd" d="M0.733398 3.33334C0.733398 3.00197 1.00203 2.73334 1.3334 2.73334H6.00007C6.1592 2.73334 6.31181 2.79655 6.42433 2.90907L10.6177 7.10241C11.4786 7.96339 11.4786 9.36995 10.6177 10.2309L8.231 12.6176C7.37002 13.4786 5.96345 13.4786 5.10247 12.6176L0.909134 8.42427C0.796613 8.31175 0.733398 8.15913 0.733398 8V3.33334ZM1.9334 3.93334V7.75148L5.951 11.7691C6.34335 12.1614 6.99012 12.1614 7.38247 11.7691L9.76914 9.38241C10.1615 8.99005 10.1615 8.34329 9.76914 7.95093L5.75154 3.93334H1.9334Z" fill="#212636"/>
<path fill-rule="evenodd" clip-rule="evenodd" d="M4.00007 5.4C4.33144 5.4 4.60007 5.66863 4.60007 6V6.00667C4.60007 6.33804 4.33144 6.60667 4.00007 6.60667C3.66869 6.60667 3.40007 6.33804 3.40007 6.00667V6C3.40007 5.66863 3.66869 5.4 4.00007 5.4Z" fill="#212636"/>
<path fill-rule="evenodd" clip-rule="evenodd" d="M9.5758 2.90907C9.81012 2.67476 10.19 2.67476 10.4243 2.90907L14.6236 7.10834C14.6235 7.10822 14.6237 7.10846 14.6236 7.10834C14.8285 7.31265 14.9915 7.55575 15.1025 7.823C15.2135 8.09042 15.2707 8.37712 15.2707 8.66667C15.2707 8.95622 15.2135 9.24292 15.1025 9.51034C14.9915 9.77763 14.8288 10.0204 14.6239 10.2247C14.6238 10.2248 14.624 10.2246 14.6239 10.2247L11.7577 13.0909C11.5233 13.3252 11.1434 13.3252 10.9091 13.0909C10.6748 12.8566 10.6748 12.4767 10.9091 12.2424L13.7765 9.375C13.8698 9.2821 13.9437 9.17171 13.9942 9.05016C14.0447 8.92861 14.0707 8.79829 14.0707 8.66667C14.0707 8.53506 14.0447 8.40474 13.9942 8.28319C13.9437 8.16163 13.8698 8.05124 13.7765 7.95834L9.5758 3.7576C9.34149 3.52329 9.34149 3.14339 9.5758 2.90907Z" fill="#212636"/>
</svg>
