<svg width="16" height="16" viewBox="0 0 16 16" fill="none" xmlns="http://www.w3.org/2000/svg">
<path d="M10.3268 8.54338C12.4715 9.45602 13.8244 11.4983 13.9288 13.8112C13.9377 14.0113 13.9162 14.1649 13.8641 14.272C13.6484 14.7136 12.995 14.6995 12.7915 14.249C12.7603 14.1807 12.7418 14.073 12.7358 13.9258C12.6684 12.2887 11.9847 11.0131 10.6846 10.0992C8.87981 8.82946 6.32237 9.04578 4.73325 10.5735C3.81293 11.4584 3.32418 12.5549 3.26701 13.8631C3.25847 14.0602 3.23351 14.1982 3.19213 14.2771C2.97325 14.6925 2.36717 14.7047 2.15341 14.2989C2.08855 14.1752 2.06189 13.9896 2.07341 13.7421C2.18093 11.4464 3.56717 9.46178 5.66253 8.5517C5.66738 8.54959 5.67158 8.54624 5.67472 8.54198C5.67786 8.53772 5.67982 8.53271 5.68041 8.52745C5.68099 8.52219 5.68018 8.51687 5.67805 8.51203C5.67592 8.50719 5.67255 8.50299 5.66829 8.49986C3.52173 6.89154 3.51853 3.60194 5.79693 2.07618C8.41901 0.320665 12.0011 2.21954 11.9326 5.39458C11.9057 6.6413 11.3259 7.74978 10.3224 8.50434C10.3192 8.50682 10.3167 8.51007 10.3151 8.51378C10.3135 8.51749 10.3129 8.52152 10.3134 8.52547C10.3139 8.52942 10.3153 8.53316 10.3177 8.5363C10.3201 8.53945 10.3232 8.54189 10.3268 8.54338ZM10.7307 5.33314C10.7307 4.60887 10.443 3.91426 9.93083 3.40212C9.41869 2.88998 8.72408 2.60226 7.99981 2.60226C7.27553 2.60226 6.58092 2.88998 6.06878 3.40212C5.55664 3.91426 5.26893 4.60887 5.26893 5.33314C5.26893 6.05742 5.55664 6.75203 6.06878 7.26417C6.58092 7.77631 7.27553 8.06402 7.99981 8.06402C8.35843 8.06402 8.71354 7.99339 9.04487 7.85615C9.3762 7.71891 9.67725 7.51775 9.93083 7.26417C10.1844 7.01058 10.3856 6.70953 10.5228 6.37821C10.6601 6.04688 10.7307 5.69177 10.7307 5.33314Z" fill="#212636"/>
</svg>
