<svg width="16" height="16" viewBox="0 0 16 16" fill="none" xmlns="http://www.w3.org/2000/svg">
<path fill-rule="evenodd" clip-rule="evenodd" d="M2.08071 9.41398C2.94337 8.55131 4.1134 8.06667 5.3334 8.06667C6.55339 8.06667 7.72342 8.55131 8.58609 9.41398C9.44876 10.2766 9.9334 11.4467 9.9334 12.6667C9.9334 12.998 9.66477 13.2667 9.3334 13.2667C9.00203 13.2667 8.7334 12.998 8.7334 12.6667C8.7334 11.7649 8.37518 10.9001 7.73756 10.2625C7.09994 9.62488 6.23513 9.26667 5.3334 9.26667C4.43166 9.26667 3.56686 9.62488 2.92924 10.2625C2.29161 10.9001 1.9334 11.7649 1.9334 12.6667C1.9334 12.998 1.66477 13.2667 1.3334 13.2667C1.00203 13.2667 0.733398 12.998 0.733398 12.6667C0.733398 11.4467 1.21804 10.2766 2.08071 9.41398Z" fill="#212636"/>
<path fill-rule="evenodd" clip-rule="evenodd" d="M5.3334 3.93334C4.19201 3.93334 3.26673 4.85862 3.26673 6C3.26673 7.14139 4.19201 8.06667 5.3334 8.06667C6.47479 8.06667 7.40006 7.14139 7.40006 6C7.40006 4.85862 6.47479 3.93334 5.3334 3.93334ZM2.06673 6C2.06673 4.19587 3.52927 2.73334 5.3334 2.73334C7.13753 2.73334 8.60006 4.19587 8.60006 6C8.60006 7.80413 7.13753 9.26667 5.3334 9.26667C3.52927 9.26667 2.06673 7.80413 2.06673 6Z" fill="#212636"/>
<path fill-rule="evenodd" clip-rule="evenodd" d="M10.0667 3.33334C10.0667 3.00197 10.3354 2.73334 10.6667 2.73334C11.5331 2.73334 12.364 3.0775 12.9766 3.69012C13.5892 4.30274 13.9334 5.13363 13.9334 6C13.9334 6.86638 13.5892 7.69727 12.9766 8.30989C12.8926 8.39393 12.8044 8.47293 12.7126 8.54667C13.1552 8.76642 13.5635 9.05802 13.9194 9.41398C14.7821 10.2766 15.2667 11.4467 15.2667 12.6667C15.2667 12.998 14.9981 13.2667 14.6667 13.2667C14.3354 13.2667 14.0667 12.998 14.0667 12.6667C14.0667 11.7649 13.7085 10.9001 13.0709 10.2625C12.4333 9.62488 11.5685 9.26667 10.6667 9.26667C10.3354 9.26667 10.0667 8.99804 10.0667 8.66667C10.0667 8.3353 10.3354 8.06667 10.6667 8.06667C11.2148 8.06667 11.7405 7.84893 12.1281 7.46136C12.5157 7.07378 12.7334 6.54812 12.7334 6C12.7334 5.45189 12.5157 4.92623 12.1281 4.53865C11.7405 4.15107 11.2148 3.93334 10.6667 3.93334C10.3354 3.93334 10.0667 3.66471 10.0667 3.33334Z" fill="#212636"/>
</svg>
