<svg width="16" height="16" viewBox="0 0 16 16" fill="none" xmlns="http://www.w3.org/2000/svg">
<g clip-path="url(#clip0_1022_6905)">
<path d="M8.6346 7.40251C9.91283 7.40251 11.1915 7.40251 12.4706 7.40251C12.9546 7.40251 13.258 7.54658 13.26 8.06044C13.2618 8.7146 13.2622 9.36987 13.2613 10.0262C13.2612 10.0322 13.2623 10.0382 13.2646 10.0437C13.2668 10.0493 13.2701 10.0543 13.2743 10.0586C13.2785 10.0629 13.2835 10.0662 13.289 10.0686C13.2946 10.0709 13.3005 10.0721 13.3065 10.0721C13.7353 10.0738 14.166 10.0752 14.5984 10.076C15.0167 10.0767 15.2729 10.3064 15.2723 10.7386C15.2705 11.973 15.2696 13.2072 15.2696 14.4412C15.2696 14.9989 15.0983 15.2691 14.5294 15.2691C13.3051 15.2704 12.0807 15.2702 10.856 15.2684C10.3368 15.2677 10.0866 15.1064 10.0792 14.5793C10.0607 13.3064 10.0573 12.0332 10.0693 10.7599C10.0739 10.3064 10.2851 10.0727 10.7339 10.0754C11.1672 10.0776 11.6002 10.0767 12.0331 10.0727C12.0552 10.0723 12.0663 10.061 12.0663 10.0389V8.64733C12.0663 8.61413 12.0497 8.59753 12.0165 8.59753H3.96672C3.95791 8.59753 3.94947 8.60103 3.94324 8.60726C3.93702 8.61348 3.93352 8.62192 3.93352 8.63073V10.0409C3.93352 10.0497 3.93695 10.0581 3.94305 10.0643C3.94915 10.0705 3.95742 10.074 3.96605 10.074C4.38652 10.0754 4.80611 10.0754 5.22481 10.074C5.67825 10.0734 5.93385 10.2765 5.93585 10.7512C5.94248 12.384 5.9416 13.6584 5.93319 14.5746C5.92921 15.0599 5.67626 15.2684 5.21153 15.2691C3.98154 15.27 2.75156 15.2702 1.52157 15.2697C0.982484 15.2691 0.730866 15.0732 0.730866 14.5348C0.72998 13.253 0.729759 11.971 0.730202 10.6888C0.730202 10.2374 1.05352 10.082 1.47377 10.0721C1.88096 10.0623 2.2855 10.0636 2.68738 10.076C2.69284 10.0762 2.69828 10.0753 2.70339 10.0734C2.70849 10.0714 2.71316 10.0685 2.71711 10.0647C2.72107 10.0609 2.72423 10.0564 2.72642 10.0514C2.72861 10.0464 2.72978 10.041 2.72987 10.0355C2.74005 9.42033 2.74248 8.80666 2.73717 8.19454C2.73253 7.70791 2.88389 7.40384 3.39842 7.40384C4.72356 7.40207 6.05048 7.40185 7.37916 7.40318C7.38533 7.40318 7.39124 7.40073 7.3956 7.39637C7.39995 7.39201 7.4024 7.3861 7.4024 7.37994V5.99571C7.4024 5.98039 7.39639 5.9657 7.38568 5.95486C7.37497 5.94403 7.36045 5.93795 7.34531 5.93795C6.89739 5.93706 6.4871 5.9333 6.11443 5.92666C5.68024 5.91936 5.41136 5.75405 5.41136 5.30326C5.41092 4.033 5.4107 2.76229 5.4107 1.49114C5.4107 0.963341 5.59858 0.732968 6.1224 0.73164C7.3484 0.729427 8.57419 0.729427 9.79975 0.73164C10.2797 0.732304 10.5885 0.869068 10.5885 1.38359C10.5889 2.66271 10.5891 3.94182 10.5891 5.22093C10.5891 5.65911 10.4119 5.91537 9.96771 5.93064C9.52555 5.94614 9.08273 5.94259 8.63925 5.92002C8.61136 5.91869 8.59742 5.93197 8.59742 5.95986V7.36533C8.59742 7.39012 8.60981 7.40251 8.6346 7.40251ZM9.40445 1.97559C9.40445 1.97132 9.40362 1.96709 9.40199 1.96314C9.40036 1.95918 9.39797 1.95559 9.39496 1.95257C9.39194 1.94954 9.38836 1.94714 9.38441 1.9455C9.38047 1.94386 9.37624 1.94301 9.37197 1.943L6.62475 1.93821C6.62048 1.9382 6.61625 1.93903 6.6123 1.94066C6.60835 1.94229 6.60476 1.94468 6.60173 1.94769C6.59871 1.95071 6.5963 1.95429 6.59466 1.95824C6.59302 1.96218 6.59217 1.96641 6.59216 1.97068L6.58741 4.69533C6.5874 4.6996 6.58824 4.70383 6.58986 4.70778C6.59149 4.71173 6.59388 4.71532 6.5969 4.71835C6.59991 4.72137 6.6035 4.72378 6.60744 4.72542C6.61139 4.72706 6.61562 4.72791 6.61989 4.72792L9.3671 4.73271C9.37137 4.73272 9.37561 4.73188 9.37956 4.73026C9.38351 4.72863 9.3871 4.72624 9.39012 4.72322C9.39315 4.72021 9.39555 4.71662 9.39719 4.71268C9.39884 4.70873 9.39968 4.7045 9.39969 4.70023L9.40445 1.97559ZM1.94116 14.0389C1.94116 14.0441 1.94325 14.0492 1.94699 14.0529C1.95072 14.0567 1.95579 14.0588 1.96107 14.0588L4.71028 14.0628C4.71557 14.0628 4.72063 14.0607 4.72437 14.0569C4.7281 14.0532 4.7302 14.0481 4.7302 14.0428V11.2896C4.7302 11.2844 4.7281 11.2793 4.72437 11.2756C4.72063 11.2718 4.71557 11.2697 4.71028 11.2697H1.96107C1.95579 11.2697 1.95072 11.2718 1.94699 11.2756C1.94325 11.2793 1.94116 11.2844 1.94116 11.2896V14.0389ZM14.0607 11.3102C14.0607 11.2995 14.0564 11.2892 14.0488 11.2816C14.0412 11.274 14.0309 11.2697 14.0202 11.2697H11.3101C11.2994 11.2697 11.2891 11.274 11.2815 11.2816C11.2739 11.2892 11.2696 11.2995 11.2696 11.3102V14.0322C11.2696 14.043 11.2739 14.0533 11.2815 14.0609C11.2891 14.0685 11.2994 14.0727 11.3101 14.0727H14.0202C14.0309 14.0727 14.0412 14.0685 14.0488 14.0609C14.0564 14.0533 14.0607 14.043 14.0607 14.0322V11.3102Z" fill="#212636"/>
</g>
<defs>
<clipPath id="clip0_1022_6905">
<rect width="16" height="16" fill="white"/>
</clipPath>
</defs>
</svg>
