<svg width="16" height="16" viewBox="0 0 16 16" fill="none" xmlns="http://www.w3.org/2000/svg">
<path fill-rule="evenodd" clip-rule="evenodd" d="M3.27637 2.60002C2.88328 2.60002 2.56461 2.92835 2.56461 3.33336V6.00002C2.56461 6.40503 2.88328 6.73336 3.27637 6.73336H5.86461C6.2577 6.73336 6.57637 6.40503 6.57637 6.00002V3.33336C6.57637 2.92835 6.2577 2.60002 5.86461 2.60002H3.27637ZM1.3999 3.33336C1.3999 2.26561 2.24003 1.40002 3.27637 1.40002H5.86461C6.90095 1.40002 7.74108 2.26561 7.74108 3.33336V6.00002C7.74108 7.06778 6.90095 7.93336 5.86461 7.93336H3.27637C2.24003 7.93336 1.3999 7.06778 1.3999 6.00002V3.33336Z" fill="#212636"/>
<path fill-rule="evenodd" clip-rule="evenodd" d="M4.57049 6.73336C4.89212 6.73336 5.15284 7.00199 5.15284 7.33336V10C5.15284 10.1945 5.22783 10.381 5.36131 10.5186C5.4948 10.6561 5.67584 10.7334 5.86461 10.7334H8.45284C8.77447 10.7334 9.0352 11.002 9.0352 11.3334C9.0352 11.6647 8.77447 11.9334 8.45284 11.9334H5.86461C5.36694 11.9334 4.88965 11.7297 4.53774 11.3671C4.18584 11.0045 3.98814 10.5128 3.98814 10V7.33336C3.98814 7.00199 4.24887 6.73336 4.57049 6.73336Z" fill="#212636"/>
<path fill-rule="evenodd" clip-rule="evenodd" d="M9.74696 9.26669C9.35386 9.26669 9.0352 9.59502 9.0352 10V12.6667C9.0352 13.0717 9.35386 13.4 9.74696 13.4H12.3352C12.7283 13.4 13.047 13.0717 13.047 12.6667V10C13.047 9.59502 12.7283 9.26669 12.3352 9.26669H9.74696ZM7.87049 10C7.87049 8.93227 8.71062 8.06669 9.74696 8.06669H12.3352C13.3715 8.06669 14.2117 8.93227 14.2117 10V12.6667C14.2117 13.7344 13.3715 14.6 12.3352 14.6H9.74696C8.71062 14.6 7.87049 13.7344 7.87049 12.6667V10Z" fill="#212636"/>
<path fill-rule="evenodd" clip-rule="evenodd" d="M14.4045 2.19529C14.665 2.45564 14.665 2.87775 14.4045 3.1381L11.7353 5.80476C11.4748 6.06511 11.0523 6.06511 10.7917 5.80476L9.45711 4.47143C9.19652 4.21108 9.19652 3.78897 9.45711 3.52862C9.7177 3.26827 10.1402 3.26827 10.4008 3.52862L11.2635 4.39055L13.4608 2.19529C13.7214 1.93494 14.1439 1.93494 14.4045 2.19529Z" fill="#212636"/>
</svg>
