<svg width="16" height="16" viewBox="0 0 16 16" fill="none" xmlns="http://www.w3.org/2000/svg">
<path fill-rule="evenodd" clip-rule="evenodd" d="M11.3334 6.60002C10.5602 6.60002 9.9334 7.22683 9.9334 8.00002C9.9334 8.77322 10.5602 9.40002 11.3334 9.40002C12.1066 9.40002 12.7334 8.77322 12.7334 8.00002C12.7334 7.22683 12.1066 6.60002 11.3334 6.60002ZM8.7334 8.00002C8.7334 6.56408 9.89746 5.40002 11.3334 5.40002C12.7693 5.40002 13.9334 6.56408 13.9334 8.00002C13.9334 9.43596 12.7693 10.6 11.3334 10.6C9.89746 10.6 8.7334 9.43596 8.7334 8.00002Z" fill="#212636"/>
<path fill-rule="evenodd" clip-rule="evenodd" d="M9.3334 4.06665C9.66477 4.06665 9.9334 4.33528 9.9334 4.66665V9.99998C9.9334 10.3314 9.66477 10.6 9.3334 10.6C9.00203 10.6 8.7334 10.3314 8.7334 9.99998V4.66665C8.7334 4.33528 9.00203 4.06665 9.3334 4.06665Z" fill="#212636"/>
<path fill-rule="evenodd" clip-rule="evenodd" d="M4.66689 6.60002C3.8937 6.60002 3.26689 7.22683 3.26689 8.00002C3.26689 8.77322 3.8937 9.40002 4.66689 9.40002C5.44009 9.40002 6.06689 8.77322 6.06689 8.00002C6.06689 7.22683 5.44009 6.60002 4.66689 6.60002ZM2.06689 8.00002C2.06689 6.56408 3.23095 5.40002 4.66689 5.40002C6.10283 5.40002 7.26689 6.56408 7.26689 8.00002C7.26689 9.43596 6.10283 10.6 4.66689 10.6C3.23095 10.6 2.06689 9.43596 2.06689 8.00002Z" fill="#212636"/>
<path fill-rule="evenodd" clip-rule="evenodd" d="M6.66689 5.40002C6.99827 5.40002 7.26689 5.66865 7.26689 6.00002V10C7.26689 10.3314 6.99827 10.6 6.66689 10.6C6.33552 10.6 6.06689 10.3314 6.06689 10V6.00002C6.06689 5.66865 6.33552 5.40002 6.66689 5.40002Z" fill="#212636"/>
<path fill-rule="evenodd" clip-rule="evenodd" d="M1.3334 10.7333C1.66477 10.7333 1.9334 11.002 1.9334 11.3333V12.0667H14.0667V11.3333C14.0667 11.002 14.3354 10.7333 14.6667 10.7333C14.9981 10.7333 15.2667 11.002 15.2667 11.3333V12.6667C15.2667 12.998 14.9981 13.2667 14.6667 13.2667H1.3334C1.00203 13.2667 0.733398 12.998 0.733398 12.6667V11.3333C0.733398 11.002 1.00203 10.7333 1.3334 10.7333Z" fill="#212636"/>
</svg>
