<svg width="16" height="16" viewBox="0 0 16 16" fill="none" xmlns="http://www.w3.org/2000/svg">
<g clip-path="url(#clip0_1165_7629)">
<path fill-rule="evenodd" clip-rule="evenodd" d="M2.66673 1.93334C2.26172 1.93334 1.9334 2.26166 1.9334 2.66667V5.33334C1.9334 5.73835 2.26172 6.06667 2.66673 6.06667H5.3334C5.73841 6.06667 6.06673 5.73835 6.06673 5.33334V2.66667C6.06673 2.26166 5.73841 1.93334 5.3334 1.93334H2.66673ZM0.733398 2.66667C0.733398 1.59892 1.59898 0.733337 2.66673 0.733337H5.3334C6.40115 0.733337 7.26673 1.59892 7.26673 2.66667V5.33334C7.26673 6.40109 6.40115 7.26667 5.3334 7.26667H2.66673C1.59898 7.26667 0.733398 6.40109 0.733398 5.33334V2.66667Z" fill="#212636"/>
<path fill-rule="evenodd" clip-rule="evenodd" d="M8.7334 1.33334C8.7334 1.00197 9.00203 0.733337 9.3334 0.733337C10.3981 0.733337 11.2667 1.60197 11.2667 2.66667V5.33334C11.2667 6.39804 10.3981 7.26667 9.3334 7.26667C9.00203 7.26667 8.7334 6.99804 8.7334 6.66667C8.7334 6.3353 9.00203 6.06667 9.3334 6.06667C9.73536 6.06667 10.0667 5.7353 10.0667 5.33334V2.66667C10.0667 2.26471 9.73536 1.93334 9.3334 1.93334C9.00203 1.93334 8.7334 1.66471 8.7334 1.33334Z" fill="#212636"/>
<path fill-rule="evenodd" clip-rule="evenodd" d="M12.7334 1.33334C12.7334 1.00197 13.002 0.733337 13.3334 0.733337C14.3981 0.733337 15.2667 1.60197 15.2667 2.66667V5.33334C15.2667 6.39804 14.3981 7.26667 13.3334 7.26667C13.002 7.26667 12.7334 6.99804 12.7334 6.66667C12.7334 6.3353 13.002 6.06667 13.3334 6.06667C13.7354 6.06667 14.0667 5.7353 14.0667 5.33334V2.66667C14.0667 2.26471 13.7354 1.93334 13.3334 1.93334C13.002 1.93334 12.7334 1.66471 12.7334 1.33334Z" fill="#212636"/>
<path fill-rule="evenodd" clip-rule="evenodd" d="M1.3334 8.73334C1.66477 8.73334 1.9334 9.00197 1.9334 9.33334V10C1.9334 10.802 2.53144 11.4 3.3334 11.4H6.66673C6.9981 11.4 7.26673 11.6686 7.26673 12C7.26673 12.3314 6.9981 12.6 6.66673 12.6H3.3334C1.86869 12.6 0.733398 11.4647 0.733398 10V9.33334C0.733398 9.00197 1.00203 8.73334 1.3334 8.73334Z" fill="#212636"/>
<path fill-rule="evenodd" clip-rule="evenodd" d="M4.24263 9.57576C4.47695 9.34145 4.85684 9.34145 5.09116 9.57576L7.09116 11.5758C7.32547 11.8101 7.32547 12.19 7.09116 12.4243L5.09116 14.4243C4.85684 14.6586 4.47695 14.6586 4.24263 14.4243C4.00832 14.19 4.00832 13.8101 4.24263 13.5758L5.81837 12L4.24263 10.4243C4.00832 10.19 4.00832 9.81007 4.24263 9.57576Z" fill="#212636"/>
<path fill-rule="evenodd" clip-rule="evenodd" d="M10.6667 9.93334C10.2617 9.93334 9.9334 10.2617 9.9334 10.6667V13.3333C9.9334 13.7383 10.2617 14.0667 10.6667 14.0667H13.3334C13.7384 14.0667 14.0667 13.7383 14.0667 13.3333V10.6667C14.0667 10.2617 13.7384 9.93334 13.3334 9.93334H10.6667ZM8.7334 10.6667C8.7334 9.59892 9.59898 8.73334 10.6667 8.73334H13.3334C14.4011 8.73334 15.2667 9.59892 15.2667 10.6667V13.3333C15.2667 14.4011 14.4011 15.2667 13.3334 15.2667H10.6667C9.59898 15.2667 8.7334 14.4011 8.7334 13.3333V10.6667Z" fill="#212636"/>
</g>
<defs>
<clipPath id="clip0_1165_7629">
<rect width="16" height="16" fill="white"/>
</clipPath>
</defs>
</svg>
