<svg width="16" height="16" viewBox="0 0 16 16" fill="none" xmlns="http://www.w3.org/2000/svg">
<g id="technology/ic-mappings-16">
<g id="Group 1130">
<path id="Ellipse 1" d="M15.5 4.5C15.5 5.32843 14.8284 6 14 6C13.1716 6 12.5 5.32843 12.5 4.5C12.5 3.67157 13.1716 3 14 3C14.8284 3 15.5 3.67157 15.5 4.5Z" fill="#212636"/>
<path id="Ellipse 3" d="M15.5 8.5C15.5 9.32843 14.8284 10 14 10C13.1716 10 12.5 9.32843 12.5 8.5C12.5 7.67157 13.1716 7 14 7C14.8284 7 15.5 7.67157 15.5 8.5Z" fill="#212636"/>
<path id="Ellipse 2" d="M3.5 4.5C3.5 5.32843 2.82843 6 2 6C1.17157 6 0.5 5.32843 0.5 4.5C0.5 3.67157 1.17157 3 2 3C2.82843 3 3.5 3.67157 3.5 4.5Z" fill="#212636"/>
<path id="Ellipse 4" d="M3.5 8.5C3.5 9.32843 2.82843 10 2 10C1.17157 10 0.5 9.32843 0.5 8.5C0.5 7.67157 1.17157 7 2 7C2.82843 7 3.5 7.67157 3.5 8.5Z" fill="#212636"/>
<path id="Ellipse 5" d="M3.5 12.5C3.5 13.3284 2.82843 14 2 14C1.17157 14 0.5 13.3284 0.5 12.5C0.5 11.6716 1.17157 11 2 11C2.82843 11 3.5 11.6716 3.5 12.5Z" fill="#212636"/>
<g id="Vector">
<path fill-rule="evenodd" clip-rule="evenodd" d="M14.5 5H1.5V3.8H14.5V5Z" fill="#212636"/>
<path fill-rule="evenodd" clip-rule="evenodd" d="M14.5 9H1.5V7.8H14.5V9Z" fill="#212636"/>
<path fill-rule="evenodd" clip-rule="evenodd" d="M6.34869 12.6427C5.35802 13.0407 4.00786 13.2267 1.96257 13.0988L2.03743 11.9012C3.99214 12.0233 5.14198 11.8343 5.90131 11.5292C6.64606 11.23 7.07014 10.8 7.56308 10.2763C7.58085 10.2574 7.5987 10.2384 7.61667 10.2193C8.10118 9.70371 8.66436 9.10441 9.61836 8.65297C10.6014 8.1878 11.9482 7.9 14 7.9V9.1C12.0518 9.1 10.8986 9.3747 10.1316 9.73765C9.38518 10.0909 8.95622 10.5468 8.46496 11.0689C8.45564 11.0788 8.44629 11.0888 8.43692 11.0987C7.92986 11.6375 7.35394 12.2388 6.34869 12.6427Z" fill="#212636"/>
<path fill-rule="evenodd" clip-rule="evenodd" d="M14 5C14.2761 5 14.5 4.77614 14.5 4.5C14.5 4.22386 14.2761 4 14 4C13.7239 4 13.5 4.22386 13.5 4.5C13.5 4.77614 13.7239 5 14 5ZM14 6C14.8284 6 15.5 5.32843 15.5 4.5C15.5 3.67157 14.8284 3 14 3C13.1716 3 12.5 3.67157 12.5 4.5C12.5 5.32843 13.1716 6 14 6Z" fill="#212636"/>
<path fill-rule="evenodd" clip-rule="evenodd" d="M14 9C14.2761 9 14.5 8.77614 14.5 8.5C14.5 8.22386 14.2761 8 14 8C13.7239 8 13.5 8.22386 13.5 8.5C13.5 8.77614 13.7239 9 14 9ZM14 10C14.8284 10 15.5 9.32843 15.5 8.5C15.5 7.67157 14.8284 7 14 7C13.1716 7 12.5 7.67157 12.5 8.5C12.5 9.32843 13.1716 10 14 10Z" fill="#212636"/>
<path fill-rule="evenodd" clip-rule="evenodd" d="M2 5C2.27614 5 2.5 4.77614 2.5 4.5C2.5 4.22386 2.27614 4 2 4C1.72386 4 1.5 4.22386 1.5 4.5C1.5 4.77614 1.72386 5 2 5ZM2 6C2.82843 6 3.5 5.32843 3.5 4.5C3.5 3.67157 2.82843 3 2 3C1.17157 3 0.5 3.67157 0.5 4.5C0.5 5.32843 1.17157 6 2 6Z" fill="#212636"/>
<path fill-rule="evenodd" clip-rule="evenodd" d="M2 9C2.27614 9 2.5 8.77614 2.5 8.5C2.5 8.22386 2.27614 8 2 8C1.72386 8 1.5 8.22386 1.5 8.5C1.5 8.77614 1.72386 9 2 9ZM2 10C2.82843 10 3.5 9.32843 3.5 8.5C3.5 7.67157 2.82843 7 2 7C1.17157 7 0.5 7.67157 0.5 8.5C0.5 9.32843 1.17157 10 2 10Z" fill="#212636"/>
<path fill-rule="evenodd" clip-rule="evenodd" d="M2 13C2.27614 13 2.5 12.7761 2.5 12.5C2.5 12.2239 2.27614 12 2 12C1.72386 12 1.5 12.2239 1.5 12.5C1.5 12.7761 1.72386 13 2 13ZM2 14C2.82843 14 3.5 13.3284 3.5 12.5C3.5 11.6716 2.82843 11 2 11C1.17157 11 0.5 11.6716 0.5 12.5C0.5 13.3284 1.17157 14 2 14Z" fill="#212636"/>
</g>
</g>
</g>
</svg>
