<svg width="16" height="16" viewBox="0 0 16 16" fill="none" xmlns="http://www.w3.org/2000/svg">
<g id="technology/ic-profile-16">
<g id="Vector">
<path fill-rule="evenodd" clip-rule="evenodd" d="M2.63293 1.2996C2.9955 0.937027 3.48725 0.733337 4 0.733337H9.66667C9.8258 0.733337 9.97841 0.796552 10.0909 0.909073L13.7576 4.57574C13.8701 4.68826 13.9333 4.84087 13.9333 5V13.3333C13.9333 13.8461 13.7296 14.3378 13.3671 14.7004C13.0045 15.063 12.5128 15.2667 12 15.2667H4C3.48725 15.2667 2.9955 15.063 2.63293 14.7004C2.27036 14.3378 2.06667 13.8461 2.06667 13.3333V2.66667C2.06667 2.15392 2.27036 1.66217 2.63293 1.2996ZM4 1.93334C3.80551 1.93334 3.61898 2.0106 3.48145 2.14813C3.34393 2.28565 3.26667 2.47218 3.26667 2.66667V13.3333C3.26667 13.5278 3.34393 13.7144 3.48145 13.8519C3.61898 13.9894 3.80551 14.0667 4 14.0667H12C12.1945 14.0667 12.381 13.9894 12.5185 13.8519C12.6561 13.7144 12.7333 13.5278 12.7333 13.3333V5.24853L9.41814 1.93334H4Z" fill="#212636"/>
<path fill-rule="evenodd" clip-rule="evenodd" d="M9.33333 0.733337C9.6647 0.733337 9.93333 1.00197 9.93333 1.33334V4.73334H13.3333C13.6647 4.73334 13.9333 5.00197 13.9333 5.33334C13.9333 5.66471 13.6647 5.93334 13.3333 5.93334H9.33333C9.00196 5.93334 8.73333 5.66471 8.73333 5.33334V1.33334C8.73333 1.00197 9.00196 0.733337 9.33333 0.733337Z" fill="#212636"/>
<path fill-rule="evenodd" clip-rule="evenodd" d="M4.73333 8.66667C4.73333 8.3353 5.00196 8.06667 5.33333 8.06667H6.66667C6.99804 8.06667 7.26667 8.3353 7.26667 8.66667C7.26667 8.99804 6.99804 9.26667 6.66667 9.26667H5.33333C5.00196 9.26667 4.73333 8.99804 4.73333 8.66667Z" fill="#212636"/>
<path fill-rule="evenodd" clip-rule="evenodd" d="M4.73333 11.3333C4.73333 11.002 5.00196 10.7333 5.33333 10.7333H6.66667C6.99804 10.7333 7.26667 11.002 7.26667 11.3333C7.26667 11.6647 6.99804 11.9333 6.66667 11.9333H5.33333C5.00196 11.9333 4.73333 11.6647 4.73333 11.3333Z" fill="#212636"/>
<path fill-rule="evenodd" clip-rule="evenodd" d="M8.73333 8.66667C8.73333 8.3353 9.00196 8.06667 9.33333 8.06667H10.6667C10.998 8.06667 11.2667 8.3353 11.2667 8.66667C11.2667 8.99804 10.998 9.26667 10.6667 9.26667H9.33333C9.00196 9.26667 8.73333 8.99804 8.73333 8.66667Z" fill="#212636"/>
<path fill-rule="evenodd" clip-rule="evenodd" d="M8.73333 11.3333C8.73333 11.002 9.00196 10.7333 9.33333 10.7333H10.6667C10.998 10.7333 11.2667 11.002 11.2667 11.3333C11.2667 11.6647 10.998 11.9333 10.6667 11.9333H9.33333C9.00196 11.9333 8.73333 11.6647 8.73333 11.3333Z" fill="#212636"/>
</g>
</g>
</svg>
