<svg width="16" height="16" viewBox="0 0 16 16" fill="none" xmlns="http://www.w3.org/2000/svg">
<g id="technology/ic-profiling-16">
<path id="Vector" d="M9.33333 10.0333C9.33333 10.2174 9.48257 10.3667 9.66667 10.3667C9.85076 10.3667 10 10.2174 10 10.0333C10 9.84925 9.85076 9.70001 9.66667 9.70001C9.48257 9.70001 9.33333 9.84925 9.33333 10.0333Z" fill="#212636" stroke="#212636" stroke-width="0.5" stroke-linecap="round" stroke-linejoin="round"/>
<path id="Vector_2" d="M11.3333 10.0333C11.3333 10.2174 11.4826 10.3667 11.6667 10.3667C11.8508 10.3667 12 10.2174 12 10.0333C12 9.84925 11.8508 9.70001 11.6667 9.70001C11.4826 9.70001 11.3333 9.84925 11.3333 10.0333Z" fill="#212636" stroke="#212636" stroke-width="0.5" stroke-linecap="round" stroke-linejoin="round"/>
<path id="Vector_3" d="M7.33333 10.0333C7.33333 10.2174 7.48257 10.3667 7.66667 10.3667C7.85076 10.3667 8 10.2174 8 10.0333C8 9.84925 7.85076 9.70001 7.66667 9.70001C7.48257 9.70001 7.33333 9.84925 7.33333 10.0333Z" fill="#212636" stroke="#212636" stroke-width="0.5" stroke-linecap="round" stroke-linejoin="round"/>
<g id="Vector_4">
<path fill-rule="evenodd" clip-rule="evenodd" d="M3.33333 2.59999C2.92832 2.59999 2.6 2.92832 2.6 3.33333V12.6667C2.6 13.0717 2.92832 13.4 3.33333 13.4H12.6667C13.0717 13.4 13.4 13.0717 13.4 12.6667V3.33333C13.4 2.92832 13.0717 2.59999 12.6667 2.59999H3.33333ZM1.4 3.33333C1.4 2.26558 2.26558 1.39999 3.33333 1.39999H12.6667C13.7344 1.39999 14.6 2.26558 14.6 3.33333V12.6667C14.6 13.7344 13.7344 14.6 12.6667 14.6H3.33333C2.26558 14.6 1.4 13.7344 1.4 12.6667V3.33333Z" fill="#212636"/>
<path fill-rule="evenodd" clip-rule="evenodd" d="M8.33282 4.50076C8.60854 4.68458 8.68304 5.0571 8.49923 5.33281L5.1659 10.3328C4.98208 10.6085 4.60956 10.683 4.33385 10.4992C4.05813 10.3154 3.98362 9.94289 4.16744 9.66717L7.50077 4.66717C7.68458 4.39146 8.0571 4.31695 8.33282 4.50076Z" fill="#212636"/>
<path fill-rule="evenodd" clip-rule="evenodd" d="M9.75 10.0333C9.75 9.9873 9.71269 9.94999 9.66667 9.94999C9.62064 9.94999 9.58333 9.9873 9.58333 10.0333C9.58333 10.0794 9.62064 10.1167 9.66667 10.1167C9.71269 10.1167 9.75 10.0794 9.75 10.0333ZM9.66667 9.44999C9.98883 9.44999 10.25 9.71116 10.25 10.0333C10.25 10.3555 9.98883 10.6167 9.66667 10.6167C9.3445 10.6167 9.08333 10.3555 9.08333 10.0333C9.08333 9.71116 9.3445 9.44999 9.66667 9.44999Z" fill="#212636"/>
<path fill-rule="evenodd" clip-rule="evenodd" d="M11.75 10.0333C11.75 9.9873 11.7127 9.94999 11.6667 9.94999C11.6206 9.94999 11.5833 9.9873 11.5833 10.0333C11.5833 10.0794 11.6206 10.1167 11.6667 10.1167C11.7127 10.1167 11.75 10.0794 11.75 10.0333ZM11.6667 9.44999C11.9888 9.44999 12.25 9.71116 12.25 10.0333C12.25 10.3555 11.9888 10.6167 11.6667 10.6167C11.3445 10.6167 11.0833 10.3555 11.0833 10.0333C11.0833 9.71116 11.3445 9.44999 11.6667 9.44999Z" fill="#212636"/>
<path fill-rule="evenodd" clip-rule="evenodd" d="M7.75 10.0333C7.75 9.9873 7.71269 9.94999 7.66667 9.94999C7.62064 9.94999 7.58333 9.9873 7.58333 10.0333C7.58333 10.0794 7.62064 10.1167 7.66667 10.1167C7.71269 10.1167 7.75 10.0794 7.75 10.0333ZM7.66667 9.44999C7.98883 9.44999 8.25 9.71116 8.25 10.0333C8.25 10.3555 7.98883 10.6167 7.66667 10.6167C7.3445 10.6167 7.08333 10.3555 7.08333 10.0333C7.08333 9.71116 7.3445 9.44999 7.66667 9.44999Z" fill="#212636"/>
</g>
</g>
</svg>
