<svg width="16" height="16" viewBox="0 0 16 16" fill="none" xmlns="http://www.w3.org/2000/svg">
<g id="basic/ic-repeat-16">
<g id="Vector">
<path fill-rule="evenodd" clip-rule="evenodd" d="M2 0.733337C2.33137 0.733337 2.6 1.00197 2.6 1.33334V4.73334H6C6.33137 4.73334 6.6 5.00197 6.6 5.33334C6.6 5.66471 6.33137 5.93334 6 5.93334H2C1.66863 5.93334 1.4 5.66471 1.4 5.33334V1.33334C1.4 1.00197 1.66863 0.733337 2 0.733337Z" fill="#212636"/>
<path fill-rule="evenodd" clip-rule="evenodd" d="M7.5963 1.44547C9.07321 1.36246 10.5352 1.778 11.7476 2.62542C12.9601 3.47284 13.8527 4.70299 14.2823 6.11849C14.7118 7.53398 14.6534 9.05275 14.1164 10.4311C13.5794 11.8094 12.5949 12.9673 11.321 13.7191C10.047 14.4709 8.55744 14.773 7.09127 14.5768C5.6251 14.3806 4.26735 13.6975 3.23588 12.6372C2.20442 11.5769 1.55905 10.2008 1.40333 8.72983C1.36845 8.4003 1.60731 8.10489 1.93684 8.07C2.26637 8.03512 2.56178 8.27398 2.59667 8.60351C2.72407 9.80707 3.2521 10.9329 4.09602 11.8005C4.93995 12.668 6.05084 13.2268 7.25043 13.3874C8.45002 13.5479 9.66877 13.3008 10.7111 12.6857C11.7534 12.0706 12.5589 11.1231 12.9983 9.99543C13.4376 8.86771 13.4854 7.62509 13.134 6.46696C12.7825 5.30883 12.0522 4.30233 11.0602 3.60899C10.0682 2.91565 8.87202 2.57566 7.66364 2.64358C6.45628 2.71144 5.30667 3.18258 4.39896 3.98149L2.40138 5.77931C2.15507 6.00099 1.7757 5.98102 1.55402 5.73472C1.33235 5.48841 1.35232 5.10904 1.59862 4.88736L3.60331 3.08314C4.71317 2.1052 6.11939 1.52848 7.5963 1.44547Z" fill="#212636"/>
</g>
</g>
</svg>
