<svg width="16" height="16" viewBox="0 0 16 16" fill="none" xmlns="http://www.w3.org/2000/svg">
<g id="technology/ic-shield-check-16">
<g id="Vector">
<path fill-rule="evenodd" clip-rule="evenodd" d="M7.78933 0.77154C7.92516 0.720603 8.07484 0.720603 8.21067 0.77154L13.544 2.77154C13.7782 2.85936 13.9333 3.08323 13.9333 3.33334V8C13.9333 10.2679 12.431 12.0868 11.0618 13.2849C10.3646 13.8949 9.67021 14.372 9.15133 14.6963C8.89127 14.8588 8.67369 14.984 8.51976 15.0692C8.44275 15.1118 8.38155 15.1445 8.3388 15.167C8.31741 15.1782 8.30063 15.1869 8.28878 15.1929L8.27474 15.2001L8.27056 15.2022L8.2692 15.2029C8.269 15.203 8.26833 15.2033 8 14.6667C7.73167 15.2033 7.73149 15.2032 7.7313 15.2031L7.72943 15.2022L7.72526 15.2001L7.71122 15.1929C7.69936 15.1869 7.68258 15.1782 7.6612 15.167C7.61845 15.1445 7.55725 15.1118 7.48024 15.0692C7.32631 14.984 7.10873 14.8588 6.84867 14.6963C6.32979 14.372 5.63543 13.8949 4.93823 13.2849C3.56905 12.0868 2.06667 10.2679 2.06667 8V3.33334C2.06667 3.08323 2.22181 2.85936 2.45599 2.77154L7.78933 0.77154ZM8 14.6667L7.7313 15.2031C7.90021 15.2876 8.10029 15.2873 8.2692 15.2029L8 14.6667ZM8 13.9851C8.13287 13.9103 8.309 13.8077 8.51533 13.6787C8.99646 13.378 9.63543 12.9384 10.2716 12.3818C11.569 11.2465 12.7333 9.73214 12.7333 8V3.74914L8 1.97414L3.26667 3.74914V8C3.26667 9.73214 4.43095 11.2465 5.72844 12.3818C6.36457 12.9384 7.00354 13.378 7.48467 13.6787C7.691 13.8077 7.86712 13.9103 8 13.9851Z" fill="#212636"/>
<path fill-rule="evenodd" clip-rule="evenodd" d="M5.77365 8.37457C6.34301 7.69135 7.14121 7.28 8.00235 7.28C8.8635 7.28 9.6617 7.69135 10.2311 8.37457C10.525 8.72734 10.7477 9.13927 10.8941 9.58022C10.9986 9.8947 10.8283 10.2343 10.5138 10.3388C10.1993 10.4432 9.85974 10.2729 9.75529 9.95845C9.65264 9.64936 9.50021 9.37203 9.30919 9.14279C8.94086 8.7008 8.46729 8.48 8.00235 8.48C7.53741 8.48 7.06384 8.7008 6.69552 9.14279C6.50449 9.37203 6.35207 9.64936 6.24941 9.95845C6.14496 10.2729 5.80536 10.4432 5.49088 10.3388C5.1764 10.2343 5.00613 9.8947 5.11058 9.58022C5.25703 9.13927 5.47968 8.72734 5.77365 8.37457Z" fill="#212636"/>
<path fill-rule="evenodd" clip-rule="evenodd" d="M8.00235 5.48C7.50529 5.48 7.10235 5.88295 7.10235 6.38C7.10235 6.87706 7.5053 7.28 8.00235 7.28C8.49941 7.28 8.90235 6.87706 8.90235 6.38C8.90235 5.88295 8.49941 5.48 8.00235 5.48ZM5.90235 6.38C5.90235 5.22021 6.84255 4.28 8.00235 4.28C9.16215 4.28 10.1024 5.22021 10.1024 6.38C10.1024 7.5398 9.16215 8.48 8.00235 8.48C6.84255 8.48 5.90235 7.5398 5.90235 6.38Z" fill="#212636"/>
</g>
</g>
</svg>
