<svg width="16" height="16" viewBox="0 0 16 16" fill="none" xmlns="http://www.w3.org/2000/svg">
<g id="technology/ic-stats-16">
<g id="Vector">
<path fill-rule="evenodd" clip-rule="evenodd" d="M2 1.39999C2.33137 1.39999 2.6 1.66862 2.6 1.99999V13.4H14C14.3314 13.4 14.6 13.6686 14.6 14C14.6 14.3314 14.3314 14.6 14 14.6H2C1.66863 14.6 1.4 14.3314 1.4 14V1.99999C1.4 1.66862 1.66863 1.39999 2 1.39999Z" fill="#212636"/>
<path fill-rule="evenodd" clip-rule="evenodd" d="M13.0909 5.57573C13.3252 5.81004 13.3252 6.18994 13.0909 6.42426L9.7576 9.75759C9.52328 9.99191 9.14338 9.99191 8.90907 9.75759L6.66667 7.51519L5.09093 9.09092C4.85662 9.32524 4.47672 9.32524 4.2424 9.09092C4.00809 8.85661 4.00809 8.47671 4.2424 8.2424L6.2424 6.2424C6.47672 6.00808 6.85662 6.00808 7.09093 6.2424L9.33333 8.4848L12.2424 5.57573C12.4767 5.34142 12.8566 5.34142 13.0909 5.57573Z" fill="#212636"/>
</g>
</g>
</svg>
