<svg width="16" height="16" viewBox="0 0 16 16" fill="none" xmlns="http://www.w3.org/2000/svg">
<g id="technology/ic-tag-16">
<g id="Vector">
<path fill-rule="evenodd" clip-rule="evenodd" d="M0.733333 3.33333C0.733333 3.00196 1.00196 2.73333 1.33333 2.73333H6C6.15913 2.73333 6.31174 2.79655 6.42426 2.90907L10.6176 7.1024C11.4786 7.96338 11.4786 9.36995 10.6176 10.2309L8.23093 12.6176C7.36995 13.4786 5.96338 13.4786 5.1024 12.6176L0.909069 8.42426C0.796547 8.31174 0.733333 8.15913 0.733333 8V3.33333ZM1.93333 3.93333V7.75147L5.95093 11.7691C6.34328 12.1614 6.99005 12.1614 7.3824 11.7691L9.76907 9.3824C10.1614 8.99005 10.1614 8.34328 9.76907 7.95093L5.75147 3.93333H1.93333Z" fill="#212636"/>
<path fill-rule="evenodd" clip-rule="evenodd" d="M4 5.4C4.33137 5.4 4.6 5.66863 4.6 6V6.00667C4.6 6.33804 4.33137 6.60667 4 6.60667C3.66863 6.60667 3.4 6.33804 3.4 6.00667V6C3.4 5.66863 3.66863 5.4 4 5.4Z" fill="#212636"/>
<path fill-rule="evenodd" clip-rule="evenodd" d="M9.57574 2.90907C9.81005 2.67476 10.1899 2.67476 10.4243 2.90907L14.6235 7.10833C14.6236 7.10846 14.6234 7.10821 14.6235 7.10833C14.8284 7.31265 14.9914 7.55575 15.1024 7.823C15.2134 8.09041 15.2706 8.37712 15.2706 8.66667C15.2706 8.95622 15.2134 9.24292 15.1024 9.51033C14.9914 9.77762 14.8288 10.0204 14.6238 10.2247C14.6239 10.2246 14.6237 10.2248 14.6238 10.2247L11.7576 13.0909C11.5233 13.3252 11.1434 13.3252 10.9091 13.0909C10.6748 12.8566 10.6748 12.4767 10.9091 12.2424L13.7765 9.375C13.8697 9.2821 13.9437 9.1717 13.9941 9.05015C14.0446 8.9286 14.0706 8.79828 14.0706 8.66667C14.0706 8.53505 14.0446 8.40473 13.9941 8.28318C13.9437 8.16163 13.8697 8.05124 13.7765 7.95833L9.57574 3.7576C9.34142 3.52328 9.34142 3.14338 9.57574 2.90907Z" fill="#212636"/>
</g>
</g>
</svg>
