<svg width="16" height="16" viewBox="0 0 16 16" fill="none" xmlns="http://www.w3.org/2000/svg">
<g id="technology/ic-terminology-16">
<g id="Vector">
<path fill-rule="evenodd" clip-rule="evenodd" d="M4.33333 11.9333C4.05043 11.9333 3.77912 12.0457 3.57909 12.2458C3.37905 12.4458 3.26667 12.7171 3.26667 13C3.26667 13.3314 2.99804 13.6 2.66667 13.6C2.33529 13.6 2.06667 13.3314 2.06667 13C2.06667 12.3988 2.30547 11.8223 2.73056 11.3972C3.15564 10.9721 3.73218 10.7333 4.33333 10.7333H13.3333C13.6647 10.7333 13.9333 11.002 13.9333 11.3333C13.9333 11.6647 13.6647 11.9333 13.3333 11.9333H4.33333Z" fill="#212636"/>
<path fill-rule="evenodd" clip-rule="evenodd" d="M4.33333 1.93333C4.05043 1.93333 3.77912 2.04571 3.57909 2.24575C3.37905 2.44579 3.26667 2.7171 3.26667 3V13C3.26667 13.2829 3.37905 13.5542 3.57909 13.7542C3.77912 13.9543 4.05043 14.0667 4.33333 14.0667H12.7333V1.93333H4.33333ZM2.73056 1.39722C3.15564 0.972142 3.73218 0.733334 4.33333 0.733334H13.3333C13.6647 0.733334 13.9333 1.00196 13.9333 1.33333V14.6667C13.9333 14.998 13.6647 15.2667 13.3333 15.2667H4.33333C3.73218 15.2667 3.15564 15.0279 2.73056 14.6028C2.30547 14.1777 2.06667 13.6012 2.06667 13V3C2.06667 2.39884 2.30547 1.82231 2.73056 1.39722Z" fill="#212636"/>
</g>
</g>
</svg>
