<svg width="16" height="16" viewBox="0 0 16 16" fill="none" xmlns="http://www.w3.org/2000/svg">
<g id="technology/ic-workflow-16" clip-path="url(#clip0_450_2026)">
<g id="Vector">
<path fill-rule="evenodd" clip-rule="evenodd" d="M5.4 1.33334C5.4 1.00197 5.66863 0.733337 6 0.733337H10C10.3314 0.733337 10.6 1.00197 10.6 1.33334V5.33334C10.6 5.66471 10.3314 5.93334 10 5.93334H6C5.66863 5.93334 5.4 5.66471 5.4 5.33334V1.33334ZM6.6 1.93334V4.73334H9.4V1.93334H6.6Z" fill="#212636"/>
<path fill-rule="evenodd" clip-rule="evenodd" d="M10.0667 10.6667C10.0667 10.3353 10.3353 10.0667 10.6667 10.0667H14.6667C14.998 10.0667 15.2667 10.3353 15.2667 10.6667V14.6667C15.2667 14.998 14.998 15.2667 14.6667 15.2667H10.6667C10.3353 15.2667 10.0667 14.998 10.0667 14.6667V10.6667ZM11.2667 11.2667V14.0667H14.0667V11.2667H11.2667Z" fill="#212636"/>
<path fill-rule="evenodd" clip-rule="evenodd" d="M0.733334 10.6667C0.733334 10.3353 1.00196 10.0667 1.33333 10.0667H5.33333C5.6647 10.0667 5.93333 10.3353 5.93333 10.6667V14.6667C5.93333 14.998 5.6647 15.2667 5.33333 15.2667H1.33333C1.00196 15.2667 0.733334 14.998 0.733334 14.6667V10.6667ZM1.93333 11.2667V14.0667H4.73333V11.2667H1.93333Z" fill="#212636"/>
<path fill-rule="evenodd" clip-rule="evenodd" d="M2.73333 8C2.73333 7.66863 3.00196 7.4 3.33333 7.4H12.6667C12.998 7.4 13.2667 7.66863 13.2667 8V10.6667C13.2667 10.998 12.998 11.2667 12.6667 11.2667C12.3353 11.2667 12.0667 10.998 12.0667 10.6667V8.6H3.93333V10.6667C3.93333 10.998 3.6647 11.2667 3.33333 11.2667C3.00196 11.2667 2.73333 10.998 2.73333 10.6667V8Z" fill="#212636"/>
<path fill-rule="evenodd" clip-rule="evenodd" d="M8 4.73334C8.33137 4.73334 8.6 5.00197 8.6 5.33334V8C8.6 8.33137 8.33137 8.6 8 8.6C7.66863 8.6 7.4 8.33137 7.4 8V5.33334C7.4 5.00197 7.66863 4.73334 8 4.73334Z" fill="#212636"/>
</g>
</g>
<defs>
<clipPath id="clip0_450_2026">
<rect width="16" height="16" fill="white"/>
</clipPath>
</defs>
</svg>
