<svg width="69" height="12" viewBox="0 0 69 12" fill="none" xmlns="http://www.w3.org/2000/svg">
<path d="M4.25317 11.7356L5.07257 9.6872H9.49735L10.3332 11.7356H13.7417L9.44873 1.57948C9.09109 0.733425 8.25398 0.182524 7.32595 0.182524C6.39792 0.182524 5.5608 0.733425 5.20316 1.57948L0.91 11.7356H4.25317ZM8.57965 7.2127H6.00669L7.30135 3.95161L8.57965 7.2127ZM18.1173 8.57833V0.264443H14.9219V11.7356C16.6867 11.7356 18.1173 10.3221 18.1173 8.57833ZM24.5743 11.7356C28.7044 11.7356 31.1132 9.27752 31.1132 5.96725C31.1132 2.62424 28.7371 0.264443 24.6401 0.264443H20.2153V11.7356H24.5743ZM24.6893 8.91696H23.3946V3.05032H24.6893C26.59 3.05032 27.852 4.14828 27.852 5.98364C27.852 7.86818 26.59 8.91696 24.6893 8.91696ZM38.6681 11.7356C41.4051 11.7356 43.0111 10.5394 43.0111 8.57285C43.0111 6.98329 42.1261 6.1967 40.733 5.73784C41.749 5.29537 42.5031 4.50878 42.5031 3.18142C42.5031 2.36205 42.2244 1.75569 41.7656 1.29688C41.0939 0.624995 40.0778 0.264443 38.6355 0.264443H32.7523V11.7356H38.6681ZM37.8488 4.83655H35.8493V2.82087H37.9146C38.8649 2.82087 39.3564 3.18142 39.3564 3.80412C39.3564 4.50879 38.8157 4.83655 37.8488 4.83655ZM38.3077 9.1792H35.8493V7.06521H38.275C39.3403 7.06521 39.8318 7.47489 39.8318 8.09764C39.8318 8.80226 39.2746 9.1792 38.3077 9.1792ZM50.2382 11.965C53.778 11.965 56.4327 9.29391 56.4327 6.00003C56.4327 2.67342 53.8106 0.0350342 50.2709 0.0350342C46.7311 0.0350342 44.0764 2.70616 44.0764 6.00003C44.0764 9.32665 46.6985 11.965 50.2382 11.965ZM50.2709 9.09724C48.5339 9.09724 47.3375 7.65517 47.3375 6.00003C47.3375 4.31212 48.5012 2.90283 50.2382 2.90283C51.9918 2.90283 53.1881 4.3449 53.1881 6.00003C53.1881 7.68795 52.0244 9.09724 50.2709 9.09724ZM60.8249 11.7356L63.0373 8.27787L65.2332 11.7356H68.8879L64.9545 5.86894L68.7242 0.264443H65.1513L63.103 3.49279L61.0709 0.264443H57.4162L61.1853 5.90172L57.2525 11.7356H60.8249Z" fill="#353B50"/>
<path d="M18.1173 0.264443V8.57833C18.1173 10.3221 16.6867 11.7356 14.9219 11.7356V0.264443H18.1173Z" fill="#353B50"/>
</svg>
