<svg width="16" height="16" viewBox="0 0 16 16" fill="none" xmlns="http://www.w3.org/2000/svg">
<g id="technology/ic-apps-16">
<g id="Vector">
<path fill-rule="evenodd" clip-rule="evenodd" d="M1.4 1.99999C1.4 1.66862 1.66863 1.39999 2 1.39999H6.66667C6.99804 1.39999 7.26667 1.66862 7.26667 1.99999V6.66666C7.26667 6.99803 6.99804 7.26666 6.66667 7.26666H2C1.66863 7.26666 1.4 6.99803 1.4 6.66666V1.99999ZM2.6 2.59999V6.06666H6.06667V2.59999H2.6Z" fill="#212636"/>
<path fill-rule="evenodd" clip-rule="evenodd" d="M8.73333 1.99999C8.73333 1.66862 9.00196 1.39999 9.33333 1.39999H14C14.3314 1.39999 14.6 1.66862 14.6 1.99999V6.66666C14.6 6.99803 14.3314 7.26666 14 7.26666H9.33333C9.00196 7.26666 8.73333 6.99803 8.73333 6.66666V1.99999ZM9.93333 2.59999V6.06666H13.4V2.59999H9.93333Z" fill="#212636"/>
<path fill-rule="evenodd" clip-rule="evenodd" d="M8.73333 9.33333C8.73333 9.00196 9.00196 8.73333 9.33333 8.73333H14C14.3314 8.73333 14.6 9.00196 14.6 9.33333V14C14.6 14.3314 14.3314 14.6 14 14.6H9.33333C9.00196 14.6 8.73333 14.3314 8.73333 14V9.33333ZM9.93333 9.93333V13.4H13.4V9.93333H9.93333Z" fill="#212636"/>
<path fill-rule="evenodd" clip-rule="evenodd" d="M1.4 9.33333C1.4 9.00196 1.66863 8.73333 2 8.73333H6.66667C6.99804 8.73333 7.26667 9.00196 7.26667 9.33333V14C7.26667 14.3314 6.99804 14.6 6.66667 14.6H2C1.66863 14.6 1.4 14.3314 1.4 14V9.33333ZM2.6 9.93333V13.4H6.06667V9.93333H2.6Z" fill="#212636"/>
</g>
</g>
</svg>
