<svg width="16" height="16" viewBox="0 0 16 16" fill="none" xmlns="http://www.w3.org/2000/svg">
<g id="technology/ic-notebook-16">
<g id="Vector">
<path fill-rule="evenodd" clip-rule="evenodd" d="M1.2996 1.96628C1.66217 1.60371 2.15392 1.40002 2.66667 1.40002C3.17942 1.40002 3.67117 1.60371 4.03374 1.96628C4.39631 2.32885 4.6 2.82061 4.6 3.33336V12.6667C4.6 12.8612 4.67727 13.0477 4.81479 13.1852C4.95232 13.3228 5.13885 13.4 5.33334 13.4C5.52783 13.4 5.71435 13.3228 5.85188 13.1852C5.98941 13.0477 6.06667 12.8612 6.06667 12.6667V11.3334C6.06667 11.002 6.3353 10.7334 6.66667 10.7334H14.6667C14.998 10.7334 15.2667 11.002 15.2667 11.3334V12.6667C15.2667 13.1794 15.063 13.6712 14.7004 14.0338C14.3378 14.3963 13.8461 14.6 13.3333 14.6H5.33334C4.82059 14.6 4.32883 14.3963 3.96626 14.0338C3.60369 13.6712 3.4 13.1794 3.4 12.6667V5.93336H1.33334C1.00197 5.93336 0.733337 5.66473 0.733337 5.33336V3.33336C0.733337 2.82061 0.937027 2.32885 1.2996 1.96628ZM3.4 4.73336V3.33336C3.4 3.13887 3.32274 2.95234 3.18522 2.81481C3.04769 2.67729 2.86116 2.60002 2.66667 2.60002C2.47218 2.60002 2.28565 2.67729 2.14813 2.81481C2.0106 2.95234 1.93334 3.13887 1.93334 3.33336V4.73336H3.4ZM7.12219 13.4H13.3333C13.5278 13.4 13.7144 13.3228 13.8519 13.1852C13.9894 13.0477 14.0667 12.8612 14.0667 12.6667V11.9334H7.26667V12.6667C7.26667 12.9207 7.2167 13.1695 7.12219 13.4Z" fill="#212636"/>
<path fill-rule="evenodd" clip-rule="evenodd" d="M2.06667 2.00002C2.06667 1.66865 2.3353 1.40002 2.66667 1.40002H11.3333C11.8461 1.40002 12.3378 1.60371 12.7004 1.96628C13.063 2.32885 13.2667 2.82061 13.2667 3.33336V11.3334C13.2667 11.6647 12.998 11.9334 12.6667 11.9334C12.3353 11.9334 12.0667 11.6647 12.0667 11.3334V3.33336C12.0667 3.13887 11.9894 2.95234 11.8519 2.81481C11.7144 2.67729 11.5278 2.60002 11.3333 2.60002H2.66667C2.3353 2.60002 2.06667 2.3314 2.06667 2.00002Z" fill="#212636"/>
</g>
</g>
</svg>
