<svg width="16" height="16" viewBox="0 0 16 16" fill="none" xmlns="http://www.w3.org/2000/svg">
<path d="M2.89185 5.98209L2.89175 5.98218C2.82678 6.04519 2.76323 6.10634 2.70127 6.16596C2.25905 6.59145 1.89786 6.93897 1.68215 7.32623C1.56778 7.53156 1.50575 7.73204 1.50038 7.94469C1.495 8.15794 1.54578 8.41549 1.7043 8.73541L2.89185 5.98209ZM2.89185 5.98209C3.2035 5.67969 3.47437 5.6263 3.67093 5.66388C3.87815 5.7035 4.12693 5.86794 4.33361 6.24382C4.62084 6.768 5.00697 7.11127 5.45635 7.23792C5.90693 7.3649 6.34352 7.25116 6.67111 7.01302C7.31446 6.54532 7.60518 5.52909 6.87791 4.73015L6.50816 5.06673M2.89185 5.98209L6.075 2.79924M6.075 2.79924L6.07461 2.79962C5.77448 3.09708 5.66278 3.34437 5.65231 3.52667C5.64329 3.68367 5.70373 3.89837 6.01651 4.16495L5.69218 4.54549M6.075 2.79924C6.17388 2.70101 6.26644 2.60706 6.35445 2.51771C6.69915 2.16778 6.9742 1.88856 7.2874 1.70067C7.6243 1.49856 7.99369 1.4146 8.55103 1.61319L8.55169 1.61343M6.075 2.79924L8.55169 1.61343M5.69218 4.54549L6.01616 4.16465C6.07135 4.2116 6.14123 4.24703 6.28282 4.31882C6.2982 4.32662 6.31443 4.33485 6.33158 4.34356C6.47875 4.41839 6.69922 4.53337 6.87831 4.73059L6.50816 5.06673M5.69218 4.54549C5.79574 4.63359 5.92283 4.69753 6.05168 4.76236C6.21603 4.84505 6.38325 4.92918 6.50816 5.06673M5.69218 4.54549C4.90184 3.87189 5.0349 3.12611 5.72264 2.44449C5.80858 2.35913 5.89267 2.27356 5.97573 2.18906L6.50816 5.06673M8.55169 1.61343C8.71652 1.6719 8.96193 1.83223 9.29076 2.1602L9.29167 2.1611M8.55169 1.61343L9.29167 2.1611M9.29167 2.1611C9.55788 2.42525 9.82897 2.6845 10.1049 2.93886L10.1049 2.93888M9.29167 2.1611L10.1049 2.93888M10.1049 2.93888L10.1093 2.94278M10.1049 2.93888L10.1093 2.94278M10.1093 2.94278C10.1772 3.00397 10.2572 3.05052 10.3441 3.07938C10.4311 3.10825 10.5233 3.11884 10.615 3.11016C10.7067 3.10149 10.7958 3.07372 10.8765 3.02835C10.9564 2.98338 11.0261 2.9222 11.0811 2.84866C11.1824 2.71355 11.27 2.57153 11.3431 2.42264C11.707 1.68261 12.4182 1.42272 13.0918 1.54637C13.7733 1.67147 14.3618 2.1796 14.4657 2.95908C14.5746 3.78284 14.1111 4.5035 13.2885 4.82173L13.2866 4.82245M10.1093 2.94278L13.2866 4.82245M13.2866 4.82245C13.1865 4.86165 13.0975 4.9247 13.0273 5.0061M13.2866 4.82245L13.0273 5.0061M14.378 8.56911L14.3785 8.56779C14.4952 8.25202 14.5163 8.00503 14.4898 7.8023C14.4632 7.59866 14.3845 7.40804 14.2561 7.21089C14.1247 7.00925 13.9482 6.8108 13.7332 6.59025C13.6634 6.5187 13.5865 6.44182 13.5063 6.36163C13.3547 6.21018 13.1913 6.04693 13.0423 5.88556L14.378 8.56911ZM14.378 8.56911C14.3517 8.64099 14.2666 8.78934 14.1081 8.99689C13.9578 9.19378 13.7659 9.41254 13.56 9.61984C13.3535 9.82774 13.1413 10.0157 12.9519 10.1552C12.7462 10.3068 12.6221 10.3599 12.583 10.3676L12.6801 10.8581L12.5841 10.3674C12.332 10.4168 12.1966 10.3555 12.0773 10.2489C11.9215 10.1097 11.7861 9.88226 11.6125 9.55235L11.6124 9.5521M14.378 8.56911L11.6124 9.5521M11.6124 9.5521C11.3779 9.10707 11.0091 8.84082 10.5906 8.76135C10.1885 8.68499 9.78735 8.78928 9.47128 8.9874C9.15522 9.18551 8.8864 9.50116 8.78066 9.89695C8.67059 10.3089 8.75158 10.7568 9.05162 11.161L9.05175 11.1611M11.6124 9.5521L9.05175 11.1611M9.05175 11.1611C9.26722 11.4511 9.57932 11.6209 9.78648 11.7337C9.80695 11.7448 9.8264 11.7554 9.84462 11.7655C10.0833 11.8976 10.2113 11.9862 10.292 12.1176L10.2926 12.1186M9.05175 11.1611L10.2926 12.1186M10.2926 12.1186C10.433 12.3457 10.4372 12.5187 10.365 12.6901C10.3475 12.7311 10.2755 12.8446 10.1248 13.0243C9.98475 13.1913 9.80584 13.3817 9.615 13.5682C9.42432 13.7546 9.22757 13.9314 9.05348 14.0723C8.86924 14.2215 8.74184 14.3045 8.68306 14.3316C8.09743 14.6002 7.66861 14.5198 7.26375 14.2843C6.87123 14.0559 6.51977 13.6951 6.11036 13.2747C6.04283 13.2054 5.97372 13.1344 5.9026 13.0622L5.9009 13.0605M10.2926 12.1186L5.9009 13.0605M5.9009 13.0605C5.82348 12.9826 5.72786 12.9252 5.62268 12.8936C5.5175 12.862 5.40609 12.8571 5.29854 12.8794C5.19098 12.9017 5.09072 12.9505 5.0068 13.0213C4.92289 13.0922 4.85796 13.1828 4.81788 13.285L5.2833 13.4675L4.81875 13.2828C4.408 14.3161 3.40855 14.7651 2.48206 14.3179L2.48143 14.3176M5.9009 13.0605L2.48143 14.3176M2.48143 14.3176C1.73697 13.9596 1.46438 13.3389 1.52295 12.7386C1.58337 12.1194 2.00318 11.4796 2.75274 11.1553C2.85795 11.1101 2.94957 11.0382 3.01862 10.9469C3.08799 10.8552 3.13218 10.7469 3.14685 10.6328C3.16152 10.5188 3.14615 10.4029 3.10226 10.2966C3.05844 10.1904 2.98769 10.0975 2.89698 10.0271C2.72965 9.89702 2.46772 9.65544 2.22051 9.39205M2.48143 14.3176L2.22051 9.39205M12.8782 4.91984L12.8777 4.92044C12.7533 5.10421 12.7086 5.24504 12.6971 5.3501C12.6858 5.45287 12.7028 5.55173 12.7494 5.65921C12.8547 5.90217 13.0828 6.13941 13.4007 6.44869C13.4181 6.46558 13.4359 6.48285 13.4541 6.50049C13.7229 6.76088 14.0743 7.10137 14.2429 7.49423C14.3426 7.72647 14.388 7.99241 14.3248 8.28044C14.2631 8.56129 14.108 8.81781 13.8864 9.05578C13.8863 9.0559 13.8862 9.05603 13.8861 9.05615L13.5202 8.7154L12.8782 4.91984ZM12.8782 4.91984C12.9569 4.80324 13.0561 4.72752 13.1897 4.68236L13.1899 4.6823C13.8333 4.46456 14.2398 4.04559 14.3324 3.50431C14.4188 2.99951 14.2077 2.51641 13.9093 2.18634C13.6111 1.85653 13.1493 1.59594 12.6325 1.64427C12.0824 1.69572 11.6341 2.07864 11.3569 2.70805L11.3567 2.70842C11.22 3.01942 10.9837 3.21315 10.7517 3.27817C10.5361 3.3386 10.2799 3.30224 10.0289 3.06086L10.0283 3.06024C9.94448 2.97991 9.85225 2.88316 9.74414 2.76975C9.73001 2.75492 9.7156 2.73981 9.7009 2.72441C9.57818 2.59581 9.43973 2.45206 9.29486 2.31671C9.02825 2.06762 8.64906 1.75599 8.21653 1.68624L8.21572 1.68611C7.64031 1.59428 7.14487 1.93652 6.82452 2.2133C6.58404 2.42108 6.34362 2.68463 6.16531 2.8801C6.09947 2.95227 6.0421 3.01516 5.99632 3.06253L5.99553 3.06335C5.91965 3.14223 5.86457 3.23872 5.83524 3.34414C5.8059 3.44956 5.80322 3.56062 5.82743 3.66734C5.85165 3.77406 5.902 3.8731 5.97398 3.95555C6.04596 4.03799 6.13732 4.10127 6.23986 4.13967L6.24103 4.1401C7.41025 4.57454 7.84026 5.86299 7.07827 6.83662C6.64834 7.38369 6.05063 7.54422 5.49136 7.42269C4.9202 7.29857 4.38802 6.87736 4.14616 6.23979L4.14559 6.23829C4.10652 6.1363 4.04277 6.04558 3.96002 5.97427C3.87727 5.90295 3.77811 5.85327 3.67142 5.82969C3.56473 5.80612 3.45386 5.80939 3.34874 5.83922C3.24362 5.86905 3.14757 5.92449 3.06917 6.00056L3.06837 6.00134C3.01873 6.04972 2.94726 6.11579 2.86499 6.19183C2.70637 6.33845 2.5076 6.52217 2.34777 6.68783C2.21588 6.82451 2.08212 6.97592 1.97062 7.13427C1.86198 7.28855 1.75509 7.47634 1.70593 7.68488L1.70571 7.68579C1.51427 8.50459 2.08439 9.07611 2.45471 9.42806C2.51657 9.48685 2.57533 9.54144 2.6314 9.59353C2.7728 9.72489 2.89709 9.84036 3.01084 9.96723C3.16374 10.1378 3.24478 10.2747 3.27496 10.3972L3.27498 10.3973C3.33716 10.6494 3.29314 10.8068 3.21516 10.9273C3.12445 11.0676 2.95282 11.2093 2.67885 11.3453C2.09356 11.6354 1.73945 12.0733 1.67139 12.5913C1.60607 13.0886 1.82094 13.5443 2.12538 13.8533C2.42932 14.1618 2.87706 14.3804 3.36244 14.3421C3.87542 14.3017 4.32483 13.9838 4.61493 13.423C4.78399 13.0965 4.91646 12.9086 5.05526 12.8054C5.16258 12.7257 5.31515 12.6655 5.62357 12.7226L5.62503 12.7229C5.66362 12.7299 5.75392 12.7662 5.89934 12.8744C6.03652 12.9765 6.18468 13.1134 6.33736 13.2673C6.44762 13.3785 6.55085 13.4887 6.65118 13.5958C6.69087 13.6382 6.7301 13.6801 6.76913 13.7214C6.88901 13.8481 7.03637 14.0019 7.16641 14.0925L7.16657 14.0927C7.48397 14.3138 7.82463 14.3821 8.15722 14.3276C8.47033 14.2762 8.74237 14.1219 8.9618 13.9606C9.18355 13.7977 9.38523 13.6022 9.55419 13.4311C9.60829 13.3763 9.65774 13.3254 9.70368 13.2782C9.81215 13.1667 9.90109 13.0752 9.9857 12.9993L9.98571 12.9993L9.98827 12.997C10.0697 12.9229 10.1315 12.8297 10.1679 12.7258C10.2044 12.6219 10.2145 12.5102 10.1969 12.4008C10.1792 12.2915 10.1342 12.188 10.0657 12.1001C9.99713 12.0122 9.90739 11.9431 9.80479 11.8994L9.60858 12.3593L9.80612 11.8999C9.1324 11.6102 8.80284 11.1929 8.67222 10.7864C8.53788 10.3683 8.59497 9.90206 8.80512 9.49551C9.01584 9.08788 9.36347 8.77333 9.76469 8.6402C10.1513 8.51193 10.632 8.53654 11.1665 8.88423L12.8782 4.91984ZM2.22051 9.39205C1.96361 9.11833 1.77304 8.87391 1.70437 8.73556L2.22051 9.39205ZM13.0273 5.0061C12.9571 5.08749 12.9078 5.18479 12.8837 5.28955M13.0273 5.0061L12.8837 5.28955M12.8837 5.28955C12.8597 5.3943 12.8615 5.50333 12.8892 5.60718M12.8837 5.28955L12.8892 5.60718M12.8892 5.60718C12.9168 5.71101 12.9693 5.80655 13.0422 5.8855L12.8892 5.60718ZM12.4637 4.64011C12.6037 4.43269 12.7924 4.28888 13.0296 4.20869L13.0802 6.83441C12.467 6.23817 11.8125 5.60185 12.4637 4.64011Z" fill="#212636" stroke="#212636"/>
</svg>
