<svg width="16" height="16" viewBox="0 0 16 16" fill="none" xmlns="http://www.w3.org/2000/svg">
<g id="technology/ic-integration-16">
<g id="Vector">
<path fill-rule="evenodd" clip-rule="evenodd" d="M7.08873 10.0632C7.4088 9.97741 7.73781 10.1674 7.82357 10.4874L8.64435 13.5506L11.7075 12.7298C12.0276 12.6441 12.3566 12.834 12.4424 13.1541C12.5281 13.4742 12.3382 13.8032 12.0181 13.889L8.37538 14.865C8.0553 14.9508 7.72629 14.7608 7.64053 14.4408L6.66446 10.798C6.5787 10.4779 6.76865 10.1489 7.08873 10.0632Z" fill="#212636"/>
<path fill-rule="evenodd" clip-rule="evenodd" d="M13.8534 4.52825C14.1404 4.69393 14.2387 5.06089 14.073 5.34786L8.7397 14.5855C8.57401 14.8724 8.20706 14.9708 7.92008 14.8051C7.63311 14.6394 7.53478 14.2724 7.70047 13.9855L13.0338 4.74786C13.1995 4.46089 13.5664 4.36256 13.8534 4.52825Z" fill="#212636"/>
<path fill-rule="evenodd" clip-rule="evenodd" d="M7.62462 1.13497C7.9447 1.04921 8.27371 1.23916 8.35947 1.55924L9.33554 5.20197C9.4213 5.52205 9.23135 5.85105 8.91127 5.93682C8.59119 6.02258 8.26219 5.83263 8.17643 5.51255L7.35565 2.44938L4.29247 3.27015C3.97239 3.35592 3.64339 3.16597 3.55762 2.84589C3.47186 2.52581 3.66181 2.19681 3.98189 2.11104L7.62462 1.13497Z" fill="#212636"/>
<path fill-rule="evenodd" clip-rule="evenodd" d="M8.07992 1.19491C8.36689 1.3606 8.46522 1.72755 8.29953 2.01453L2.9662 11.2521C2.80051 11.5391 2.43356 11.6374 2.14658 11.4717C1.85961 11.3061 1.76128 10.9391 1.92697 10.6521L7.2603 1.41453C7.42599 1.12755 7.79294 1.02923 8.07992 1.19491Z" fill="#212636"/>
</g>
</g>
</svg>
