<svg width="16" height="16" viewBox="0 0 16 16" fill="none" xmlns="http://www.w3.org/2000/svg">
<g id="technology/ic-lock-16">
<g id="Vector">
<path fill-rule="evenodd" clip-rule="evenodd" d="M3.33333 7.93334C2.92832 7.93334 2.6 8.26166 2.6 8.66667V13.3333C2.6 13.7383 2.92832 14.0667 3.33333 14.0667H12.6667C13.0717 14.0667 13.4 13.7383 13.4 13.3333V8.66667C13.4 8.26166 13.0717 7.93334 12.6667 7.93334H3.33333ZM1.4 8.66667C1.4 7.59892 2.26558 6.73334 3.33333 6.73334H12.6667C13.7344 6.73334 14.6 7.59892 14.6 8.66667V13.3333C14.6 14.4011 13.7344 15.2667 12.6667 15.2667H3.33333C2.26558 15.2667 1.4 14.4011 1.4 13.3333V8.66667Z" fill="#212636"/>
<path fill-rule="evenodd" clip-rule="evenodd" d="M8 1.93334C7.27507 1.93334 6.57984 2.22131 6.06724 2.73391C5.55464 3.24651 5.26667 3.94175 5.26667 4.66667V7.33334C5.26667 7.66471 4.99804 7.93334 4.66667 7.93334C4.3353 7.93334 4.06667 7.66471 4.06667 7.33334V4.66667C4.06667 3.62349 4.48107 2.62303 5.21871 1.88538C5.95636 1.14774 6.95681 0.733337 8 0.733337C9.04318 0.733337 10.0436 1.14774 10.7813 1.88538C11.5189 2.62303 11.9333 3.62349 11.9333 4.66667V7.33334C11.9333 7.66471 11.6647 7.93334 11.3333 7.93334C11.002 7.93334 10.7333 7.66471 10.7333 7.33334V4.66667C10.7333 3.94175 10.4454 3.24651 9.93276 2.73391C9.42016 2.22131 8.72492 1.93334 8 1.93334Z" fill="#212636"/>
</g>
</g>
</svg>
