<svg width="16" height="16" viewBox="0 0 16 16" fill="none" xmlns="http://www.w3.org/2000/svg">
<g id="basic/ic-logout-16">
<g id="Vector">
<path fill-rule="evenodd" clip-rule="evenodd" d="M9.39999 1.99999C9.39999 1.66862 9.66862 1.39999 9.99999 1.39999H12.6667C13.1794 1.39999 13.6712 1.60368 14.0337 1.96625C14.3963 2.32882 14.6 2.82058 14.6 3.33333V12.6667C14.6 13.1794 14.3963 13.6712 14.0337 14.0337C13.6712 14.3963 13.1794 14.6 12.6667 14.6H9.99999C9.66862 14.6 9.39999 14.3314 9.39999 14C9.39999 13.6686 9.66862 13.4 9.99999 13.4H12.6667C12.8612 13.4 13.0477 13.3227 13.1852 13.1852C13.3227 13.0477 13.4 12.8612 13.4 12.6667V3.33333C13.4 3.13884 13.3227 2.95231 13.1852 2.81478C13.0477 2.67726 12.8612 2.59999 12.6667 2.59999H9.99999C9.66862 2.59999 9.39999 2.33136 9.39999 1.99999Z" fill="#212636"/>
<path fill-rule="evenodd" clip-rule="evenodd" d="M6.2424 4.2424C6.47671 4.00808 6.85661 4.00808 7.09092 4.2424L10.4243 7.57573C10.5368 7.68825 10.6 7.84086 10.6 7.99999C10.6 8.15912 10.5368 8.31174 10.4243 8.42426L7.09092 11.7576C6.85661 11.9919 6.47671 11.9919 6.2424 11.7576C6.00808 11.5233 6.00808 11.1434 6.2424 10.9091L9.15147 7.99999L6.2424 5.09092C6.00808 4.85661 6.00808 4.47671 6.2424 4.2424Z" fill="#212636"/>
<path fill-rule="evenodd" clip-rule="evenodd" d="M1.39999 7.99999C1.39999 7.66862 1.66862 7.39999 1.99999 7.39999H9.99999C10.3314 7.39999 10.6 7.66862 10.6 7.99999C10.6 8.33136 10.3314 8.59999 9.99999 8.59999H1.99999C1.66862 8.59999 1.39999 8.33137 1.39999 7.99999Z" fill="#212636"/>
</g>
</g>
</svg>
