<svg width="16" height="16" viewBox="0 0 16 16" fill="none" xmlns="http://www.w3.org/2000/svg">
<g id="technology/ic-table-16">
<g id="Vector">
<path fill-rule="evenodd" clip-rule="evenodd" d="M3.33333 2.60002C2.92832 2.60002 2.6 2.92835 2.6 3.33336V12.6667C2.6 13.0717 2.92832 13.4 3.33333 13.4H12.6667C13.0717 13.4 13.4 13.0717 13.4 12.6667V3.33336C13.4 2.92835 13.0717 2.60002 12.6667 2.60002H3.33333ZM1.4 3.33336C1.4 2.26561 2.26558 1.40002 3.33333 1.40002H12.6667C13.7344 1.40002 14.6 2.26561 14.6 3.33336V12.6667C14.6 13.7344 13.7344 14.6 12.6667 14.6H3.33333C2.26558 14.6 1.4 13.7344 1.4 12.6667V3.33336Z" fill="#212636"/>
<path fill-rule="evenodd" clip-rule="evenodd" d="M1.4 6.00002C1.4 5.66865 1.66863 5.40002 2 5.40002H14C14.3314 5.40002 14.6 5.66865 14.6 6.00002C14.6 6.3314 14.3314 6.60002 14 6.60002H2C1.66863 6.60002 1.4 6.3314 1.4 6.00002Z" fill="#212636"/>
<path fill-rule="evenodd" clip-rule="evenodd" d="M1.4 10C1.4 9.66865 1.66863 9.40002 2 9.40002H14C14.3314 9.40002 14.6 9.66865 14.6 10C14.6 10.3314 14.3314 10.6 14 10.6H2C1.66863 10.6 1.4 10.3314 1.4 10Z" fill="#212636"/>
<path fill-rule="evenodd" clip-rule="evenodd" d="M8 1.40002C8.33137 1.40002 8.6 1.66865 8.6 2.00002V14C8.6 14.3314 8.33137 14.6 8 14.6C7.66863 14.6 7.4 14.3314 7.4 14V2.00002C7.4 1.66865 7.66863 1.40002 8 1.40002Z" fill="#212636"/>
</g>
</g>
</svg>
