<svg width="16" height="16" viewBox="0 0 16 16" fill="none" xmlns="http://www.w3.org/2000/svg">
<g id="technology/ic-terminal-16">
<g id="Vector">
<path fill-rule="evenodd" clip-rule="evenodd" d="M2.2424 2.90907C2.47672 2.67476 2.85662 2.67476 3.09093 2.90907L7.09093 6.90907C7.32525 7.14339 7.32525 7.52329 7.09093 7.7576L3.09093 11.7576C2.85662 11.9919 2.47672 11.9919 2.2424 11.7576C2.00809 11.5233 2.00809 11.1434 2.2424 10.9091L5.81814 7.33334L2.2424 3.7576C2.00809 3.52329 2.00809 3.14339 2.2424 2.90907Z" fill="#212636"/>
<path fill-rule="evenodd" clip-rule="evenodd" d="M7.4 12.6667C7.4 12.3353 7.66863 12.0667 8 12.0667H13.3333C13.6647 12.0667 13.9333 12.3353 13.9333 12.6667C13.9333 12.998 13.6647 13.2667 13.3333 13.2667H8C7.66863 13.2667 7.4 12.998 7.4 12.6667Z" fill="#212636"/>
</g>
</g>
</svg>
