<svg width="16" height="16" viewBox="0 0 16 16" fill="none" xmlns="http://www.w3.org/2000/svg">
<g id="technology/ic-users-16">
<g id="Vector">
<path fill-rule="evenodd" clip-rule="evenodd" d="M2.08064 9.41397C2.94331 8.55131 4.11334 8.06666 5.33333 8.06666C6.55333 8.06666 7.72336 8.55131 8.58602 9.41397C9.44869 10.2766 9.93333 11.4467 9.93333 12.6667C9.93333 12.998 9.6647 13.2667 9.33333 13.2667C9.00196 13.2667 8.73333 12.998 8.73333 12.6667C8.73333 11.7649 8.37512 10.9001 7.7375 10.2625C7.09987 9.62488 6.23507 9.26666 5.33333 9.26666C4.4316 9.26666 3.56679 9.62488 2.92917 10.2625C2.29155 10.9001 1.93333 11.7649 1.93333 12.6667C1.93333 12.998 1.6647 13.2667 1.33333 13.2667C1.00196 13.2667 0.733334 12.998 0.733334 12.6667C0.733334 11.4467 1.21797 10.2766 2.08064 9.41397Z" fill="#212636"/>
<path fill-rule="evenodd" clip-rule="evenodd" d="M5.33333 3.93333C4.19194 3.93333 3.26667 4.85861 3.26667 6C3.26667 7.14139 4.19195 8.06666 5.33333 8.06666C6.47472 8.06666 7.4 7.14139 7.4 6C7.4 4.85861 6.47472 3.93333 5.33333 3.93333ZM2.06667 6C2.06667 4.19587 3.5292 2.73333 5.33333 2.73333C7.13746 2.73333 8.6 4.19587 8.6 6C8.6 7.80413 7.13746 9.26666 5.33333 9.26666C3.5292 9.26666 2.06667 7.80413 2.06667 6Z" fill="#212636"/>
<path fill-rule="evenodd" clip-rule="evenodd" d="M10.0667 3.33333C10.0667 3.00196 10.3353 2.73333 10.6667 2.73333C11.533 2.73333 12.3639 3.0775 12.9765 3.69011C13.5892 4.30273 13.9333 5.13362 13.9333 6C13.9333 6.86637 13.5892 7.69726 12.9765 8.30988C12.8925 8.39393 12.8043 8.47292 12.7126 8.54667C13.1551 8.76641 13.5634 9.05801 13.9194 9.41397C14.782 10.2766 15.2667 11.4467 15.2667 12.6667C15.2667 12.998 14.998 13.2667 14.6667 13.2667C14.3353 13.2667 14.0667 12.998 14.0667 12.6667C14.0667 11.7649 13.7085 10.9001 13.0708 10.2625C12.4332 9.62488 11.5684 9.26666 10.6667 9.26666C10.3353 9.26666 10.0667 8.99803 10.0667 8.66666C10.0667 8.33529 10.3353 8.06666 10.6667 8.06666C11.2148 8.06666 11.7404 7.84893 12.128 7.46135C12.5156 7.07378 12.7333 6.54811 12.7333 6C12.7333 5.45188 12.5156 4.92622 12.128 4.53864C11.7404 4.15107 11.2148 3.93333 10.6667 3.93333C10.3353 3.93333 10.0667 3.6647 10.0667 3.33333Z" fill="#212636"/>
</g>
</g>
</svg>
