<svg width="92" height="24" viewBox="0 0 92 24" fill="none" xmlns="http://www.w3.org/2000/svg">
<path d="M15.0567 18.6217L15.0293 21.7385L11.6764 23.7992C11.2587 24.056 10.7347 24.0672 10.3063 23.8287L6.92498 21.9455L6.89281 18.7705L10.3521 20.7003C10.7806 20.9394 11.3051 20.9283 11.7232 20.6712L15.0567 18.6217ZM5.70969 2.93245L5.68192 6.12096L3.81051 7.27957C3.41202 7.52628 3.16961 7.96121 3.16961 8.42942V15.7485C3.16961 16.2209 3.41629 16.659 3.8204 16.9045L5.57861 17.9722L5.55118 21.111L1.15078 18.4383C0.746672 18.1929 0.5 17.7548 0.5 17.2824V6.9107C0.5 6.44245 0.742445 6.00752 1.14097 5.76081L5.70969 2.93245ZM16.2188 3.15366L20.837 5.89252C21.248 6.13628 21.5 6.57835 21.5 7.05576V17.2823C21.5 17.7692 21.238 18.2185 20.814 18.4589L16.3987 20.9619L16.3675 17.8782L18.144 16.8713C18.568 16.631 18.8301 16.1816 18.8301 15.6947V8.60804C18.8301 8.13066 18.5781 7.68866 18.1672 7.44486L16.2507 6.308L16.2188 3.15366ZM11.6839 0.224852L15.197 2.54754L15.1699 5.66705L11.7135 3.37878C11.2777 3.09024 10.7145 3.07793 10.2664 3.34709L6.75834 5.45464L6.7265 2.303L10.2375 0.19364C10.6853 -0.0753998 11.2481 -0.0632539 11.6839 0.224852Z" fill="#353B50"/>
<path d="M13.0404 15.8126L12.5876 14.6362H9.49587C9.22308 15.345 8.54203 15.8126 7.78257 15.8126H6.2101L9.62523 7.02783H12.4582L15.8734 15.8126H13.0404ZM10.2073 12.8076H11.8761L11.0482 10.6722L10.2073 12.8076Z" fill="#353B50"/>
<path d="M35.5401 17.8059L34.974 16.3179H31.1083L30.5422 17.8059H27L30.6347 8.34733C31.0175 7.35137 31.9742 6.69409 33.0411 6.69409C34.1081 6.69409 35.0648 7.35137 35.4475 8.34733L39.0823 17.8059H35.5401ZM31.9979 14.0049H34.0844L33.0492 11.3038L31.9979 14.0049Z" fill="#353B50"/>
<path d="M40.3051 17.8059V6.69409H43.4429V14.6681C43.4429 16.4011 42.0381 17.8059 40.3051 17.8059Z" fill="#353B50"/>
<path d="M45.5807 17.8059V6.69409H49.7214C53.6032 6.69409 56.3529 8.99086 56.3529 12.2419C56.3529 15.493 53.6032 17.8059 49.7214 17.8059H45.5807ZM48.7186 14.9592H50.239C51.9211 14.9592 53.118 13.827 53.118 12.2419C53.118 10.6568 51.9211 9.54079 50.239 9.54079H48.7186V14.9592Z" fill="#353B50"/>
<path d="M57.8063 17.8059V6.69409H63.7908C65.9097 6.69409 67.3815 7.87483 67.3815 9.49227C67.3815 10.5759 66.8154 11.5141 65.845 11.9831C67.1389 12.5331 67.8991 13.5844 67.8991 14.8136C67.8991 16.5928 66.2817 17.8059 64.0173 17.8059H57.8063ZM60.928 11.0127H63.0306C63.6776 11.0127 64.1467 10.6568 64.1467 10.1716C64.1467 9.68636 63.6776 9.33052 63.0306 9.33052H60.928V11.0127ZM60.928 15.1695H63.4997C64.179 15.1695 64.6642 14.7975 64.6642 14.2799C64.6642 13.7623 64.179 13.3903 63.4997 13.3903H60.928V15.1695Z" fill="#353B50"/>
<path d="M74.3277 18C71.0443 18 68.2785 15.3636 68.2785 12.2419C68.2785 9.12025 71.0443 6.5 74.3277 6.5C77.6111 6.5 80.3769 9.12025 80.3769 12.2419C80.3769 15.3636 77.6111 18 74.3277 18ZM74.3277 15.1533C75.8481 15.1533 77.142 13.827 77.142 12.2419C77.142 10.673 75.8481 9.3467 74.3277 9.3467C72.8073 9.3467 71.5133 10.673 71.5133 12.2419C71.5133 13.827 72.8073 15.1533 74.3277 15.1533Z" fill="#353B50"/>
<path d="M91.464 6.69409L87.5174 12.2257L91.464 17.8059H87.7924L85.6735 14.8136L83.5385 17.8059H79.9316L83.8782 12.2743L79.9316 6.69409H83.6032L85.7221 9.68636L87.8571 6.69409H91.464Z" fill="#353B50"/>
</svg>
