<svg width="80" height="80" viewBox="0 0 80 80" fill="none" xmlns="http://www.w3.org/2000/svg">
<path d="M52.3014 59.865L52.2183 69.2154L42.051 75.3977C40.7844 76.168 39.1954 76.2017 37.8964 75.486L27.6429 69.8364L27.5453 60.3114L38.0352 66.1009C39.3347 66.8181 40.9252 66.7848 42.1929 66.0137L52.3014 59.865ZM23.9577 12.7974L23.8735 22.3629L18.1987 25.8387C16.9903 26.5788 16.2552 27.8836 16.2552 29.2883V51.2455C16.2552 52.6626 17.0032 53.977 18.2286 54.7134L23.5602 57.9168L23.477 67.3331L10.1333 59.315C8.90792 58.5786 8.15991 57.2643 8.15991 55.8473V24.7321C8.15991 23.3273 8.8951 22.0226 10.1036 21.2824L23.9577 12.7974ZM55.8254 13.461L69.8294 21.6776C71.0759 22.4088 71.8399 23.7351 71.8399 25.1673V55.8469C71.8399 57.3075 71.0456 58.6556 69.7597 59.3766L56.3708 66.8856L56.2763 57.6347L61.6632 54.6139C62.9491 53.8929 63.7436 52.5449 63.7436 51.0841V29.8241C63.7436 28.392 62.9797 27.066 61.7335 26.3346L55.922 22.924L55.8254 13.461ZM42.0738 4.67456L52.7267 11.6426L52.6445 21.0012L42.1636 14.1363C40.842 13.2707 39.1342 13.2338 37.7754 14.0413L27.1376 20.3639L27.041 10.909L37.6877 4.58092C39.0456 3.7738 40.7524 3.81024 42.0738 4.67456Z" fill="#3E3E3E"/>
<path d="M34.1846 49.31L34.9506 47.7303H45.5204L47.5943 52.7679H56.0524L43.9345 24.3564H36.3303L24.2124 52.7679H28.6269C30.9986 52.7679 33.16 51.4232 34.1846 49.31ZM43.7272 41.6062H37.3584L40.5428 33.4139L43.7272 41.6062Z" fill="#3E3E3E"/>
</svg>
