<svg width="105" height="105" viewBox="0 0 105 105" fill="none" xmlns="http://www.w3.org/2000/svg">
<path d="M81.7901 23.1631C81.5956 22.9863 81.3137 22.9508 81.0784 23.0684L34.152 46.93C33.95 47.0329 33.8176 47.2363 33.8065 47.4627C33.7947 47.6891 33.9049 47.9043 34.0958 48.0279L45.9833 55.6987L47.4532 66.5098C47.4806 66.7125 47.6049 66.89 47.7854 66.9847C47.8786 67.0343 47.9792 67.058 48.0813 67.058C48.1782 67.058 48.2759 67.035 48.3661 66.9899L57.9078 62.1954L65.1732 65.7352C65.3345 65.8144 65.5187 65.8218 65.6836 65.7552C65.8486 65.6901 65.9795 65.5584 66.0424 65.3927C66.0424 65.3927 82.0379 24.19 81.9174 23.9658L81.958 23.8608C82.0513 23.6166 81.9854 23.3392 81.7901 23.1631ZM35.7092 47.5611L78.8635 25.6177L46.1927 54.3249L35.7092 47.5611ZM71.4406 33.8285L75.2246 30.504L71.4931 34.8894C71.4406 34.572 71.4273 34.2495 71.4524 33.921C71.4547 33.8855 71.4443 33.8589 71.4406 33.8285ZM70.7911 35.7142L68.2159 38.7407C68.1478 38.177 68.0798 37.6133 68.0117 37.0495C68.0043 36.9874 67.9836 36.9356 67.9585 36.8875L70.5625 34.6001C70.5913 34.9796 70.6697 35.3503 70.7911 35.7142ZM67.4317 39.6617L65.3737 42.0815C65.2731 41.2256 65.1732 40.3697 65.0726 39.513C65.0696 39.4864 65.0563 39.4671 65.0496 39.4435L67.1802 37.5711C67.2638 38.268 67.3481 38.9648 67.4317 39.6617ZM64.5873 43.0048L62.2917 45.7042C62.1615 44.6486 62.0321 43.5936 61.9019 42.538C61.89 42.4403 61.8479 42.3663 61.7961 42.302L64.2522 40.144C64.3639 41.0976 64.4756 42.0519 64.5873 43.0048ZM61.5098 46.623L59.2409 49.2892C59.0974 47.857 58.9546 46.4255 58.8111 44.9933C58.8089 44.9726 58.7992 44.9578 58.7948 44.9393L61.0578 42.9515C61.2087 44.1751 61.3589 45.3994 61.5098 46.623ZM58.4405 50.2295L56.7959 52.1632C56.5488 50.5572 56.3025 48.9519 56.0554 47.3465L57.9825 45.6524C58.1357 47.1786 58.2873 48.704 58.4405 50.2295ZM56.0347 53.0576L54.0025 55.4456C53.8168 53.5111 53.6304 51.5759 53.4447 49.6406L55.2638 48.0419C55.5205 49.7138 55.778 51.3857 56.0347 53.0576ZM53.1991 56.3911L52.0709 57.7168C52.0569 57.733 52.0473 57.7538 52.0347 57.7715C52.0295 57.7789 52.0214 57.7826 52.0169 57.79C52.0132 57.7967 52.0132 57.8033 52.0095 57.81C52.0021 57.8218 51.9918 57.8329 51.9859 57.8455L51.1455 59.5403C50.945 57.0798 50.7675 54.6178 50.6262 52.1529C50.6254 52.1418 50.6195 52.1344 50.6188 52.124L52.6199 50.3656C52.8129 52.3741 53.006 54.3826 53.1991 56.3911ZM47.2002 55.2385C47.1965 55.2082 47.1773 55.183 47.1699 55.1542L49.7776 52.8623C49.9419 55.6099 50.1379 58.3545 50.3746 61.0968L48.5089 64.8608L47.2002 55.2385ZM49.97 64.7654L52.8107 59.0365L56.6139 61.4268L49.97 64.7654ZM65.1066 64.2934L58.2104 60.9333L53.512 57.9801L79.0115 28.0102L65.1066 64.2934Z" fill="#EA4A35"/>
<path d="M17.7224 60.3873C17.7534 60.3918 17.7845 60.3947 17.8156 60.3947C18.1248 60.3947 18.3956 60.1676 18.4422 59.8525C18.5014 59.4493 18.5753 59.0506 18.6641 58.6548C18.7403 58.313 18.525 57.9742 18.1833 57.898C17.8407 57.8203 17.5027 58.0371 17.4265 58.3788C17.331 58.8042 17.2511 59.234 17.1875 59.6675C17.1365 60.0145 17.3762 60.337 17.7224 60.3873Z" fill="#EA4A35"/>
<path d="M17.8811 65.1763C18.228 65.1274 18.4692 64.8064 18.4211 64.4609C18.3198 63.7352 18.268 62.988 18.268 62.2416L18.2687 62.0366C18.2732 61.686 17.9928 61.399 17.6429 61.3945H17.6355C17.2885 61.3945 17.0059 61.6734 17.0015 62.0211L17 62.2416C17 63.0457 17.0555 63.8513 17.1657 64.6355C17.2094 64.9529 17.4816 65.1822 17.7923 65.1822C17.8219 65.1822 17.8515 65.18 17.8811 65.1763Z" fill="#EA4A35"/>
<path d="M45.7513 72.1517C45.4229 72.0281 45.0574 72.1909 44.9331 72.5179C44.6343 73.2991 44.2799 74.0263 43.8782 74.6788C43.6948 74.9762 43.788 75.3668 44.0861 75.551C44.1897 75.6146 44.3043 75.6457 44.4175 75.6457C44.6306 75.6457 44.8385 75.5384 44.9576 75.3438C45.4007 74.624 45.7906 73.8258 46.1175 72.9714C46.2426 72.6429 46.0791 72.2767 45.7513 72.1517Z" fill="#EA4A35"/>
<path d="M19.7474 68.842C19.3982 68.1333 19.1053 67.3772 18.8759 66.593C18.779 66.2564 18.4269 66.0678 18.0903 66.161C17.7544 66.2594 17.5606 66.6108 17.6597 66.9474C17.9083 67.8018 18.2286 68.6274 18.6111 69.4027C18.7213 69.6261 18.9462 69.7563 19.18 69.7563C19.2747 69.7563 19.3701 69.7349 19.4596 69.6905C19.7733 69.5351 19.902 69.1556 19.7474 68.842Z" fill="#EA4A35"/>
<path d="M31.5226 74.8153C31.4782 74.7132 31.4353 74.6104 31.3961 74.5053C31.6291 74.3182 31.7039 73.9867 31.5581 73.713C31.4568 73.5236 31.2748 73.4075 31.078 73.3823C31.0262 73.1182 30.9885 72.8504 30.9656 72.5767C30.9367 72.2275 30.623 71.9575 30.2813 71.9975C29.9321 72.0263 29.6732 72.3326 29.702 72.681C29.7346 73.0716 29.7923 73.4556 29.8751 73.8292C29.4327 74 28.977 74.1265 28.5139 74.2057C28.1685 74.2641 27.9369 74.5919 27.9954 74.9366C28.0553 75.2828 28.3852 75.5144 28.7277 75.4552C29.2448 75.3664 29.7508 75.2296 30.245 75.0454C30.282 75.1386 30.3197 75.231 30.3604 75.3228C30.4647 75.5602 30.697 75.703 30.9419 75.703C31.027 75.703 31.1128 75.686 31.1949 75.6498C31.516 75.5099 31.6624 75.1363 31.5226 74.8153Z" fill="#EA4A35"/>
<path d="M26.4375 74.2513C25.6763 74.1551 24.9298 73.9339 24.2189 73.5959C23.9037 73.4457 23.5242 73.5796 23.3741 73.8955C23.2239 74.2114 23.3578 74.5901 23.6744 74.7403C24.5074 75.1368 25.384 75.3957 26.2792 75.5089C26.3065 75.5126 26.3332 75.5141 26.3598 75.5141C26.6742 75.5141 26.9472 75.2796 26.9879 74.9593C27.0308 74.6131 26.7844 74.295 26.4375 74.2513Z" fill="#EA4A35"/>
<path d="M42.5806 76.3686C42.0161 76.9501 41.3954 77.4214 40.737 77.7683C40.4278 77.9318 40.3094 78.315 40.4729 78.6257C40.5861 78.8403 40.8058 78.9638 41.0337 78.9638C41.1336 78.9638 41.2349 78.9401 41.3296 78.8906C42.1056 78.4807 42.8328 77.9296 43.4905 77.2534C43.7346 77.0012 43.7287 76.6009 43.4779 76.3568C43.2264 76.1142 42.8247 76.1179 42.5806 76.3686Z" fill="#EA4A35"/>
<path d="M21.492 71.4846C21.2701 71.2279 21.0607 70.9638 20.8632 70.6923C20.6575 70.4089 20.261 70.346 19.9777 70.5524C19.6944 70.7588 19.6322 71.1554 19.8386 71.4387C20.0568 71.7383 20.2877 72.0298 20.5325 72.3131C20.8765 72.7119 21.2471 73.081 21.6355 73.4117C21.7546 73.5138 21.9004 73.5633 22.0461 73.5633C22.2259 73.5633 22.4034 73.4871 22.5292 73.3407C22.7563 73.0744 22.7237 72.6741 22.4574 72.447C22.1186 72.157 21.7938 71.833 21.492 71.4846Z" fill="#EA4A35"/>
<path d="M34.7538 70.1892C34.4564 70.0057 34.065 70.0982 33.8816 70.3971C33.7661 70.5828 33.6604 70.7433 33.5708 70.8691C33.2165 71.3692 32.8222 71.8241 32.3983 72.2243C32.1431 72.4648 32.132 72.8657 32.3724 73.1209C32.4967 73.2534 32.6646 73.3207 32.8333 73.3207C32.9894 73.3207 33.1462 73.263 33.2683 73.1476C33.7521 72.6904 34.2026 72.1703 34.6058 71.6037C34.7086 71.4587 34.8299 71.2759 34.9616 71.0614C35.1451 70.7633 35.0519 70.3727 34.7538 70.1892Z" fill="#EA4A35"/>
<path d="M36.0456 68.9408C36.4177 68.0206 36.6064 67.2083 36.6064 66.5262C36.6064 66.4101 36.6012 66.2961 36.5901 66.1844C36.5546 65.836 36.2446 65.5911 35.8954 65.617C35.5477 65.6525 35.2933 65.9632 35.3288 66.3117C35.3362 66.3812 35.3391 66.453 35.3391 66.5262C35.3391 67.0374 35.1771 67.7084 34.8708 68.4659C34.7392 68.7899 34.896 69.1591 35.2208 69.2915C35.2984 69.3226 35.3783 69.3381 35.4582 69.3381C35.7083 69.3374 35.9457 69.1872 36.0456 68.9408Z" fill="#EA4A35"/>
<path d="M34.4719 77.8703C33.7743 77.5433 33.1581 77.0936 32.6417 76.5343C32.4035 76.2776 32.0018 76.262 31.7458 76.4988C31.4884 76.7362 31.4729 77.1379 31.7103 77.3954C32.3384 78.0752 33.0871 78.6219 33.9341 79.0177C34.0207 79.0591 34.1124 79.0784 34.2026 79.0784C34.4409 79.0784 34.6694 78.943 34.7774 78.7137C34.9254 78.3963 34.7893 78.019 34.4719 77.8703Z" fill="#EA4A35"/>
<path d="M30.3382 70.9921C30.3767 70.9995 30.4159 71.0024 30.4544 71.0024C30.754 71.0024 31.0203 70.7879 31.0765 70.4839C31.1431 70.1228 31.2356 69.7618 31.3495 69.4112C31.4538 69.0886 31.6284 68.667 31.8282 68.2542C31.9813 67.939 31.8496 67.5595 31.5337 67.4071C31.2171 67.251 30.8398 67.3864 30.6874 67.7015C30.464 68.1639 30.2657 68.644 30.1437 69.0184C30.0127 69.4208 29.907 69.8366 29.83 70.2523C29.7664 70.597 29.9935 70.9285 30.3382 70.9921Z" fill="#EA4A35"/>
<path d="M32.0449 66.5343C32.1618 66.6275 32.3016 66.6726 32.4407 66.6726C32.6263 66.6726 32.8113 66.5905 32.9356 66.4344C33.4749 65.7605 34.006 65.3898 34.4314 65.3898L34.5113 64.7581L34.4699 65.3913C34.8094 65.4113 35.1209 65.1487 35.1438 64.7995C35.1667 64.4511 34.9019 64.1485 34.5527 64.1256C34.5387 64.1248 34.4455 64.1219 34.4314 64.1219C33.5895 64.1219 32.7536 64.6338 31.9457 65.6428C31.7268 65.9166 31.7712 66.3153 32.0449 66.5343Z" fill="#EA4A35"/>
<path d="M38.7848 78.4284C38.0546 78.552 37.2638 78.5586 36.4656 78.4447C36.1193 78.4011 35.7975 78.637 35.7494 78.984C35.7006 79.331 35.9418 79.652 36.288 79.7016C36.7274 79.7637 37.1676 79.7948 37.5967 79.7948C38.0738 79.7948 38.5451 79.7556 38.9971 79.6779C39.3426 79.6195 39.5748 79.2917 39.5157 78.947C39.4572 78.6015 39.128 78.37 38.7848 78.4284Z" fill="#EA4A35"/>
<path d="M46.5162 68.6443C46.1737 68.5969 45.8474 68.8322 45.7956 69.1791C45.7365 69.5786 45.6617 69.9803 45.5722 70.379C45.4953 70.7208 45.7106 71.0596 46.0516 71.1366C46.0982 71.1469 46.1448 71.1521 46.1907 71.1521C46.4807 71.1521 46.7426 70.9516 46.8091 70.6572C46.9053 70.2281 46.986 69.7954 47.0496 69.3641C47.1014 69.0179 46.8632 68.6961 46.5162 68.6443Z" fill="#EA4A35"/>
<path d="M65.0723 60.0259C65.5517 58.8763 66.0318 57.7259 66.5111 56.5756C66.7331 56.0444 65.8675 55.8136 65.6486 56.3381C65.1692 57.4877 64.6891 58.6381 64.2097 59.7884C63.9885 60.3189 64.854 60.5504 65.0723 60.0259Z" fill="#EA4A35"/>
<path d="M67.4707 54.2785C68.4302 51.9785 69.3897 49.6785 70.3492 47.3786C70.5712 46.8474 69.7056 46.6166 69.4866 47.1411C68.5271 49.4411 67.5676 51.741 66.6082 54.041C66.387 54.5714 67.2518 54.803 67.4707 54.2785Z" fill="#EA4A35"/>
<circle cx="52.5" cy="52.5" r="50.5" stroke="#EA4A35" stroke-width="4"/>
</svg>
