<svg width="30" height="25" viewBox="0 0 30 25" fill="none" xmlns="http://www.w3.org/2000/svg">
<path d="M19.0364 6.64833H19.9514L22.5591 4.04057L22.6872 2.93342C21.1933 1.61487 19.388 0.69891 17.4417 0.272081C15.4953 -0.154749 13.4724 -0.0783608 11.5638 0.494029C9.6552 1.06642 7.92405 2.11591 6.53385 3.54337C5.14366 4.97083 4.14031 6.72913 3.61859 8.65218C3.90911 8.5331 4.23092 8.51379 4.53359 8.59728L9.7491 7.73718C9.7491 7.73718 10.0144 7.29798 10.1517 7.32543C11.2692 6.09811 12.8136 5.34436 14.4687 5.21848C16.1238 5.09261 17.7644 5.60413 19.0547 6.64833H19.0364Z" fill="#EA4335"/>
<path d="M26.2741 8.65214C25.6746 6.44482 24.444 4.46047 22.733 2.94254L19.073 6.60254C19.8358 7.2258 20.4471 8.01415 20.8608 8.9081C21.2745 9.80206 21.4797 10.7783 21.4611 11.7631V12.4128C21.8889 12.4128 22.3125 12.4971 22.7077 12.6608C23.1029 12.8245 23.462 13.0644 23.7645 13.3669C24.067 13.6693 24.3069 14.0284 24.4706 14.4236C24.6343 14.8189 24.7186 15.2424 24.7186 15.6702C24.7186 16.098 24.6343 16.5215 24.4706 16.9168C24.3069 17.312 24.067 17.6711 23.7645 17.9735C23.462 18.276 23.1029 18.5159 22.7077 18.6796C22.3125 18.8433 21.8889 18.9276 21.4611 18.9276H14.9463L14.2967 19.5864V23.4935L14.9463 24.1431H21.4611C23.2804 24.1573 25.0559 23.5855 26.525 22.5124C27.994 21.4392 29.0787 19.9217 29.6185 18.1844C30.1583 16.447 30.1245 14.582 29.5222 12.8653C28.9199 11.1486 27.781 9.6714 26.2741 8.65214Z" fill="#4285F4"/>
<path d="M8.42235 24.1065H14.9372V18.891H8.42235C7.9582 18.8909 7.49949 18.791 7.0773 18.5982L6.1623 18.8818L3.53625 21.4896L3.3075 22.4046C4.78013 23.5166 6.57705 24.1145 8.42235 24.1065Z" fill="#34A853"/>
<path d="M8.4223 7.18815C6.6571 7.19869 4.93927 7.7603 3.50874 8.79453C2.07821 9.82875 1.00642 11.284 0.443063 12.9569C-0.120289 14.6298 -0.147071 16.4369 0.36646 18.1258C0.87999 19.8147 1.90819 21.301 3.30744 22.3772L7.08639 18.5982C6.60617 18.3812 6.18575 18.051 5.86121 17.6358C5.53667 17.2207 5.3177 16.733 5.22308 16.2146C5.12847 15.6962 5.16104 15.1626 5.31799 14.6595C5.47495 14.1565 5.7516 13.699 6.12422 13.3264C6.49684 12.9538 6.9543 12.6771 7.45735 12.5202C7.96039 12.3632 8.49401 12.3306 9.01241 12.4252C9.53081 12.5199 10.0185 12.7388 10.4337 13.0634C10.8489 13.3879 11.1791 13.8083 11.396 14.2886L15.175 10.5096C14.3818 9.47268 13.3596 8.6333 12.1881 8.0571C11.0166 7.4809 9.72778 7.18349 8.4223 7.18815Z" fill="#FBBC05"/>
</svg>
