<svg width="20" height="20" viewBox="0 0 15 18" fill="none" xmlns="http://www.w3.org/2000/svg">
<path d="M13.4211 16.0428H4.73684V4.81283H13.4211M13.4211 3.20856H4.73684C4.31808 3.20856 3.91647 3.37758 3.62036 3.67844C3.32425 3.9793 3.15789 4.38735 3.15789 4.81283V16.0428C3.15789 16.4683 3.32425 16.8763 3.62036 17.1772C3.91647 17.478 4.31808 17.6471 4.73684 17.6471H13.4211C13.8398 17.6471 14.2414 17.478 14.5375 17.1772C14.8336 16.8763 15 16.4683 15 16.0428V4.81283C15 4.38735 14.8336 3.9793 14.5375 3.67844C14.2414 3.37758 13.8398 3.20856 13.4211 3.20856ZM11.0526 0H1.57895C1.16018 0 0.758573 0.169022 0.462463 0.469882C0.166353 0.770743 0 1.1788 0 1.60428V12.8342H1.57895V1.60428H11.0526V0Z" fill="black"/>
</svg>
