<svg width="28" height="20" viewBox="0 0 28 20" fill="none" xmlns="http://www.w3.org/2000/svg">
<path d="M27.734 7.55928C27.65 7.50349 26.95 6.95955 25.438 6.95955C25.046 6.95955 24.654 7.00139 24.262 7.07113C23.968 5.11855 22.33 4.12831 22.26 4.08647L21.854 3.84937L21.602 4.22594C21.266 4.72803 21 5.29986 20.888 5.88564C20.608 7.0014 20.776 8.06137 21.35 8.96792C20.664 9.35844 19.544 9.45607 19.306 9.45607H0.868C0.392 9.45607 0 9.84658 0 10.3347C0 11.9386 0.252 13.5425 0.812 15.0488C1.442 16.7085 2.394 17.9358 3.612 18.689C4.984 19.5258 7.238 20 9.8 20C10.906 20 12.054 19.9024 13.188 19.6932C14.756 19.4142 16.268 18.8703 17.654 18.0753C18.802 17.4198 19.824 16.583 20.692 15.5788C22.162 13.947 23.03 12.0921 23.66 10.4881H23.926C25.522 10.4881 26.516 9.84658 27.062 9.30265C27.426 8.96792 27.692 8.56346 27.888 8.08926L28 7.75453L27.734 7.55928ZM2.59 8.94003H5.054C5.166 8.94003 5.278 8.8424 5.278 8.71688V6.51325C5.278 6.40167 5.18 6.2901 5.054 6.2901H2.59C2.464 6.2901 2.366 6.38773 2.366 6.51325V8.71688C2.38 8.8424 2.464 8.94003 2.59 8.94003ZM5.992 8.94003H8.456C8.568 8.94003 8.68 8.8424 8.68 8.71688V6.51325C8.68 6.40167 8.582 6.2901 8.456 6.2901H5.992C5.866 6.2901 5.768 6.38773 5.768 6.51325V8.71688C5.782 8.8424 5.866 8.94003 5.992 8.94003ZM9.45 8.94003H11.9C12.04 8.94003 12.138 8.8424 12.138 8.71688V6.51325C12.138 6.40167 12.054 6.2901 11.9 6.2901H9.45C9.338 6.2901 9.24 6.38773 9.24 6.51325V8.71688C9.24 8.8424 9.324 8.94003 9.45 8.94003ZM12.866 8.94003H15.344C15.456 8.94003 15.554 8.8424 15.554 8.71688V6.51325C15.554 6.40167 15.47 6.2901 15.344 6.2901H12.866C12.754 6.2901 12.656 6.38773 12.656 6.51325V8.71688C12.656 8.8424 12.754 8.94003 12.866 8.94003ZM5.992 5.8159H8.456C8.568 5.8159 8.68 5.69038 8.68 5.56485V3.37517C8.68 3.24965 8.582 3.15202 8.456 3.15202H5.992C5.866 3.15202 5.768 3.2357 5.768 3.37517V5.56485C5.782 5.69038 5.866 5.8159 5.992 5.8159ZM9.45 5.8159H11.9C12.04 5.8159 12.138 5.69038 12.138 5.56485V3.37517C12.138 3.24965 12.054 3.15202 11.9 3.15202H9.45C9.338 3.15202 9.24 3.2357 9.24 3.37517V5.56485C9.24 5.69038 9.324 5.8159 9.45 5.8159ZM12.866 5.8159H15.344C15.456 5.8159 15.554 5.69038 15.554 5.56485V3.37517C15.554 3.24965 15.456 3.15202 15.344 3.15202H12.866C12.754 3.15202 12.656 3.2357 12.656 3.37517V5.56485C12.656 5.69038 12.754 5.8159 12.866 5.8159ZM12.866 2.63598H15.344C15.456 2.63598 15.554 2.53835 15.554 2.41283V0.237099C15.554 0.0976291 15.456 0 15.344 0H12.866C12.754 0 12.656 0.0836821 12.656 0.237099V2.41283C12.656 2.52441 12.754 2.63598 12.866 2.63598ZM16.31 8.94003H18.774C18.9 8.94003 18.998 8.8424 18.998 8.71688V6.51325C18.998 6.40167 18.9 6.2901 18.774 6.2901H16.31C16.198 6.2901 16.1 6.38773 16.1 6.51325V8.71688C16.1 8.8424 16.198 8.94003 16.31 8.94003Z" fill="black"/>
</svg>
