<svg width="105" height="105" viewBox="0 0 105 105" fill="none" xmlns="http://www.w3.org/2000/svg">
<path d="M52.4989 0C23.5497 0 0 23.5515 0 52.5C0 81.4485 23.5497 105 52.4989 105C81.4482 105 105 81.4485 105 52.5C105 23.5515 81.4482 0 52.4989 0ZM52.4989 98.1146C27.3472 98.1146 6.88537 77.6517 6.88537 52.5C6.88537 27.348 27.347 6.88564 52.4989 6.88564C77.6509 6.88564 98.1138 27.3483 98.1138 52.5C98.1141 77.6517 77.6507 98.1146 52.4989 98.1146Z" fill="#EA4A35"/>
<path d="M71.5056 35.3125L44.4337 62.3831L33.4903 51.4421C32.1455 50.0989 29.9671 50.0981 28.6223 51.4429C27.277 52.7882 27.277 54.967 28.6223 56.3117L42.0001 69.6874C42.6723 70.3589 43.553 70.6949 44.4337 70.6949C45.3144 70.6949 46.1974 70.3589 46.8694 69.6864C46.8715 69.6835 46.8731 69.6806 46.8765 69.6772L76.3734 40.1806C77.7187 38.8366 77.7187 36.6563 76.3734 35.3123C75.0289 33.9675 72.8488 33.9675 71.5056 35.3125Z" fill="#EA4A35"/>
</svg>
