<svg width="21" height="20" viewBox="0 0 21 20" fill="none" xmlns="http://www.w3.org/2000/svg">
<path d="M20.7914 9.27733C19.9476 7.49962 18.9434 6.0498 17.7789 4.92787L16.5576 6.14917C17.5535 7.10092 18.421 8.34599 19.1711 9.89663C17.174 14.0301 14.3392 15.9936 10.465 15.9936C9.30209 15.9936 8.23097 15.8145 7.25162 15.4564L5.92829 16.7797C7.2885 17.4078 8.80073 17.7218 10.465 17.7218C15.0785 17.7218 18.5206 15.3191 20.7914 10.5135C20.8827 10.3203 20.93 10.1092 20.93 9.89543C20.93 9.68169 20.8827 9.4706 20.7914 9.27733V9.27733ZM19.2655 1.5808L18.2422 0.55632C18.2243 0.538465 18.2032 0.524302 18.1798 0.514638C18.1565 0.504974 18.1316 0.5 18.1063 0.5C18.0811 0.5 18.0561 0.504974 18.0328 0.514638C18.0095 0.524302 17.9883 0.538465 17.9705 0.55632L15.3452 3.1804C13.8978 2.44109 12.271 2.07143 10.465 2.07143C5.85148 2.07143 2.40936 4.4742 0.13861 9.27973C0.0473368 9.473 0 9.68409 0 9.89783C0 10.1116 0.0473368 10.3227 0.13861 10.5159C1.04579 12.4266 2.13796 13.9581 3.41511 15.1105L0.875042 17.6498C0.839057 17.6858 0.818843 17.7346 0.818843 17.7856C0.818843 17.8365 0.839057 17.8853 0.875042 17.9213L1.89976 18.946C1.93577 18.982 1.98459 19.0022 2.0355 19.0022C2.08641 19.0022 2.13523 18.982 2.17124 18.946L19.2655 1.85252C19.2833 1.83468 19.2975 1.8135 19.3071 1.79019C19.3168 1.76688 19.3218 1.74189 19.3218 1.71666C19.3218 1.69142 19.3168 1.66643 19.3071 1.64312C19.2975 1.61981 19.2833 1.59863 19.2655 1.5808ZM1.75886 9.89663C3.75836 5.7632 6.5932 3.79969 10.465 3.79969C11.7741 3.79969 12.9645 4.02437 14.0444 4.48116L12.357 6.16862C11.5578 5.74222 10.6428 5.58398 9.74681 5.71722C8.85087 5.85046 8.02147 6.26814 7.38098 6.90863C6.74048 7.54912 6.32281 8.37852 6.18956 9.27446C6.05632 10.1704 6.21457 11.0855 6.64096 11.8846L4.63858 13.887C3.53033 12.9088 2.57498 11.5836 1.75886 9.89663ZM7.68056 9.89663C7.68098 9.47336 7.78124 9.05615 7.97319 8.67891C8.16514 8.30167 8.44338 7.97503 8.78529 7.72552C9.1272 7.47601 9.52314 7.31067 9.94095 7.24293C10.3588 7.17519 10.7867 7.20697 11.1899 7.33568L7.80802 10.7176C7.72326 10.4522 7.68026 10.1752 7.68056 9.89663V9.89663Z" fill="black" fill-opacity="0.45"/>
<path d="M10.3704 12.5893C10.2873 12.5893 10.2055 12.5854 10.1243 12.578L8.85645 13.8459C9.61902 14.1379 10.4499 14.2028 11.2485 14.0327C12.0472 13.8626 12.7795 13.4648 13.3569 12.8874C13.9343 12.31 14.3321 11.5777 14.5022 10.779C14.6723 9.98038 14.6074 9.14954 14.3154 8.38696L13.0475 9.65484C13.0549 9.73597 13.0588 9.81782 13.0588 9.90087C13.059 10.254 12.9895 10.6036 12.8545 10.9299C12.7195 11.2562 12.5215 11.5526 12.2718 11.8023C12.0221 12.052 11.7256 12.25 11.3994 12.385C11.0731 12.5201 10.7235 12.5895 10.3704 12.5893V12.5893Z" fill="black" fill-opacity="0.45"/>
</svg>
