<svg width="179" height="47" viewBox="0 0 179 47" fill="none" xmlns="http://www.w3.org/2000/svg">
<path fill-rule="evenodd" clip-rule="evenodd" d="M78.6494 17.5022V8.84541C78.6494 6.71329 80.3803 4.98486 82.5155 4.98486L83.1249 4.98486L91.7797 4.98486V8.84541H83.1249V11.3239H90.9598V14.9104H83.1249V17.5031H91.8936V21.3637H83.0085H82.5165C80.3808 21.3637 78.6494 19.6348 78.6494 17.5022Z" fill="#404040"/>
<path fill-rule="evenodd" clip-rule="evenodd" d="M112.27 21.3637V4.98486H116.714V17.3889H124.495V21.3637H112.27Z" fill="#404040"/>
<path fill-rule="evenodd" clip-rule="evenodd" d="M123.476 8.97105V4.98486H137.739V8.97105H132.852V21.3637H128.351V8.97105H123.476Z" fill="#404040"/>
<path fill-rule="evenodd" clip-rule="evenodd" d="M139.776 17.803V4.98486H144.115V11.1183H149.689V4.98486H152.613C153.401 4.98486 154.039 5.62252 154.039 6.40911V21.3637H149.689V15.1388H144.115V21.3637H143.342C141.373 21.3637 139.776 19.7695 139.776 17.803Z" fill="#404040"/>
<path fill-rule="evenodd" clip-rule="evenodd" d="M61.3301 21.3637V15.8982V6.76517C61.3301 5.78193 62.1283 4.98486 63.1129 4.98486H65.6691V11.1183H71.2431V4.98486H75.593V17.02C75.593 19.4189 73.6455 21.3637 71.2431 21.3637V15.1388H65.6691V21.3637H61.3301Z" fill="#404040"/>
<path fill-rule="evenodd" clip-rule="evenodd" d="M92.9121 21.1105L98.7293 6.89687C99.2026 5.7405 100.329 4.98486 101.58 4.98486C102.831 4.98486 103.958 5.74079 104.43 6.89732L110.238 21.1105H105.636L104.502 18.2516H98.5289L97.4272 21.1105H92.9121ZM99.9783 14.9573H103.456L101.728 10.401L99.9783 14.9573Z" fill="#404040"/>
<path fill-rule="evenodd" clip-rule="evenodd" d="M173.5 41.1459V31.6096H178.045V34.4318V36.6072C178.045 39.1138 176.01 41.1459 173.5 41.1459Z" fill="#404040"/>
<path fill-rule="evenodd" clip-rule="evenodd" d="M140.609 41.0776V25.2255H147.868C150.24 25.2255 152.008 25.7929 153.175 26.9279C154.137 27.8638 154.618 29.1166 154.618 30.6864C154.618 31.8582 154.323 32.8531 153.732 33.6711C153.141 34.4892 152.319 35.1156 151.266 35.5504L155.152 41.0776H149.937L146.653 36.28H145.111V41.0776H140.609Z" fill="#404040"/>
<path fill-rule="evenodd" clip-rule="evenodd" d="M124.277 34.1244V25.2255H128.857V34.0359C128.857 35.1487 129.122 35.9889 129.652 36.5563C130.182 37.1238 130.448 37.4075 131.387 37.4075C132.326 37.4075 132.736 37.1349 133.267 36.5895C133.797 36.0442 134.062 35.2298 134.062 34.1465V25.2255H138.653V34.0138C138.653 35.274 138.475 36.3758 138.119 37.3191C137.763 38.2624 137.247 39.0289 136.573 39.6185C135.899 40.208 135.098 40.6484 134.17 40.9395C133.242 41.2306 132.516 41.3761 131.341 41.3761C128.955 41.3761 127.573 40.7737 126.255 39.5687C124.936 38.3638 124.277 36.549 124.277 34.1244Z" fill="#404040"/>
<path fill-rule="evenodd" clip-rule="evenodd" d="M104.969 41.0776V25.5815C104.969 25.3849 105.128 25.2255 105.325 25.2255H109.741L113.627 31.3607L117.514 25.2255H121.93C122.126 25.2255 122.286 25.3849 122.286 25.5815V41.0776H117.786V31.9798L113.627 38.1814C113.571 38.1814 113.518 38.1531 113.486 38.106L109.389 32.024V41.0776H104.969Z" fill="#404040"/>
<path fill-rule="evenodd" clip-rule="evenodd" d="M72.3838 38.9883L74.9064 36.0699C76.5351 37.3375 78.2964 37.9713 80.1902 37.9713C80.7887 37.9713 81.247 37.8737 81.5652 37.6784C81.8833 37.4831 82.0424 37.2012 82.0424 36.8327C82.0424 36.4937 81.8549 36.2173 81.48 36.0036C81.105 35.7899 80.3796 35.5614 79.3039 35.3182C78.7509 35.193 78.2718 35.0769 77.8665 34.97C77.4612 34.8632 77.0313 34.7287 76.5768 34.5665C76.1222 34.4044 75.7359 34.2349 75.4177 34.058C75.0996 33.8812 74.789 33.6674 74.486 33.4169C74.1829 33.1663 73.9405 32.8955 73.7587 32.6044C73.5769 32.3133 73.4311 31.9724 73.3212 31.5818C73.2114 31.1912 73.1565 30.7638 73.1565 30.2995C73.1565 28.8034 73.7265 27.5838 74.8666 26.6404C76.0067 25.6971 77.5388 25.2255 79.463 25.2255C82.1371 25.2255 84.3719 25.9256 86.1672 27.3258L83.906 30.4321C82.3833 29.393 80.8645 28.8735 79.3494 28.8735C78.8191 28.8735 78.4138 28.9711 78.1335 29.1664C77.8532 29.3617 77.7131 29.6178 77.7131 29.9347C77.7131 30.3032 77.9006 30.5887 78.2756 30.7914C78.6505 30.9941 79.4024 31.2207 80.5311 31.4713C81.5311 31.685 82.3795 31.919 83.0765 32.1732C83.7734 32.4275 84.4003 32.7462 84.9571 33.1294C85.5139 33.5127 85.9286 33.9788 86.2013 34.5278C86.474 35.0769 86.6104 35.7199 86.6104 36.4569C86.6104 38.0561 86.0119 39.3163 84.815 40.2375C83.6181 41.1587 82.0197 41.6193 80.0198 41.6193C78.5502 41.6193 77.1563 41.3964 75.8382 40.9505C74.52 40.5047 73.3686 39.8506 72.3838 38.9883Z" fill="#404040"/>
<path fill-rule="evenodd" clip-rule="evenodd" d="M155.266 41.1882L161.074 27.1339C161.551 25.979 162.679 25.2255 163.93 25.2255C165.181 25.2255 166.308 25.9793 166.785 27.1343L172.583 41.1882H167.984L166.85 38.3582H160.88L159.779 41.1882H155.266ZM162.328 35.0972H165.805L164.077 30.5869L162.328 35.0972Z" fill="#404040"/>
<path fill-rule="evenodd" clip-rule="evenodd" d="M86.6396 41.1882L92.4476 27.1339C92.9248 25.979 94.0525 25.2255 95.3037 25.2255C96.5548 25.2255 97.6822 25.9793 98.1588 27.1343L103.957 41.1882H99.3578L98.2242 38.3582H92.2538L91.1525 41.1882H86.6396ZM93.7024 35.0972H97.1789L95.4514 30.5869L93.7024 35.0972Z" fill="#404040"/>
<path fill-rule="evenodd" clip-rule="evenodd" d="M175.791 24.5162C177.057 24.5162 178.082 25.5405 178.082 26.8041V29.0762H173.5V26.8041C173.5 25.5405 174.526 24.5162 175.791 24.5162Z" fill="#EA4A35"/>
<path fill-rule="evenodd" clip-rule="evenodd" d="M144.988 32.4846H147.138C147.903 32.4846 148.498 32.3132 148.922 31.9705C149.346 31.6279 149.558 31.1544 149.558 30.55C149.558 29.9384 149.344 29.4722 148.916 29.1516C148.488 28.8311 147.888 28.6708 147.115 28.6708H144.988V32.4846Z" fill="white"/>
<path d="M23.5335 45.9319C35.9401 45.9319 45.9976 35.8888 45.9976 23.5001C45.9976 11.1113 35.9401 1.06824 23.5335 1.06824C11.1269 1.06824 1.06934 11.1113 1.06934 23.5001C1.06934 35.8888 11.1269 45.9319 23.5335 45.9319Z" fill="#EA4A35"/>
<path d="M13.5364 24.3115C13.4323 23.9874 13.3283 23.8794 13.0161 23.8794C12.0935 23.8694 11.1724 23.7972 10.2588 23.6634C10.3606 24.2484 10.4996 24.8258 10.675 25.3917C11.3513 27.9843 13.0161 29.6047 15.5133 30.6309C16.762 31.117 21.3402 31.6571 21.6523 31.6571C20.3517 31.009 18.999 30.3608 17.6984 29.5507C15.6979 28.4449 14.2013 26.5609 13.5364 24.3115ZM19.5921 20.9087C18.9678 20.6387 18.3956 20.4226 17.7712 20.1526C16.0024 19.3964 16.0544 19.6124 14.5457 18.5322C14.165 19.6249 13.9542 20.7735 13.9214 21.935C13.8984 24.1532 14.8811 26.2536 16.5747 27.6062C18.3956 29.1726 19.9563 29.8207 22.1414 30.5769C22.4535 30.6849 22.6616 30.7929 23.1299 30.955C23.1299 30.0908 23.2339 25.9859 22.9218 24.6896C22.5576 22.9072 21.361 21.6649 19.5921 20.9087ZM26.8757 20.1418C25.7988 15.5345 23.5461 13.3038 23.5461 13.3038C23.5461 13.3038 21.2621 15.6156 20.206 20.1418C21.9045 20.7598 23.1702 22.2519 23.5461 24.0792C24.0351 21.0168 26.8757 20.1418 26.8757 20.1418ZM33.5297 24.3115C32.8648 26.5609 31.3682 28.4449 29.3677 29.5507C28.0671 30.3608 26.7144 31.009 25.4138 31.6571C25.7259 31.6571 30.3042 31.117 31.5528 30.6309C34.05 29.6047 35.7148 27.9843 36.3911 25.3917C36.5665 24.8258 36.7055 24.2484 36.8073 23.6634C35.8937 23.7972 34.9726 23.8694 34.05 23.8794C33.7378 23.8794 33.6338 23.9874 33.5297 24.3115ZM27.4948 20.9087C25.7259 21.6649 24.5293 22.9072 24.1652 24.6896C23.853 25.9859 23.9571 30.0908 23.9571 30.955C24.4253 30.7929 24.6334 30.6849 24.9455 30.5769C27.1306 29.8207 28.6914 29.1726 30.5123 27.6062C32.2059 26.2536 33.1885 24.1532 33.1656 21.935C33.1327 20.7735 32.922 19.6249 32.5412 18.5322C31.0325 19.6124 31.0845 19.3964 29.3157 20.1526C28.6914 20.4226 28.1191 20.6387 27.4948 20.9087Z" fill="white"/>
<path d="M23.5335 45.9319C35.9401 45.9319 45.9976 35.8888 45.9976 23.5001C45.9976 11.1113 35.9401 1.06824 23.5335 1.06824C11.1269 1.06824 1.06934 11.1113 1.06934 23.5001C1.06934 35.8888 11.1269 45.9319 23.5335 45.9319Z" fill="#EA4A35"/>
<path d="M13.5364 24.3115C13.4323 23.9874 13.3283 23.8794 13.0161 23.8794C12.0935 23.8694 11.1724 23.7972 10.2588 23.6634C10.3606 24.2484 10.4996 24.8258 10.675 25.3917C11.3513 27.9843 13.0161 29.6047 15.5133 30.6309C16.762 31.117 21.3402 31.6571 21.6523 31.6571C20.3517 31.009 18.999 30.3608 17.6984 29.5507C15.6979 28.4449 14.2013 26.5609 13.5364 24.3115ZM19.5921 20.9087C18.9678 20.6387 18.3956 20.4226 17.7712 20.1526C16.0024 19.3964 16.0544 19.6124 14.5457 18.5322C14.165 19.6249 13.9542 20.7735 13.9214 21.935C13.8984 24.1532 14.8811 26.2536 16.5747 27.6062C18.3956 29.1726 19.9563 29.8207 22.1414 30.5769C22.4535 30.6849 22.6616 30.7929 23.1299 30.955C23.1299 30.0908 23.2339 25.9859 22.9218 24.6896C22.5576 22.9072 21.361 21.6649 19.5921 20.9087ZM26.8757 20.1418C25.7988 15.5345 23.5461 13.3038 23.5461 13.3038C23.5461 13.3038 21.2621 15.6156 20.206 20.1418C21.9045 20.7598 23.1702 22.2519 23.5461 24.0792C24.0351 21.0168 26.8757 20.1418 26.8757 20.1418ZM33.5297 24.3115C32.8648 26.5609 31.3682 28.4449 29.3677 29.5507C28.0671 30.3608 26.7144 31.009 25.4138 31.6571C25.7259 31.6571 30.3042 31.117 31.5528 30.6309C34.05 29.6047 35.7148 27.9843 36.3911 25.3917C36.5665 24.8258 36.7055 24.2484 36.8073 23.6634C35.8937 23.7972 34.9726 23.8694 34.05 23.8794C33.7378 23.8794 33.6338 23.9874 33.5297 24.3115ZM27.4948 20.9087C25.7259 21.6649 24.5293 22.9072 24.1652 24.6896C23.853 25.9859 23.9571 30.0908 23.9571 30.955C24.4253 30.7929 24.6334 30.6849 24.9455 30.5769C27.1306 29.8207 28.6914 29.1726 30.5123 27.6062C32.2059 26.2536 33.1885 24.1532 33.1656 21.935C33.1327 20.7735 32.922 19.6249 32.5412 18.5322C31.0325 19.6124 31.0845 19.3964 29.3157 20.1526C28.6914 20.4226 28.1191 20.6387 27.4948 20.9087Z" fill="white"/>
</svg>
