<svg width="60" height="60" viewBox="0 0 60 60" fill="none" xmlns="http://www.w3.org/2000/svg">
<style>
		path {
            fill: #fd4938;
        }
        @media ( prefers-color-scheme: dark ) {
			path {
			  fill: #fd4938;
			}
		}
</style>
<g clip-path="url(#clip0_8_53)">
<rect width="60" height="60" />
<path fill-rule="evenodd" clip-rule="evenodd" d="M56 19.4775V43.0647L31.5161 55.3793V32.9168C31.5161 32.1583 31.9452 31.4651 32.6241 31.1268L56 19.4775ZM54.0555 15.9774L30.84 27.5467C28.8033 28.5616 27.5161 30.6413 27.5161 32.9168V54.8926L4 43.0647V16.9554L30 3.87817L54.0555 15.9774ZM0 16.9554C0 15.4437 0.85219 14.0612 2.20266 13.3819L28.2027 0.30472C29.3334 -0.264009 30.6666 -0.264008 31.7973 0.304721L57.7973 13.3819C59.1478 14.0612 60 15.4437 60 16.9554V43.0647C60 44.5763 59.1478 45.9589 57.7973 46.6381L31.7973 59.7153C30.6666 60.2841 29.3334 60.2841 28.2027 59.7153L2.20266 46.6381C0.85219 45.9589 0 44.5763 0 43.0647V16.9554Z" />
</g>
<defs>
<clipPath id="clip0_8_53">
<rect width="60" height="60" fill="white"/>
</clipPath>
</defs>
</svg>
