<svg width="34" height="21" viewBox="0 0 34 21" fill="none" xmlns="http://www.w3.org/2000/svg">
<path d="M9.58154 7.38415C9.58154 7.80255 9.62677 8.14179 9.70593 8.39057C9.79639 8.63934 9.90947 8.91074 10.0678 9.20475C10.1243 9.29521 10.1469 9.38567 10.1469 9.46483C10.1469 9.57791 10.0791 9.69099 9.93209 9.80407L9.21968 10.279C9.11791 10.3469 9.01613 10.3808 8.92567 10.3808C8.81259 10.3808 8.69951 10.3242 8.58643 10.2225C8.42812 10.0528 8.29242 9.87192 8.17934 9.69099C8.06626 9.49876 7.95318 9.2839 7.82879 9.02382C6.94676 10.0642 5.83857 10.5843 4.50423 10.5843C3.55435 10.5843 2.79671 10.3129 2.24262 9.77015C1.68852 9.22736 1.40582 8.50365 1.40582 7.599C1.40582 6.63782 1.74506 5.85757 2.43485 5.26955C3.12465 4.68153 4.0406 4.38752 5.20532 4.38752C5.5898 4.38752 5.98558 4.42144 6.40398 4.47798C6.82237 4.53452 7.25208 4.62499 7.7044 4.72676V3.90127C7.7044 3.04186 7.52347 2.44254 7.17292 2.09199C6.81107 1.74144 6.20043 1.57182 5.32971 1.57182C4.93393 1.57182 4.52684 1.61705 4.10844 1.71882C3.69005 1.82059 3.28296 1.94498 2.88718 2.1033C2.70625 2.18245 2.57055 2.22768 2.49139 2.2503C2.41224 2.27292 2.3557 2.28422 2.31047 2.28422C2.15215 2.28422 2.073 2.17114 2.073 1.93368V1.37958C2.073 1.19865 2.09561 1.06296 2.15215 0.9838C2.20869 0.904643 2.31047 0.825487 2.46878 0.746331C2.86456 0.542786 3.3395 0.373165 3.89359 0.237469C4.44769 0.0904643 5.0357 0.0226161 5.65765 0.0226161C7.0033 0.0226161 7.9871 0.327933 8.62035 0.938567C9.2423 1.5492 9.55892 2.47646 9.55892 3.72035V7.38415H9.58154ZM4.99047 9.10297C5.36364 9.10297 5.74811 9.03513 6.1552 8.89943C6.56229 8.76373 6.92415 8.51496 7.22946 8.17571C7.41039 7.96086 7.54609 7.72339 7.61394 7.452C7.68179 7.18061 7.72702 6.85267 7.72702 6.4682V5.99326C7.39908 5.91411 7.04853 5.84626 6.68668 5.80103C6.32482 5.75579 5.97427 5.73318 5.62372 5.73318C4.86608 5.73318 4.31199 5.88018 3.93882 6.1855C3.56566 6.49082 3.38473 6.92052 3.38473 7.48592C3.38473 8.0174 3.52043 8.41318 3.80313 8.68458C4.07452 8.96728 4.4703 9.10297 4.99047 9.10297ZM14.0708 10.3242C13.8673 10.3242 13.7316 10.2903 13.6411 10.2112C13.5507 10.1433 13.4715 9.985 13.4037 9.77015L10.7463 1.02903C10.6784 0.802871 10.6445 0.655866 10.6445 0.57671C10.6445 0.395781 10.735 0.294009 10.9159 0.294009H12.0241C12.2389 0.294009 12.3859 0.327933 12.4651 0.407089C12.5556 0.474938 12.6234 0.63325 12.6912 0.848103L14.591 8.33403L16.3551 0.848103C16.4116 0.621942 16.4794 0.474938 16.5699 0.407089C16.6604 0.339241 16.8187 0.294009 17.0222 0.294009H17.9269C18.1417 0.294009 18.2887 0.327933 18.3792 0.407089C18.4697 0.474938 18.5488 0.63325 18.594 0.848103L20.3807 8.42449L22.337 0.848103C22.4049 0.621942 22.484 0.474938 22.5632 0.407089C22.6536 0.339241 22.8006 0.294009 23.0042 0.294009H24.0558C24.2368 0.294009 24.3385 0.384473 24.3385 0.57671C24.3385 0.63325 24.3272 0.689791 24.3159 0.757639C24.3046 0.825487 24.282 0.915951 24.2368 1.04034L21.5115 9.78146C21.4437 10.0076 21.3645 10.1546 21.2741 10.2225C21.1836 10.2903 21.0366 10.3355 20.8443 10.3355H19.8719C19.657 10.3355 19.51 10.3016 19.4195 10.2225C19.3291 10.1433 19.2499 9.99631 19.2047 9.77015L17.4519 2.47646L15.7105 9.75884C15.654 9.985 15.5861 10.132 15.4956 10.2112C15.4052 10.2903 15.2469 10.3242 15.0433 10.3242H14.0708ZM28.6017 10.6296C28.0136 10.6296 27.4256 10.5617 26.8602 10.426C26.2948 10.2903 25.8538 10.1433 25.5598 9.97369C25.3789 9.87192 25.2545 9.75884 25.2092 9.65707C25.164 9.5553 25.1414 9.44221 25.1414 9.34044V8.76373C25.1414 8.52626 25.2319 8.41318 25.4015 8.41318C25.4693 8.41318 25.5372 8.42449 25.605 8.44711C25.6729 8.46972 25.7747 8.51496 25.8877 8.56019C26.2722 8.72981 26.6906 8.8655 27.1316 8.95597C27.5839 9.04643 28.025 9.09167 28.4773 9.09167C29.1897 9.09167 29.7438 8.96728 30.1282 8.7185C30.5127 8.46972 30.7163 8.10787 30.7163 7.64424C30.7163 7.32761 30.6145 7.06753 30.4109 6.85267C30.2074 6.63782 29.8229 6.44558 29.2688 6.26466L27.6292 5.75579C26.8037 5.49571 26.193 5.11123 25.8199 4.60237C25.4467 4.10482 25.2545 3.55072 25.2545 2.96271C25.2545 2.48777 25.3563 2.06937 25.5598 1.70751C25.7633 1.34566 26.0347 1.02903 26.374 0.780255C26.7132 0.52017 27.0977 0.327933 27.55 0.192237C28.0023 0.0565402 28.4773 0 28.9748 0C29.2236 0 29.4837 0.011308 29.7325 0.0452322C29.9926 0.0791563 30.23 0.124388 30.4675 0.169621C30.6936 0.226161 30.9085 0.282701 31.112 0.350549C31.3156 0.418398 31.4739 0.486246 31.587 0.554094C31.7453 0.644558 31.8584 0.735023 31.9262 0.836795C31.9941 0.927259 32.028 1.05165 32.028 1.20996V1.74144C32.028 1.97891 31.9375 2.1033 31.7679 2.1033C31.6774 2.1033 31.5304 2.05806 31.3382 1.9676C30.6936 1.67359 29.9699 1.52659 29.1671 1.52659C28.5225 1.52659 28.0136 1.62836 27.6631 1.84321C27.3125 2.05806 27.1316 2.386 27.1316 2.84963C27.1316 3.16625 27.2447 3.43764 27.4709 3.6525C27.697 3.86735 28.1154 4.0822 28.7147 4.27444L30.3205 4.7833C31.1347 5.04339 31.7227 5.40524 32.0732 5.86887C32.4238 6.3325 32.5934 6.86398 32.5934 7.452C32.5934 7.93825 32.4916 8.37926 32.2994 8.76373C32.0958 9.14821 31.8245 9.48745 31.4739 9.75884C31.1234 10.0415 30.705 10.2451 30.2187 10.3921C29.7098 10.5504 29.1784 10.6296 28.6017 10.6296Z" fill="#252F3E"/>
<path fill-rule="evenodd" clip-rule="evenodd" d="M30.7389 16.1253C27.0185 18.8731 21.6133 20.3319 16.9657 20.3319C10.4523 20.3319 4.58338 17.9232 0.150625 13.9202C-0.199924 13.6036 0.116701 13.1739 0.535098 13.4226C5.32971 16.2044 11.2438 17.8893 17.3615 17.8893C21.4889 17.8893 26.0234 17.0299 30.1961 15.2659C30.818 14.9832 31.3495 15.6729 30.7389 16.1253Z" fill="#FF9900"/>
<path fill-rule="evenodd" clip-rule="evenodd" d="M32.2881 14.3612C31.8132 13.7506 29.1445 14.0672 27.9345 14.2142C27.5727 14.2594 27.5161 13.9428 27.844 13.7054C29.97 12.2127 33.4641 12.6424 33.8712 13.14C34.2783 13.6488 33.7582 17.143 31.7679 18.8166C31.4626 19.0767 31.1686 18.941 31.3043 18.6017C31.7566 17.4822 32.7631 14.9605 32.2881 14.3612Z" fill="#FF9900"/>
</svg>
