<svg width="105" height="105" viewBox="0 0 105 105" fill="none" xmlns="http://www.w3.org/2000/svg">
<path d="M73.3251 32.8594H30.142C26.2935 32.8594 23.1621 35.9907 23.1621 39.8393V64.673C23.1621 68.5215 26.2935 71.6528 30.142 71.6528H73.3251C77.1736 71.6528 80.305 68.5215 80.305 64.673V39.84C80.3057 35.9907 77.1744 32.8594 73.3251 32.8594ZM69.9145 37.413L51.7335 49.1263L33.5526 37.413H69.9145ZM73.3251 67.1H30.142C28.804 67.1 27.7157 66.0109 27.7157 64.6737V39.969L50.3288 54.5101C50.3591 54.5291 50.3918 54.542 50.4229 54.5595C50.4555 54.5777 50.4889 54.5951 50.5223 54.6118C50.6976 54.7021 50.8782 54.775 51.0626 54.8228C51.0816 54.8281 51.1006 54.8304 51.1196 54.8349C51.3222 54.8828 51.5271 54.9124 51.732 54.9124C51.7328 54.9124 51.7335 54.9124 51.7335 54.9124C51.7351 54.9124 51.7358 54.9124 51.7366 54.9124C51.9415 54.9124 52.1464 54.8835 52.349 54.8349C52.368 54.8304 52.387 54.8281 52.406 54.8228C52.5904 54.775 52.7702 54.7021 52.9463 54.6118C52.9797 54.5951 53.0131 54.5777 53.0457 54.5595C53.0768 54.542 53.1095 54.5291 53.1398 54.5101L75.7529 39.969V64.673C75.7521 66.0109 74.6631 67.1 73.3251 67.1Z" fill="#EA4A35"/>
<circle cx="52.5" cy="52.5" r="50" stroke="#EA4A35" stroke-width="5"/>
</svg>
