<svg width="26" height="25" viewBox="0 0 26 25" fill="none" xmlns="http://www.w3.org/2000/svg">
<path d="M15.4594 14.3737H15.1693C14.9423 14.5112 14.8414 14.7737 14.9423 14.9987L16.0269 17.6366C17.0737 16.974 17.8683 15.9864 18.2845 14.8237L15.472 14.3737H15.4594ZM11.1082 14.7362C11.0325 14.5237 10.8433 14.3737 10.6289 14.3737H10.528L7.72811 14.8362C8.14431 15.9864 8.93888 16.9615 9.98569 17.6241L11.0577 15.0363V14.9987C11.1082 14.9362 11.1082 14.8237 11.1082 14.7362ZM13.4162 15.7488C13.2901 15.5238 13 15.4363 12.773 15.5613C12.6847 15.6238 12.6216 15.6613 12.5838 15.7488H12.5712L11.1965 18.2117C12.1802 18.5367 13.2396 18.5992 14.2612 18.3617C14.4378 18.3242 14.627 18.2742 14.8035 18.2117L13.4288 15.7488H13.4162ZM17.7674 10.0356L15.6486 11.8734L15.6612 11.9109C15.4594 12.0859 15.4341 12.3859 15.6107 12.5734C15.6738 12.6485 15.7495 12.6985 15.8377 12.7235L15.8504 12.736L18.5872 13.5111C18.6755 12.2984 18.4106 11.0733 17.7674 10.0356ZM13.845 10.2357C13.8576 10.4982 14.072 10.6982 14.3369 10.6857C14.4378 10.6857 14.5261 10.6607 14.6017 10.6232H14.6144L16.9224 8.9855C16.0395 8.12289 14.8918 7.58532 13.6811 7.4353L13.845 10.2357ZM11.3983 10.6232C11.6127 10.7607 11.9027 10.7232 12.0541 10.5107C12.1171 10.4357 12.1424 10.3482 12.155 10.2482H12.1676L12.3189 7.4353C12.1298 7.46031 11.9406 7.49781 11.7388 7.53532C10.7298 7.76034 9.79651 8.26041 9.065 8.9855L11.3856 10.6232H11.3983ZM10.1496 12.736C10.4019 12.6735 10.5532 12.4109 10.4776 12.1609C10.4776 12.0609 10.4145 11.9859 10.3388 11.9234V11.9109L8.21999 9.99812C7.56415 11.0733 7.28668 12.2984 7.42542 13.5236L10.1496 12.7485V12.736ZM12.218 13.5611L13 13.9361L13.782 13.5611L13.9711 12.7235L13.4288 12.0609H12.5586L12.0163 12.7235L12.218 13.5611ZM25.9527 15.2113L23.7204 5.62258C23.6068 5.09751 23.2537 4.67246 22.7871 4.44743L13.7441 0.159395C13.2775 -0.0531316 12.7225 -0.0531316 12.2433 0.159395L3.21295 4.44743C2.7463 4.67246 2.39316 5.09751 2.27965 5.62258L0.0472957 15.2113C-0.0157652 15.4613 -0.0157652 15.7113 0.0472957 15.9489C0.0599078 16.0239 0.0851321 16.0989 0.110356 16.1739C0.148193 16.2864 0.211254 16.4114 0.274315 16.5114C0.312151 16.5614 0.337376 16.6115 0.387824 16.649L6.63085 24.3749C6.65608 24.3749 6.69391 24.4249 6.69391 24.4499C6.82003 24.5624 6.93354 24.65 7.04705 24.725C7.1984 24.825 7.37497 24.9 7.55154 24.9375C7.69027 25 7.84162 25 7.95513 25H18.1962C18.2845 25 18.3728 24.9625 18.4485 24.9375C18.5115 24.925 18.5746 24.9 18.625 24.8875C18.6755 24.8625 18.7133 24.85 18.7638 24.825C18.8268 24.8 18.8899 24.7625 18.9529 24.725C19.1043 24.625 19.243 24.4999 19.3691 24.3749L19.5583 24.1249L25.6122 16.649C25.7383 16.4989 25.8266 16.3364 25.8896 16.1739C25.9149 16.0989 25.9401 16.0239 25.9527 15.9489C26.0158 15.7113 26.0158 15.4488 25.9527 15.2113ZM16.5819 18.9492C16.6071 19.0243 16.6323 19.0993 16.6701 19.1618C16.6197 19.2618 16.5945 19.3743 16.6323 19.4868C16.7837 19.7868 16.9224 20.0619 17.1116 20.3369C17.2125 20.4744 17.3134 20.6245 17.4143 20.762C17.4143 20.7995 17.4521 20.862 17.4647 20.912C17.6161 21.162 17.5404 21.4871 17.2755 21.6496C17.0107 21.8121 16.6828 21.7121 16.5314 21.4621C16.5188 21.4246 16.5062 21.3995 16.4936 21.362C16.4683 21.3245 16.4431 21.2495 16.4179 21.2495C16.3548 21.062 16.3044 20.8995 16.2666 20.737C16.153 20.4244 16.0521 20.1244 15.8882 19.8369C15.8251 19.7493 15.7242 19.6868 15.6233 19.6618L15.5224 19.4618C13.8955 20.0619 12.1171 20.0619 10.5154 19.4493L10.3893 19.6743C10.301 19.6868 10.2127 19.7243 10.1496 19.7868C9.97308 20.0869 9.84696 20.3994 9.73345 20.7495C9.69561 20.912 9.64516 21.0745 9.5821 21.2495C9.55688 21.2495 9.53165 21.337 9.50643 21.3745C9.40553 21.6496 9.10284 21.7996 8.81276 21.6996C8.53529 21.5996 8.38394 21.2995 8.48484 21.012C8.49745 20.9745 8.52268 20.9495 8.53529 20.912C8.58574 20.8745 8.58574 20.812 8.58574 20.7745C8.69925 20.6245 8.78753 20.4869 8.88843 20.3369C9.09023 20.0744 9.25418 19.7743 9.38031 19.4743C9.39292 19.3743 9.38031 19.2618 9.34247 19.1618L9.43075 18.9367C7.95513 18.0616 6.84526 16.699 6.31555 15.0738L6.0633 15.1113C5.98763 15.0488 5.87412 14.9987 5.77322 14.9987C5.43269 15.0613 5.13 15.1613 4.80209 15.2738C4.66335 15.3488 4.49939 15.4113 4.33544 15.4613C4.2976 15.4738 4.24715 15.4863 4.17148 15.4988C3.89401 15.5863 3.59132 15.4363 3.49042 15.1613C3.40213 14.8737 3.54087 14.5737 3.84356 14.4737C3.86878 14.4737 3.90662 14.4612 3.94446 14.4612V14.4487H3.95707L4.0958 14.4237C4.27237 14.3737 4.44894 14.3737 4.6129 14.3737C4.94082 14.3737 5.26874 14.2987 5.58404 14.2237C5.68494 14.1611 5.76061 14.0861 5.82367 13.9861L6.0633 13.9236C5.79845 12.2234 6.18943 10.5107 7.14795 9.08551L6.97138 8.93549C6.97138 8.82298 6.93354 8.71046 6.87048 8.62295C6.61824 8.41043 6.35338 8.2229 6.0633 8.06038C5.91196 7.98537 5.76061 7.89786 5.60926 7.79785C5.58404 7.77285 5.53359 7.73534 5.50837 7.71034L5.49576 7.69784C5.24351 7.49781 5.18045 7.17277 5.35702 6.91024C5.47053 6.78522 5.62188 6.72272 5.79845 6.72272C5.93718 6.73522 6.0633 6.78522 6.17681 6.87273L6.29032 6.96025C6.41644 7.07276 6.52995 7.21028 6.64346 7.33529C6.87048 7.57282 7.11011 7.79785 7.37497 7.98537C7.47587 8.03538 7.58938 8.04788 7.70289 8.02288L7.89207 8.16039C8.83798 7.16027 10.074 6.46018 11.4235 6.16014C11.7388 6.08514 12.0793 6.03513 12.4072 6.01013L12.4198 5.7851C12.5081 5.71009 12.5586 5.62258 12.5964 5.49756C12.609 5.17252 12.5838 4.84748 12.5333 4.53494C12.4955 4.37242 12.4703 4.1974 12.4577 4.02238V3.87236C12.4325 3.57232 12.6469 3.30979 12.9496 3.27228C13.2522 3.23478 13.5045 3.45981 13.5423 3.74734V4.02238C13.5297 4.1974 13.5045 4.37242 13.4667 4.53494C13.4162 4.84748 13.391 5.17252 13.4036 5.49756C13.4288 5.62258 13.4919 5.71009 13.5802 5.7726L13.5928 6.01013C15.308 6.16014 16.8972 6.92274 18.0827 8.16039L18.2845 8.01038C18.398 8.03538 18.5115 8.02288 18.6124 7.97287C18.8773 7.78535 19.1295 7.56032 19.3439 7.32279C19.4574 7.19777 19.5709 7.07276 19.6971 6.94774C19.7349 6.92274 19.7854 6.87273 19.8232 6.87273C20.0376 6.64771 20.3781 6.64771 20.5673 6.87273C20.8069 7.07276 20.7943 7.4103 20.5673 7.62283C20.5673 7.64783 20.5295 7.67283 20.4916 7.69784C20.4664 7.72284 20.416 7.76034 20.3781 7.78535C20.2394 7.88536 20.088 7.97287 19.9367 8.04788C19.6466 8.2104 19.3691 8.39793 19.1295 8.61045C19.0538 8.69796 19.016 8.79797 19.0286 8.91049L18.8268 9.08551C19.798 10.4982 20.1889 12.2234 19.9367 13.9111L20.1763 13.9736C20.2268 14.0736 20.3151 14.1486 20.416 14.1986C20.7313 14.2862 21.0592 14.3362 21.3871 14.3737H21.9042C21.942 14.4112 22.0051 14.4237 22.0555 14.4362C22.3582 14.4737 22.56 14.7487 22.5222 15.0488C22.4591 15.3363 22.2195 15.5488 21.9168 15.5113C21.879 15.4988 21.8285 15.4988 21.8285 15.4863V15.4738C21.7529 15.4738 21.7024 15.4613 21.652 15.4488C21.488 15.3988 21.3366 15.3363 21.1979 15.2613C20.87 15.1363 20.5673 15.0488 20.2268 14.9987C20.1133 14.9987 20.0124 14.9987 19.9367 15.0988C19.8484 15.0863 19.7727 15.0738 19.6971 15.0613C19.18 16.699 18.0449 18.0741 16.5819 18.9492Z" fill="black"/>
</svg>
